<?xml version="1.0" encoding="UTF-8"?>
<svg id="Layer_2" data-name="Layer 2" xmlns="http://www.w3.org/2000/svg" viewBox="0 0 11.18 10.12">
  <defs>
    <style>
      .cls-1 {
        fill: #d7182a;
      }
    </style>
  </defs>
  <g id="Layer_1-2" data-name="Layer 1-2">
    <path class="cls-1" d="m9.74,6.01c-.48-.45-1.6-1.35-1.74-1.51-.14-.16-.37-.44-.53-.58-.16-.14-.27-.29-.4-.42s-.99-.65-1.27-.84c-.28-.19-.87-.62-1.13-.78-.27-.16-.63-.42-.88-.45-.24-.03-.58-.16-.74-.28-.17-.12-.5-.47-.66-.58-.15-.11-.81-.4-.81-.4,0,0,.83.55,1.1.85.27.3.28.34.48.53s.46.39.55.53c.09.13.23.05.37.15.13.09.38.28.43.41.06.13.19.25.32.36s.3.28.37.36c.07.07.08-.04.2-.05s.26.27.26.27c0,0,.24.2.44.4.19.2.16.23.41.33.25.09.42.28.57.35.14.08.32.25.38.29.07.04.27-.03.3.1s-.04.24.1.24.34.05.51.13.36.13.57.31c.21.19.37.45.48.45s.14-.04.34.11c.2.14.43.37.59.48s.68.48.68.48c0,0-.79-.83-1.27-1.27m-.69,1.36c-.05-.06-.24.04-.24.04,0,0-.48-.47-.65-.63-.17-.16-.61-.41-.76-.6s-.48-.65-.6-.63c-.13.02-.41-.01-.41-.01,0,0-.67-.72-.8-.82-.13-.1-.36-.48-.45-.56-.09-.08-.11-.04-.32-.1-.21-.05-.79-.39-.98-.53-.18-.14-.47-.39-.65-.48s-.65-.42-.82-.51C2.2,2.44.18.82.18.82c0,0,1.09.96,1.39,1.18s.6.56.75.82c.14.25.57.68.57.68,0,0,.23-.19.37-.11.14.08.43.51.56.62.13.11.46.34.48.42.02.07.11.32.11.32,0,0,.22-.07.32.05.1.12.6.51.79.72.19.2.33.36.56.4.23.05.37.23.44.31.08.08.08.19.23.18.15-.02.3.14.44.23s.59.34.8.51c.21.17.37.3.54.38.17.07.24.2.35.19s.24.16.24.16c0,0,.29.1.46.22.18.12.64.5.64.5,0,0-.51-.73-.72-.85s-.41-.32-.46-.38m-1.11,1.55c-.18-.15-.51-.42-.51-.42l-.06-.32s-.69-.43-1.03-.65c-.34-.22-1.14-.92-1.14-.92,0,0-.24-.25-.35-.31-.12-.06-.78-.55-.78-.55,0,0-.17-.07-.35-.14-.18-.07-.37-.26-.42-.38-.05-.12-.42-.41-.52-.45s-.52-.24-.61-.29c-.09-.05-.26-.18-.37-.26s-.94-.63-.94-.63c0,0,.47.38.64.51s.24.29.34.4c.1.12.24.37.24.37,0,0,.13-.06.19.02s.07.16.18.2c.12.04.08.08.11.16s.07.18.07.18c0,0,.19.07.33.2.14.13.63.52.65.59,0,.07.03.19.03.19,0,0,1.4.98,1.53,1.06.13.07.22.25.36.34.14.09.56.32.68.38.12.06.38.23.47.28.09.05.29.18.51.25s.55.36.61.43c.06.07.22.01.32.08s.24.22.35.26c.11.04.55.45.55.45,0,0-.06-.37-.18-.42s-.71-.45-.9-.6"/>
  </g>
</svg>