<?xml version="1.0" encoding="utf-8"?>
<!-- Generator: Adobe Illustrator 27.7.0, SVG Export Plug-In . SVG Version: 6.00 Build 0)  -->
<svg version="1.1" id="Layer_1" xmlns="http://www.w3.org/2000/svg" xmlns:xlink="http://www.w3.org/1999/xlink" x="0px" y="0px"
	 viewBox="0 0 30 30" style="enable-background:new 0 0 30 30;" xml:space="preserve">
<style type="text/css">
	.st0{clip-path:url(#SVGID_00000046339171885104949420000014500379356945555903_);}
	.st1{fill:#B02B3A;}
</style>
<g id="Layer_1-2">
	<g>
		<defs>
			<rect id="SVGID_1_" x="0.4" y="0.1" width="29.1" height="29.7"/>
		</defs>
		<clipPath id="SVGID_00000047052088742745185670000008629641458517051046_">
			<use xlink:href="#SVGID_1_"  style="overflow:visible;"/>
		</clipPath>
		<g style="clip-path:url(#SVGID_00000047052088742745185670000008629641458517051046_);">
			<path class="st1" d="M11.9,18.5l1.9,1.8l0.1-8.6l-8.4,0.5l1.7,1.7l-3.5,3.6c-0.5-0.6-0.9-1.9-0.9-2.4C2.4,11.6,3.7,8,6.3,5.2
				s6.1-4.3,9.6-4.5c0,0-5.7-2.4-11.1,3.1C-1.4,10-0.7,20.3,5,25.5"/>
			<path class="st1" d="M18.1,11.5l-1.9-1.8l-0.1,8.6l8.4-0.5l-1.7-1.7l3.5-3.6c0.5,0.6,0.9,1.9,0.9,2.4c0.3,3.5-1,7.2-3.6,10
				c-2.6,2.8-6.1,4.3-9.6,4.5c0,0,5.7,2.4,11.1-3.1C31.4,20,30.7,9.7,25,4.5"/>
		</g>
	</g>
</g>
</svg>
