<?xml version="1.0" encoding="UTF-8"?>
<!DOCTYPE svg PUBLIC "-//W3C//DTD SVG 1.1//EN" "http://www.w3.org/Graphics/SVG/1.1/DTD/svg11.dtd">
<!-- Creator: CorelDRAW X5 -->
<svg xmlns="http://www.w3.org/2000/svg" xml:space="preserve" width="2048px" height="2048px" style="shape-rendering:geometricPrecision; text-rendering:geometricPrecision; image-rendering:optimizeQuality; fill-rule:evenodd; clip-rule:evenodd"
viewBox="0 0 2048 2048"
 xmlns:xlink="http://www.w3.org/1999/xlink">
 <defs>
  <style type="text/css">
   <![CDATA[
    .fil1 {fill:none}
    .fil0 {fill:#ff0000;fill-rule:nonzero}
   ]]>
  </style>
 </defs>
 <g id="Layer_x0020_1">
  <metadata id="CorelCorpID_0Corel-Layer"/>
  <g id="_428540376">
   <path class="fil0" d="M1124 1666c20,-34 32,-72 34,-111 3,-47 -9,-93 -28,-136 -27,-61 -55,-123 -84,-183 -19,35 -41,69 -64,101 -42,58 -79,128 -90,199 -6,42 -3,83 15,121 37,69 92,132 104,135 17,5 78,-54 113,-125z"/>
   <path class="fil0" d="M618 1447c18,48 43,88 70,121 30,36 62,66 96,92 15,12 31,22 47,32 -25,-54 -30,-111 -22,-169 12,-82 52,-164 105,-236 66,-90 107,-187 130,-251 33,66 89,183 163,348 29,65 38,124 35,176 -3,60 -23,110 -45,148 29,-15 57,-33 85,-56 0,0 1,-1 1,-1 31,-26 60,-57 87,-93 10,-14 20,-28 29,-43 9,-15 18,-31 26,-48 13,-28 39,-95 37,-189 -2,-95 -33,-218 -133,-359 0,0 0,-1 -1,-1 -92,-125 -149,-243 -185,-345 -48,-138 -55,-249 -54,-316 -5,5 -11,10 -16,15 -13,13 -25,27 -35,41 -40,52 -69,110 -89,170 0,0 0,1 0,1 -21,65 -31,133 -31,200 0,42 -2,80 -6,113 -4,34 -11,63 -19,85 -12,32 -28,53 -45,63 -15,9 -31,10 -46,3 -12,-5 -23,-16 -32,-31 -14,-25 -24,-69 -24,-129 -16,18 -34,42 -53,75 -22,38 -44,87 -64,151l0 0c-14,44 -24,85 -31,122 -7,41 -11,77 -11,109 0,1 0,1 0,2l0 21 0 0c0,4 0,9 0,14 0,3 0,8 1,14l0 0 0 0c4,58 15,108 31,151z"/>
  </g>
 </g>
</svg>
