<?xml version="1.0" encoding="utf-8"?>
<!-- Generator: Adobe Illustrator 27.7.0, SVG Export Plug-In . SVG Version: 6.00 Build 0)  -->
<svg version="1.1" id="Layer_1" xmlns="http://www.w3.org/2000/svg" xmlns:xlink="http://www.w3.org/1999/xlink" x="0px" y="0px"
	 viewBox="0 0 30 30" style="enable-background:new 0 0 30 30;" xml:space="preserve">
<style type="text/css">
	.st0{fill:#E01E2D;}
	.st1{fill:none;stroke:#231F20;stroke-width:0.25;stroke-linecap:round;stroke-linejoin:round;}
</style>
<g id="Layer_1-2">
	<path class="st0" d="M29.8,16.4c-0.1-1.7-1.3-3.5-2.3-4.2c-1.9-1.4-4.4-1.4-4.4-1.4s4-7.1,4.2-7.3c0.2-0.2,1.2-0.1,1.2-0.1V2.5H24
		v0.9c0,0,0.6,0,1.1,0.1C25.6,3.5,25,4.9,25,4.9l-4.7,8.2c0,0,0,0.1-0.1,0.1c0-4.1,0-8.2,0-9.4c0-0.2,0.5-0.4,0.7-0.4
		c0.3,0,0.5,0,0.5,0V2.5h-6l0,0.8c0,0,0.4-0.1,0.9,0.1c0.4,0.1,0.4,0.4,0.4,0.4v18.8c0,0.4-1.2,0.4-1.2,0.4v0.8h6V23
		c0,0-0.5,0-0.9,0c-0.5,0-0.4-0.5-0.4-0.5s0-3.8,0-8.1c0.1-0.1,0.2-0.2,0.3-0.4c0.2-0.2,0.2-0.3,0.8-0.8c0.2-0.2,0.9-0.7,2.1-0.2
		c1.3,0.4,3.2,2.4,2.9,7.2s-3.7,7.1-3.9,7.3s-0.8,0.8,0.2,0.4c0.3-0.1,2.1-0.8,3.8-2.6C29.7,22,30.1,20,29.8,16.4 M6.3,23.8l-2-8.7
		v8.7H0.1V2.5h5.4l2,9.6l1.9-9.6h5.4v21.3h-4.3v-8.7l-1.9,8.7L6.3,23.8L6.3,23.8z"/>
	<path class="st1" d="M29.8,16.4c-0.1-1.7-1.3-3.5-2.3-4.2c-1.9-1.4-4.4-1.4-4.4-1.4s4-7.1,4.2-7.3c0.2-0.2,1.2-0.1,1.2-0.1V2.4H24
		v0.9c0,0,0.6,0,1.1,0.1C25.6,3.5,25,4.8,25,4.8l-4.7,8.2c0,0,0,0.1-0.1,0.1c0-4.1,0-8.2,0-9.4c0-0.2,0.5-0.4,0.7-0.4
		c0.3,0,0.5,0,0.5,0V2.5h-6l0,0.8c0,0,0.4-0.1,0.9,0.1c0.4,0.1,0.4,0.4,0.4,0.4v18.8c0,0.4-1.2,0.4-1.2,0.4v0.8h6V23
		c0,0-0.5,0-0.9,0c-0.5,0-0.4-0.5-0.4-0.5s0-3.8,0-8.1c0.1-0.1,0.2-0.2,0.3-0.4c0.2-0.2,0.2-0.3,0.8-0.8c0.2-0.2,0.9-0.7,2.1-0.2
		c1.3,0.4,3.2,2.4,2.9,7.2c-0.3,4.7-3.7,7.1-3.9,7.3s-0.8,0.8,0.2,0.4c0.3-0.1,2.1-0.8,3.8-2.6C29.7,22,30.1,20,29.8,16.4L29.8,16.4
		z M7.4,12.1L5.5,2.5H0.1v21.3h4.3v-8.7l2,8.7h2.3l1.9-8.7v8.7h4.3V2.5H9.4L7.4,12.1L7.4,12.1z"/>
</g>
</svg>
