<?xml version="1.0" encoding="UTF-8"?>
<svg id="Layer_2" data-name="Layer 2" xmlns="http://www.w3.org/2000/svg" viewBox="0 0 20.82 17.86">
  <defs>
    <style>
      .cls-1 {
        fill: #e11a2c;
      }

      .cls-2 {
        fill: none;
        stroke: #231f20;
        stroke-linecap: round;
        stroke-linejoin: round;
        stroke-width: .25px;
      }
    </style>
  </defs>
  <g id="Layer_1-2" data-name="Layer 1">
    <path class="cls-1" d="m20.65,9.75c-.09-1.16-.89-2.39-1.58-2.89-1.3-.95-3.05-.97-3.05-.97,0,0,2.78-4.88,2.91-5.03.12-.16.86-.09.86-.09V.13h-3.12v.59s.44-.03.75.06c.31.09-.05,1-.05,1l-3.25,5.69s-.02.06-.04.1c0-2.82-.01-5.68,0-6.52,0-.15.32-.3.47-.3.2,0,.34.02.34.02V.14h-4.12l.03.55s.3-.05.61.04c.31.09.3.31.3.31v13c-.03.31-.81.28-.81.28v.56h4.12v-.56s-.37-.03-.59-.03c-.33,0-.31-.34-.31-.34,0,0-.01-2.66-.02-5.58.07-.07.15-.15.24-.25.12-.13.17-.22.52-.55.17-.16.59-.45,1.47-.17.88.28,2.24,1.69,2.02,4.97-.22,3.28-2.58,4.94-2.69,5.03-.11.09-.55.54.17.25.18-.07,1.47-.53,2.66-1.8,2.08-2.22,2.38-3.58,2.19-6.09M4.42,14.88l-1.35-5.98v5.98H.13V.15h3.73l1.35,6.61L6.55.15h3.73v14.72h-2.95v-5.98l-1.34,5.98h-1.56Z"/>
    <path class="cls-2" d="m20.65,9.75c-.09-1.16-.89-2.39-1.58-2.89-1.3-.95-3.05-.97-3.05-.97,0,0,2.78-4.88,2.91-5.03.12-.16.86-.09.86-.09V.12h-3.12v.59s.44-.03.75.06c.31.09-.05,1-.05,1l-3.25,5.69s-.02.06-.04.1c0-2.82-.01-5.68,0-6.52,0-.15.32-.3.46-.3.2,0,.34.02.34.02V.14h-4.12l.03.55s.3-.05.61.04c.31.09.3.31.3.31v13c-.03.31-.81.28-.81.28v.56h4.12v-.56s-.37-.03-.59-.03c-.33,0-.31-.34-.31-.34,0,0-.01-2.66-.02-5.58.07-.07.15-.15.24-.25.12-.13.17-.22.52-.55.17-.16.59-.45,1.47-.17s2.23,1.69,2.02,4.97c-.22,3.28-2.58,4.94-2.69,5.03-.11.09-.55.54.17.25.18-.07,1.47-.53,2.66-1.8,2.08-2.22,2.38-3.58,2.19-6.09Zm-15.45-2.98L3.86.15H.12v14.72h2.95v-5.98l1.35,5.98h1.56l1.34-5.98v5.98h2.95V.15h-3.73l-1.34,6.61Z"/>
  </g>
</svg>