<?xml version="1.0" encoding="utf-8"?>
<!-- Generator: Adobe Illustrator 27.7.0, SVG Export Plug-In . SVG Version: 6.00 Build 0)  -->
<svg version="1.1" id="Layer_1" xmlns="http://www.w3.org/2000/svg" xmlns:xlink="http://www.w3.org/1999/xlink" x="0px" y="0px"
	 viewBox="0 0 30 30" style="enable-background:new 0 0 30 30;" xml:space="preserve">
<style type="text/css">
	.st0{opacity:0.58;fill:url(#SVGID_00000049188634366568149310000004414861855921091470_);enable-background:new    ;}
	.st1{fill:#06A2D2;}
</style>
<g>
	<g>
		<g>
			<defs>
				<rect id="SVGID_1_" x="0.6" y="1.5" width="31.9" height="20.4"/>
			</defs>
			<clipPath id="SVGID_00000079461900346896979490000005590548174481174697_">
				<use xlink:href="#SVGID_1_"  style="overflow:visible;"/>
			</clipPath>
		</g>
	</g>
	
		<radialGradient id="SVGID_00000147902038396511381520000017757359021847743650_" cx="15.0661" cy="18.1834" r="11.9634" fx="23.0356" fy="27.1058" gradientTransform="matrix(1 0 0 -1.0743 0 34.2235)" gradientUnits="userSpaceOnUse">
		<stop  offset="0.3799" style="stop-color:#010101"/>
		<stop  offset="1" style="stop-color:#010101"/>
	</radialGradient>
	<path style="opacity:0.58;fill:url(#SVGID_00000147902038396511381520000017757359021847743650_);enable-background:new    ;" d="
		M27.6,10.9h-0.8l1.9,3.9l-1.7,3.6h0.8l1.9-3.6 M22.3,8.5l2.8,6.3l-2.8,6.3l0.1,0.7h0.1l3.8-7l-3.8-7L22.3,8.5L22.3,8.5z M2.6,10.9
		l-2.1,3.9l1.9,3.6h0.8l-1.7-3.6l1.9-3.9C3.4,10.9,2.6,10.9,2.6,10.9z M7.5,7.7l-3.8,7.1l3.8,7h0.1l0.1-0.7L5,14.8l2.7-6.3L7.5,7.7
		L7.5,7.7z M14.8,13c-0.9,0-1.7,0.8-1.7,1.9s0.8,1.9,1.7,1.9c0.9,0,1.7-0.8,1.7-1.9S15.8,13,14.8,13 M18.8,24l3.1-1.6l-4.3-5.1
		L18.8,24L18.8,24z M11.1,24l1.2-6.7L8,22.4L11.1,24L11.1,24z M18.8,5.4l-1.2,6.7L21.9,7L18.8,5.4L18.8,5.4z M8,7l4.3,5.1l-1.2-6.7
		L8,7L8,7z"/>
	<path class="st1" d="M27.1,11.2h-0.8l1.9,3.5l-1.7,3.2h0.8l1.9-3.2 M22.2,9l2.7,5.8l-2.7,5.8l0.1,0.7h0.1l3.6-6.4l-3.6-6.4L22.2,9
		L22.2,9z M2.9,11.2l-2,3.6L2.8,18h0.8l-1.7-3.2l1.9-3.6H2.9z M7.6,8.4L4,14.8l3.6,6.4h0.1l0.1-0.7l-2.4-5.9L8,8.9L7.6,8.4L7.6,8.4z
		 M14.8,13.2c-0.9,0-1.7,0.8-1.7,1.7c0,0.9,0.8,1.7,1.7,1.7c0.9,0,1.7-0.8,1.7-1.7S15.8,13.2,14.8,13.2 M18.8,23.1l2.9-1.5l-4.2-4.6
		L18.8,23.1L18.8,23.1z M11.2,23.1l1.2-6l-4.2,4.6L11.2,23.1L11.2,23.1z M18.7,6.2l-1.2,6l4.2-4.6L18.7,6.2L18.7,6.2z M8.3,7.7
		l4.2,4.6l-1.2-6L8.3,7.7L8.3,7.7z"/>
</g>
</svg>
