<?xml version="1.0" encoding="utf-8"?>
<!-- Generator: Adobe Illustrator 27.7.0, SVG Export Plug-In . SVG Version: 6.00 Build 0)  -->
<svg version="1.1" id="Layer_1" xmlns="http://www.w3.org/2000/svg" xmlns:xlink="http://www.w3.org/1999/xlink" x="0px" y="0px"
	 viewBox="0 0 30 30" style="enable-background:new 0 0 30 30;" xml:space="preserve">
<style type="text/css">
	.st0{fill:#010102;}
	.st1{fill:#7C49BC;}
	.st2{fill:#5C3C9F;}
	.st3{fill:#7142B3;}
	.st4{fill:#262059;}
	.st5{fill:#2A2564;}
	.st6{fill:#403281;}
	.st7{fill:#1D1B4D;}
	.st8{fill:#191744;}
	.st9{fill:#15143B;}
	.st10{fill:#493287;}
	.st11{fill:#5E3DA2;}
	.st12{fill:#5B3DA0;}
	.st13{fill:#0E0E2C;}
	.st14{fill:#7C47BC;}
	.st15{fill:#6540A6;}
	.st16{fill:#14143B;}
	.st17{fill:#6B41AF;}
	.st18{fill:#6540A9;}
	.st19{fill:#403282;}
	.st20{fill:#8950C5;}
	.st21{fill:#392C75;}
	.st22{fill:#633FA7;}
	.st23{fill:#8951C4;}
	.st24{fill:#5F3EA4;}
	.st25{fill:#2F296C;}
	.st26{fill:#3B307C;}
	.st27{fill:#6840AB;}
	.st28{fill:#7445B5;}
	.st29{fill:#683FAC;}
	.st30{fill:#583C9D;}
	.st31{fill:#F3ECF9;}
	.st32{fill:#221F56;}
	.st33{fill:#D5B8ED;}
	.st34{fill:#5F42A2;}
	.st35{fill:#352C74;}
	.st36{fill:#E2CEF2;}
	.st37{fill:#7344B5;}
	.st38{fill:#EEE4F7;}
	.st39{fill:#6C40AF;}
	.st40{fill:#48398B;}
	.st41{fill:#5D3DA2;}
	.st42{fill:#784AB6;}
	.st43{fill:#2B2666;}
	.st44{fill:#5C3EA0;}
	.st45{fill:#CBA8E8;}
	.st46{fill:#834CC1;}
	.st47{fill:#8854C2;}
	.st48{fill:#7F4ABD;}
	.st49{fill:#2C2667;}
	.st50{fill:#040309;}
	.st51{fill:#7648B5;}
	.st52{fill:#DDC5F0;}
	.st53{fill:#543C98;}
	.st54{fill:#020206;}
	.st55{fill:#443486;}
	.st56{fill:#F3EBFA;}
	.st57{fill:#F7F1FB;}
	.st58{fill:#D1B0EC;}
	.st59{fill:#F9F5FC;}
	.st60{fill:#A878D6;}
	.st61{fill:#5C3CA1;}
	.st62{fill:#8B51C7;}
	.st63{fill:#6740AB;}
	.st64{fill:#CCA9E8;}
	.st65{fill:#9057CA;}
	.st66{fill:#F7F2FB;}
	.st67{fill:#543B99;}
	.st68{fill:#F2EAF9;}
	.st69{fill:#573C9A;}
	.st70{fill:#48378C;}
	.st71{fill:#543A99;}
	.st72{fill:#7042B3;}
	.st73{fill:#AD7ADA;}
	.st74{fill:#AB78D9;}
	.st75{fill:#E6D6F5;}
	.st76{fill:#8353BE;}
	.st77{fill:#AA7BD7;}
	.st78{fill:#F9F6FC;}
	.st79{fill:#372C74;}
	.st80{fill:#F6F1FB;}
	.st81{fill:#744AB3;}
	.st82{fill:#49378E;}
	.st83{fill:#553B99;}
	.st84{fill:#513B95;}
	.st85{fill:#593C9E;}
	.st86{fill:#6544A7;}
	.st87{fill:#804DBE;}
	.st88{fill:#7E4BBC;}
	.st89{fill:#D0AFEB;}
	.st90{fill:#E6D6F4;}
	.st91{fill:#E4D7F1;}
	.st92{fill:#DEC7F1;}
	.st93{fill:#864EC3;}
	.st94{fill:#EADDF6;}
	.st95{fill:#9059C8;}
	.st96{fill:#F1E8F9;}
	.st97{fill:#4C3991;}
	.st98{fill:#8750C2;}
	.st99{fill:#E2D1F2;}
	.st100{fill:#D2B4EB;}
	.st101{fill:#583D9C;}
	.st102{fill:#E2CFF2;}
	.st103{fill:#D9C3EE;}
	.st104{fill:#F5EFFB;}
	.st105{fill:#04040A;}
	.st106{fill:#CBA7E9;}
	.st107{fill:#A974D8;}
	.st108{fill:#D9C4ED;}
	.st109{fill:#EEE3F8;}
	.st110{fill:#C59DE6;}
	.st111{fill:#834EC1;}
	.st112{fill:#D8BEEE;}
	.st113{fill:#B688DF;}
	.st114{fill:#A66FD7;}
	.st115{fill:#8E57C8;}
	.st116{fill:#AB7BD8;}
	.st117{fill:#EADEF5;}
	.st118{fill:#E8D7F5;}
	.st119{fill:#7044B1;}
	.st120{fill:#9A61D0;}
	.st121{fill:#834FC0;}
	.st122{fill:#BB90E1;}
	.st123{fill:#905AC9;}
	.st124{fill:#B07DDC;}
	.st125{fill:#E9DCF5;}
	.st126{fill:#C095E4;}
	.st127{fill:#AE7ADB;}
	.st128{fill:#965FCD;}
	.st129{fill:#6842AA;}
	.st130{fill:#E6D4F4;}
	.st131{fill:#6644A7;}
	.st132{fill:#894FC5;}
	.st133{fill:#A06AD3;}
	.st134{fill:#7D47BD;}
	.st135{fill:#4B388F;}
	.st136{fill:#7E4ABC;}
	.st137{fill:#CCA9E9;}
	.st138{fill:#945BCC;}
	.st139{fill:#8E56C8;}
	.st140{fill:#6E42B1;}
	.st141{fill:#49388E;}
	.st142{fill:#7B4BBA;}
	.st143{fill:#6042A2;}
	.st144{fill:#DCC6EF;}
	.st145{fill:#985DCF;}
	.st146{fill:#E9DAF5;}
	.st147{fill:#E9DBF5;}
	.st148{fill:#6C41AF;}
	.st149{fill:#4D3991;}
	.st150{fill:#CBB4E5;}
	.st151{fill:#513A94;}
	.st152{fill:#864DC3;}
	.st153{fill:#884EC5;}
	.st154{fill:#7045AF;}
	.st155{fill:#E5D4F3;}
	.st156{fill:#6842AB;}
	.st157{fill:#9F6AD2;}
	.st158{fill:#5B3CA0;}
	.st159{fill:#B788DF;}
</style>
<path class="st0" d="M16.9,0.2c0.3,0.2,0.6,0.4,0.8,0.7c0.2,0.1,0.3,0.3,0.5,0.4c0,0,0.1,0.1,0.1,0.1c0.2,0.2,0.2,0.2,0.4,0.3
	c0.2-0.1,0.3-0.1,0.5-0.2c0.4-0.2,0.8-0.3,1.3-0.4c0.1,0,0.1,0,0.2-0.1c0.4-0.1,0.8-0.2,1.2,0c0,0,0.1,0.1,0.2,0.1
	c0.3,0.2,0.5,0.3,0.8,0.4c0.5,0.2,0.9,0.4,1.4,0.7c0.1,0.1,0.3,0.1,0.4,0.2c0.1,0,0.2,0.1,0.2,0.1c0.1,0,0.1,0.1,0.2,0.1
	C25.5,3,25.7,3.4,25.8,4c0.1,0.4,0.1,0.9,0.1,1.3c0,0.4,0.1,0.7,0.1,1.1c0,0.6-0.3,1.2-0.7,1.8c0,0.1-0.1,0.1-0.1,0.2
	c-0.2,0.3-0.4,0.6-0.5,0.9c0,0.1-0.1,0.1-0.1,0.2c-0.1,0.2-0.1,0.2-0.2,0.3c-0.1,0.2-0.2,0.3-0.3,0.5c0,0.3,0.2,0.5,0.3,0.8
	c0,0.1,0.1,0.1,0.1,0.2c0.1,0.2,0.2,0.4,0.3,0.6c0.1,0.2,0.2,0.3,0.3,0.5c0.1,0.1,0.1,0.2,0.2,0.3c0.4,0.7,0.5,1.5,0.3,2.3
	c-0.1,0.2-0.2,0.4-0.3,0.5c-0.1,0.2-0.2,0.4-0.3,0.6c-0.1,0.3-0.3,0.6-0.4,0.9c-0.3,0.5-0.5,1-0.7,1.5c-0.1,0.2-0.2,0.5-0.3,0.7
	c-0.1,0.2-0.2,0.4-0.3,0.6c-0.1,0.3-0.3,0.6-0.5,1c-0.2,0.4-0.4,0.8-0.5,1.2c-0.1,0.3-0.3,0.6-0.4,0.9c0,0.1,0,0.1-0.1,0.2
	c-0.1,0.3-0.3,0.6-0.4,0.9c-0.4,0.7-0.4,0.7-0.7,1.4c-0.3,0.7-0.7,1.1-1.2,1.5c-0.1,0.1-0.2,0.2-0.4,0.3c-0.1,0.1-0.1,0.1-0.2,0.2
	c-0.2,0.2-0.5,0.4-0.7,0.6c0,0-0.1,0.1-0.1,0.1c-0.2,0.2-0.3,0.3-0.5,0.5c-0.4,0.4-0.9,0.5-1.4,0.7c-0.1,0-0.3,0.1-0.4,0.1
	c-1.5,0.5-1.5,0.5-2.2,0.1c-0.4-0.4-0.5-0.9-0.7-1.4c0-0.1-0.1-0.2-0.1-0.3c-0.2-0.6-0.3-1.1-0.4-1.7c0-0.1,0-0.1,0-0.2
	c-0.1-0.6-0.2-1.2,0.1-1.7c0-0.1,0.1-0.1,0.1-0.2c0-0.1,0.1-0.1,0.1-0.2c0.1-0.1,0.1-0.3,0.2-0.4c-0.1,0-0.1,0-0.2,0
	c-0.2,0-0.5,0.1-0.7,0.1c-0.1,0-0.2,0-0.3,0c-1.2,0.2-1.2,0.2-1.7-0.1c0,0-0.1-0.1-0.1-0.1c0,0-0.1-0.1-0.1-0.1
	c-0.1-0.1-0.2-0.2-0.3-0.3C9.4,23,9.4,23,9.3,23c-0.4,0.2-0.8,0.1-1.2,0.1c-0.1,0-0.2,0-0.3,0c-0.5,0-0.9-0.1-1.4-0.5
	c-0.4-0.6-0.8-1.6-0.8-2.3C5.7,20,6,19.6,6.2,19.3c-0.1,0-0.2,0-0.3,0c-0.5-0.1-1.1-0.5-1.4-0.9c-0.2-0.6-0.3-1.2-0.4-1.8
	c0-0.3-0.1-0.5-0.1-0.8c-0.1-0.7,0.2-1.3,0.6-2c0.1-0.2,0.2-0.5,0.3-0.7c0.3-0.7,0.6-1.3,0.9-2c0.2-0.3,0.3-0.5,0.4-0.8
	C6.3,10,6.5,9.7,6.6,9.4C6.8,9,7,8.6,7.2,8.2C7.3,8,7.5,7.7,7.6,7.5C7.7,7.3,7.8,7.2,7.8,7C8.3,6,8.7,5.2,9.4,4.5
	c0.1-0.1,0.2-0.2,0.3-0.3c0,0,0.1-0.1,0.1-0.1c0.1-0.1,0.2-0.2,0.3-0.4c0.4-0.5,0.7-0.8,1.3-0.9c0.4,0,0.8,0.1,1.2,0.3
	C13,3.3,13,3.3,13.4,3.2c0.1-0.1,0.2-0.3,0.3-0.4c0.1-0.1,0.1-0.2,0.2-0.3c0,0,0.1-0.1,0.1-0.1C15.8,0.1,15.8,0.1,16.9,0.2z"/>
<path class="st1" d="M21.3,2.6c0.1,0.1,0.1,0.1,0.3,0.2C21.8,2.9,22,3,22.2,3.1c0.4,0.2,0.9,0.4,1.3,0.6c0.1,0,0.1,0.1,0.2,0.1
	C24.2,4,24.2,4,24.3,4.2c0,0.2,0,0.3,0,0.5c0,0.1,0,0.2,0,0.3c0,0.1,0,0.2,0,0.3c0,0.1,0,0.2,0,0.3c0,0.1,0,0.1,0,0.2
	c0,0.2,0,0.2,0.1,0.4c0,0.3-0.1,0.5-0.2,0.7c0,0,0,0.1-0.1,0.1c-0.2,0.3-0.3,0.6-0.5,0.8c-0.2,0.3-0.3,0.6-0.5,0.9
	c-0.1,0.3-0.3,0.5-0.5,0.7c-0.1,0.2-0.2,0.3-0.2,0.5c-0.1,0.3-0.3,0.5-0.5,0.7c0-0.1-0.1-0.3-0.1-0.4c-0.3,0.1-0.7,0.2-1,0.2
	c-0.1,0-0.2,0.1-0.3,0.1c-0.8,0.2-1.2,0.4-1.8,1c0,0-0.1,0-0.1,0c0,0,0,0.1,0,0.1c0,0-0.1,0.1-0.1,0.1c-0.3,0.3-0.7,0.6-1,0.9
	c0,0-0.1,0.1-0.1,0.1c-0.2,0.2-0.4,0.4-0.6,0.6c-0.1,0.2-0.2,0.3-0.4,0.4c-0.2,0.2-0.4,0.4-0.6,0.6c-0.1,0.1-0.2,0.2-0.3,0.3
	c-0.5,0.4-0.7,1-1,1.6c-0.1,0.1-0.1,0.1-0.2,0.3c0,0.1,0,0.3,0,0.4c0,0.1,0,0.2-0.1,0.2c0.1,0,0.1,0,0.2,0c1.5-0.1,1.5-0.1,1.8,0.1
	c0,0.1,0.1,0.1,0.1,0.2c0.1,0.1,0.1,0.1,0.1,0.1c0.5,0.5,0.7,1.2,0.6,1.9c0,0.2-0.1,0.5-0.1,0.7C17,20.9,17,21.1,17,21.4
	c0.2-0.2,0.2-0.2,0.2-0.4c0-0.2,0.1-0.3,0.2-0.5c0.1-0.2,0.2-0.5,0.2-0.7c0.1-0.3,0.2-0.6,0.4-0.9c0.1-0.2,0.2-0.3,0.2-0.5
	c0.2-0.5,0.4-0.9,0.7-1.3c0.1-0.1,0.2-0.3,0.2-0.4c0-0.1,0.1-0.2,0.1-0.3c0,0,0-0.1,0.1-0.1c0.3-0.6,0.3-0.6,0.6-0.7
	c0-0.1,0-0.1-0.1-0.2c-0.1-0.3-0.2-0.5-0.2-0.8c0-0.1-0.1-0.2-0.1-0.3c-0.4-1.1-0.4-1.1-0.2-1.7c0.2,0.1,0.2,0.1,0.2,0.2
	c0,0.1,0,0.1,0,0.2c0,0.1,0,0.1,0.1,0.2c0,0.1,0,0.1,0.1,0.2c0,0.1,0,0.1,0.1,0.2c0.1,0.5,0.1,0.5,0.1,0.8c0.1,0.2,0.1,0.4,0.2,0.6
	c0,0.1,0,0.1,0,0.2c0,0.1,0.1,0.2,0.1,0.4c0.7,0.1,0.7,0.1,1.4-0.1c0.1,0,0.1,0,0.1-0.1c0.2-0.1,0.2-0.2,0.3-0.3
	c0.1-0.3,0-0.6,0-0.9c0-0.1,0-0.3,0-0.4c0-0.1,0-0.1,0-0.2c0,0,0-0.1,0-0.1c0.3,0.2,0.3,0.2,0.3,0.3c0.2,0,0.4,0,0.6,0
	c0-0.1-0.1-0.2-0.1-0.3c-0.3-0.7-0.6-1.4-0.8-2.1c0.2-0.2,0.4-0.4,0.6-0.5c0,0.1,0,0.1,0.1,0.2c0.1,0.2,0.2,0.4,0.3,0.6
	c0,0.1,0.1,0.2,0.1,0.3c0.2,0.5,0.5,1,0.8,1.5c0.2,0.3,0.3,0.6,0.3,0.9c-0.1,0.3-0.2,0.6-0.4,0.8c-0.1,0.2-0.2,0.3-0.3,0.5
	c-0.1,0.3-0.3,0.6-0.4,0.8c-0.3,0.5-0.5,1-0.7,1.5c-0.2,0.4-0.4,0.9-0.6,1.3c0,0.1-0.1,0.1-0.1,0.2c-0.1,0.3-0.3,0.6-0.5,0.9
	c-0.2,0.4-0.4,0.8-0.6,1.3c-0.3,0.7-0.6,1.3-0.9,2c0,0-0.1,0-0.1,0c0,0.1,0,0.2-0.1,0.3c0,0-0.1,0-0.1,0c0,0.1,0,0.1,0.1,0.2
	c0,0-0.1,0-0.1,0c-0.1-0.1-0.1-0.1-0.2-0.2c0-0.1,0-0.1-0.1-0.1c-0.1-0.1-0.1-0.1-0.2-0.4c-0.1,0-0.2,0-0.3,0c0-0.1,0-0.1,0-0.2
	c-0.3,0-0.5,0.1-0.8,0.2c0.1,0.6,0.1,0.6,0.2,1.1c0,0,0.1,0,0.1,0c0-0.1,0-0.1,0-0.2c0.1-0.1,0.1-0.1,0.3-0.2
	c-0.1,0.5-0.2,0.9-0.6,1.3c-0.1-0.1-0.1-0.2-0.1-0.4c0-0.9,0-0.9-0.4-1.7c-0.1-0.2-0.1-0.3-0.2-0.5c0-0.1,0-0.1-0.2-0.2
	c0-0.1-0.1-0.2-0.1-0.3c-0.5,0.8-0.9,1.6-1.2,2.5c-0.1,0.2-0.1,0.3-0.2,0.5c0,0-0.1,0-0.1,0c-0.1-0.3,0-0.5,0.2-0.8
	c0-0.1,0.1-0.2,0.1-0.3c0-0.1,0-0.1,0.1-0.1c0.1-0.3,0.2-0.5,0.4-0.8c0.1-0.2,0.1-0.2,0.2-0.5c0.4-0.7,0.3-1.3,0.3-2.1
	c0-0.3,0-0.5,0-0.8c0-0.8-0.1-1.4-0.5-2c-0.2-0.1-0.3-0.1-0.5-0.1c-0.2,0-0.2,0-0.3,0.1C14.9,18.1,14.5,18,14,18c0,0,0,0.1,0,0.1
	c-0.1,0.1-0.1,0.1-0.3,0.3c-0.1,0.1-0.1,0.1-0.1,0.2c-0.1,0.1-0.2,0.2-0.3,0.3c-0.1,0.1-0.2,0.3-0.3,0.4c0,0.1-0.1,0.1-0.1,0.2
	c0,0.1,0,0.1-0.1,0.2c-0.2,0.4-0.4,0.8-0.6,1.1c0.1-0.1,0.1-0.1,0.3-0.1c1.9-0.8,1.9-0.8,2.4-0.7c0.2,0.2,0.3,0.2,0.3,0.5
	c-0.1,0.2-0.1,0.3-0.3,0.5c-0.3,0.1-0.6,0.2-0.9,0.3c-0.1,0-0.2,0.1-0.3,0.1c-0.2,0.1-0.5,0.1-0.7,0.2c-0.3,0.1-0.5,0.1-0.8,0.2
	c-0.5,0.1-1,0.3-1.5,0.4c0,0,0,0-0.1-0.1c0,0-0.1-0.1-0.1-0.1c0,0-0.1-0.1-0.1-0.1c-0.1-0.2-0.3-0.3-0.5-0.5
	c-0.1-0.1-0.1-0.1-0.1-0.3c0.1-0.2,0.2-0.5,0.4-0.7c0.3-0.4,0.5-0.8,0.6-1.3c0.1-0.2,0.2-0.4,0.3-0.6c0.2-0.4,0.4-0.8,0.5-1.2
	c0.3-0.7,0.6-1.3,0.9-2c0.2-0.3,0.3-0.6,0.4-0.9c0-0.1,0.1-0.1,0.1-0.2c0.1-0.2,0.1-0.3,0.1-0.5c0.1-0.3,0.2-0.6,0.4-1
	c0-0.1,0.1-0.1,0.1-0.2c0.1-0.3,0.3-0.5,0.4-0.8c0.3-0.4,0.5-0.8,0.7-1.3c0,0,0-0.1,0.1-0.1c0.3-0.6,0.6-1.1,0.8-1.7
	c0.1-0.2,0.2-0.4,0.3-0.7c0.2-0.4,0.3-0.7,0.4-1.1c0.1-0.2,0.2-0.4,0.3-0.6C17,6.2,17,6.1,17.1,6c0.2-0.3,0.3-0.6,0.5-0.8
	c0.1-0.2,0.2-0.4,0.3-0.5c0.7-1.1,0.7-1.1,1.2-1.3c0.1,0,0.2-0.1,0.2-0.1c0.1,0,0.2-0.1,0.2-0.1c0.1,0,0.2-0.1,0.2-0.1
	C21,2.5,21,2.5,21.3,2.6z"/>
<path class="st2" d="M22.7,10.7c0,0.1,0,0.1,0.1,0.2c0.1,0.2,0.2,0.4,0.3,0.6c0,0.1,0.1,0.2,0.1,0.3c0.2,0.5,0.5,1,0.8,1.5
	c0.2,0.3,0.3,0.6,0.3,0.9c-0.1,0.3-0.2,0.6-0.4,0.8c-0.1,0.2-0.2,0.3-0.3,0.5c-0.1,0.3-0.3,0.6-0.4,0.8c-0.3,0.5-0.5,1-0.7,1.5
	c-0.2,0.4-0.4,0.9-0.6,1.3c0,0.1-0.1,0.1-0.1,0.2c-0.1,0.3-0.3,0.6-0.5,0.9c-0.2,0.4-0.4,0.8-0.6,1.3c-0.3,0.7-0.6,1.3-0.9,2
	c0,0-0.1,0-0.1,0c0,0.1,0,0.2-0.1,0.3c0,0-0.1,0-0.1,0c0,0.1,0,0.1,0.1,0.2c0,0-0.1,0-0.1,0c-0.1-0.1-0.1-0.1-0.2-0.2
	c0,0-0.1-0.1-0.1-0.1c-0.1-0.1-0.1-0.1-0.2-0.4c-0.1,0-0.2,0-0.3,0c0-0.1,0-0.1,0-0.2c-0.3,0-0.5,0.1-0.8,0.2
	c0.1,0.4,0.1,0.7,0.2,1.1c0,0,0.1,0,0.1,0c0-0.1,0-0.1,0-0.2c0.1-0.1,0.1-0.1,0.3-0.2c-0.1,0.5-0.2,0.9-0.6,1.3
	c-0.1-0.1-0.1-0.2-0.1-0.4c0-0.9,0-0.9-0.4-1.7c-0.1-0.2-0.1-0.3-0.2-0.5c0-0.1,0-0.1-0.2-0.2c0-0.1-0.1-0.2-0.1-0.3
	c-0.1,0-0.1,0-0.2,0c0.1,0,0.1-0.1,0.2-0.1c0-0.1,0-0.2,0.1-0.3c0.1-0.2,0.1-0.3,0.2-0.5c0-0.1,0.1-0.2,0.1-0.2c0-0.1,0-0.1,0.1-0.2
	c-0.1,0.1-0.1,0.1-0.2,0.1c0-0.2,0.1-0.4,0.2-0.6c0.1-0.2,0.2-0.5,0.2-0.7c0.1-0.3,0.2-0.6,0.4-0.9c0.1-0.2,0.2-0.3,0.2-0.5
	c0.2-0.5,0.4-0.9,0.7-1.3c0.1-0.1,0.2-0.3,0.2-0.4c0-0.1,0.1-0.2,0.1-0.3c0,0,0-0.1,0.1-0.1c0.3-0.6,0.3-0.6,0.6-0.7
	c0-0.1,0-0.1-0.1-0.2c-0.1-0.3-0.2-0.5-0.2-0.8c0-0.1-0.1-0.2-0.1-0.3c-0.4-1.1-0.4-1.1-0.2-1.7c0.2,0.1,0.2,0.1,0.2,0.2
	c0,0.1,0,0.1,0,0.2c0,0.1,0,0.1,0.1,0.2c0,0.1,0,0.1,0.1,0.2c0,0.1,0,0.1,0.1,0.2c0.1,0.5,0.1,0.5,0.1,0.8c0.1,0.2,0.1,0.4,0.2,0.6
	c0,0.1,0,0.1,0,0.2c0,0.1,0.1,0.2,0.1,0.4c0.7,0.1,0.7,0.1,1.4-0.1c0,0,0.1,0,0.1-0.1c0.2-0.1,0.2-0.2,0.3-0.3c0.1-0.3,0-0.6,0-0.9
	c0-0.1,0-0.3,0-0.4c0-0.1,0-0.1,0-0.2c0-0.1,0-0.1,0-0.1c0.3,0.2,0.3,0.2,0.3,0.3c0.2,0,0.4,0,0.6,0c0-0.1-0.1-0.2-0.1-0.3
	c-0.3-0.7-0.6-1.4-0.8-2.1c0.1-0.1,0.2-0.2,0.2-0.3c0,0,0.1-0.1,0.1-0.1C22.7,10.7,22.7,10.7,22.7,10.7z"/>
<path class="st3" d="M20.8,3.3c0.1,0,0.1,0,0.2-0.1c0,0,0.1,0,0.1,0c0.2,0.6,0.2,1.2,0,1.8c0.1-0.1,0.1-0.2,0.2-0.3
	C21.4,5,21.4,5,21.4,5.1c-0.1,0.1-0.3,0.1-0.5,0.2c0,0,0.1,0,0.1,0c0.5-0.1,0.9,0,1.4,0.1c0.3,0.1,0.3,0.1,0.6,0
	c-0.2,0-0.4-0.1-0.5-0.1c-0.1,0-0.1,0-0.2,0c-0.3-0.1-0.3-0.1-0.6-0.1c-0.1,0-0.1,0-0.3-0.2c-0.1-0.2-0.1-0.3-0.1-0.6
	c0-0.1,0-0.2,0-0.3c0-0.1,0-0.1,0-0.2c0-0.1,0-0.1,0-0.2c0-0.1,0-0.1,0-0.2c0-0.1,0-0.3,0-0.4c0,0,0.1,0,0.1,0
	c0.1,0.1,0.2,0.2,0.3,0.2c0.4,0.3,0.8,0.5,1.3,0.8c0.1,0,0.1,0,0.2,0.1c0,0,0.1,0,0.1,0.1c0.1,0.1,0.1,0.1,0.3,0.2
	c0,0.2,0,0.2,0,0.4c0,0.1,0,0.1,0,0.2c0,0,0,0.1,0,0.2c-0.1,0-0.2,0.1-0.3,0.1c0,0,0,0.1,0,0.1c0.1,0,0.1,0,0.2-0.1
	c0.2,0.7-0.3,1.4-0.6,1.9c0,0.1-0.1,0.1-0.1,0.2c-0.1,0.1-0.2,0.3-0.2,0.4c-0.1,0.1-0.2,0.3-0.2,0.4c-0.1,0.2-0.2,0.3-0.3,0.4
	c-0.2,0.4-0.4,0.8-0.3,1.2c-0.1,0-0.2,0.1-0.3,0.1c-0.1,0-0.1,0-0.2,0.1c-0.2,0-0.2,0-0.3,0c-0.3,0-0.5,0.1-0.8,0.2
	c-0.1,0-0.1,0-0.2,0c-0.2,0.1-0.5,0.2-0.7,0.3c0,0-0.1-0.1-0.1-0.1c-0.2-0.1-0.2-0.1-0.3-0.2c-0.2-0.1-0.3-0.2-0.4-0.3
	c0,0-0.1,0-0.1,0c-0.2-0.1-0.2-0.3-0.2-0.5c0,0,0-0.1,0-0.2c0-0.1,0-0.1,0-0.2c-0.1-0.4-0.1-0.7,0-1C18.3,8,18.6,8,19,7.9
	c0.3-0.1,0.6-0.2,0.8-0.4c0.1-0.1,0.1-0.1,0.1-0.3c0.1-0.4,0.2-0.7,0.4-1c-0.2,0.2-0.3,0.3-0.3,0.6c-0.2,0.7-0.2,0.7-0.5,0.9
	c-0.2,0.1-0.4,0.2-0.6,0.2c-0.1,0-0.1,0-0.2,0.1c-0.2,0-0.2,0-0.4,0c-0.2-0.1-0.2-0.2-0.3-0.4c0-0.1,0-0.1,0-0.2
	c0-0.1,0-0.1,0.1-0.3c0-0.1,0-0.3-0.1-0.4c-0.1-0.8,0.4-1.5,0.8-2.1c0.2-0.2,0.4-0.3,0.7-0.5c0.1,0,0.1,0,0.1-0.1
	C19.9,3.7,20.3,3.5,20.8,3.3z"/>
<path class="st4" d="M20.6,10.6c0.1,0,0.2-0.1,0.3-0.1c0.8-0.2,0.8-0.2,1-0.2c0.1,0.2,0.1,0.2,0.1,0.4c-0.1,0.2-0.1,0.2-0.3,0.4
	c-0.1,0.1-0.1,0.1-0.2,0.2c0,0.1-0.1,0.1-0.1,0.2c0,0,0,0,0,0.1c-0.1,0.1-0.2,0.1-0.3,0.2c-0.2,0.1-0.3,0.2-0.5,0.3
	c-0.2-0.1-0.2-0.1-0.5-0.1c-0.2-0.1-0.4-0.1-0.7-0.1c0,0.1,0,0.1,0,0.2c0,0.3-0.1,0.3-0.3,0.5c-0.3,0.4-0.3,0.9-0.4,1.3
	c-0.1,0.4-0.3,0.6-0.5,0.9c-0.2,0.3-0.3,0.6-0.4,1c0.4-0.5,0.7-1.1,0.9-1.7c0.1-0.2,0.2-0.4,0.2-0.5c0-0.1,0-0.1,0.1-0.2
	c0,0,0-0.1,0.1-0.1c0,0,0,0,0.1,0c0.1,0.3,0.2,0.5,0.3,0.8c0,0.1,0,0.1,0.1,0.2c0.1,0.2,0.1,0.4,0.2,0.6c0,0.1,0,0.1,0.1,0.2
	c0,0.2,0.1,0.3,0.1,0.5c-0.1,0.2-0.2,0.3-0.3,0.4c-0.2,0.2-0.3,0.5-0.5,0.7c0,0.1,0,0.1-0.1,0.2C19,17,19,17.1,18.9,17.2
	c-0.1,0.2-0.2,0.3-0.3,0.5c-0.4,0.8-0.8,1.7-1.1,2.6c-0.1,0.3-0.2,0.5-0.3,0.7c0,0.1,0,0.1-0.1,0.2c0,0.1,0,0.1,0,0.2
	c0,0-0.1,0-0.1,0c-0.1-0.4,0-0.8,0.1-1.2c0.1-0.6,0-1.3-0.4-1.8c-0.1-0.1-0.2-0.3-0.4-0.4c0,0-0.1-0.1-0.1-0.1
	c-0.4-0.4-1.4-0.2-2-0.1c-0.1-0.2-0.1-0.2,0-0.4c0-0.1,0-0.1,0-0.2c0-0.3,0.1-0.5,0.3-0.7c0.1-0.2,0.1-0.2,0.2-0.4
	c0.3-0.7,0.7-1.1,1.2-1.6c0.2-0.2,0.3-0.3,0.5-0.5c0.1-0.1,0.1-0.1,0.2-0.2c0.1-0.2,0.3-0.3,0.4-0.5c0.4-0.5,0.9-1,1.5-1.3
	c0,0,0-0.1,0-0.1C19.2,11,19.7,10.8,20.6,10.6z"/>
<path class="st5" d="M17,22.3c0.2,0.3,0.3,0.6,0.5,0.9c0.1,0.1,0.1,0.1,0.2,0.3c0.2,0.5,0.3,1,0.3,1.5c0,0.2,0,0.2,0.1,0.4
	c0.2-0.4,0.4-0.7,0.5-1.1c-0.2,0.2-0.2,0.2-0.3,0.4c0,0-0.1,0-0.1,0c-0.1-0.4-0.2-0.8-0.3-1.2c0.6-0.2,0.6-0.2,0.9-0.1
	c0,0,0,0.1,0,0.1c0.1,0,0.1,0,0.2,0c0.1,0.1,0.1,0.1,0.2,0.3c0,0.1,0.1,0.1,0.1,0.2c0,0,0.1,0.1,0.1,0.2c0,0.1,0.1,0.1,0.1,0.2
	c0,0.2,0,0.2-0.1,0.4c0,0.1,0,0.1-0.1,0.2c-0.3,0.5-0.7,0.9-1.2,1.3c-0.4,0.3-0.8,0.7-1.1,1.1c-0.7,0.7-1.6,0.9-2.6,1.1
	c-0.2-0.7-0.4-1.4-0.6-2.2c0-0.1,0-0.1,0-0.2c-0.1-0.5-0.1-0.8,0.1-1.3c0.1-0.1,0.1-0.1,0.2-0.2c0.3,0.2,0.3,0.3,0.4,0.6
	c0,0.1,0,0.2,0.1,0.2c0,0.1,0,0.2,0.1,0.2c0,0.1,0,0.2,0.1,0.2c0.1,0.2,0.1,0.4,0.2,0.6c0.1-0.3,0.2-0.7,0.4-1c0,0,0.1,0.1,0.1,0.1
	c0.2-0.3,0.3-0.6,0.4-0.9c0.2-0.6,0.5-1.1,0.8-1.7c0,0,0-0.1,0.1-0.1C16.9,22.4,16.9,22.4,17,22.3z"/>
<path class="st6" d="M13.2,15.8c0.2,0.6,0.3,1.1,0.3,1.7c0,0.1-0.1,0.1-0.1,0.2c0,0.1,0,0.3,0,0.4c0,0.1,0,0.1,0,0.2
	c0,0.1,0,0.1,0,0.2c0.1,0,0.1,0,0.2-0.2c0.2-0.2,0.2-0.2,0.5-0.3c0,0,0,0.1,0,0.1c-0.1,0.1-0.1,0.1-0.3,0.3c0,0.1-0.1,0.1-0.1,0.2
	c-0.1,0.1-0.2,0.2-0.3,0.3c-0.1,0.1-0.2,0.3-0.3,0.4c0,0.1-0.1,0.1-0.1,0.2c0,0.1-0.1,0.1-0.1,0.2c-0.2,0.4-0.4,0.8-0.6,1.1
	c0.1,0,0.2-0.1,0.3-0.1c1.9-0.8,1.9-0.8,2.4-0.7c0.2,0.2,0.3,0.2,0.3,0.5c-0.1,0.2-0.1,0.3-0.3,0.5c-0.3,0.1-0.6,0.2-0.9,0.3
	c-0.1,0-0.2,0.1-0.3,0.1c-0.2,0.1-0.5,0.1-0.7,0.2c-0.3,0.1-0.5,0.1-0.8,0.2c-0.5,0.1-1,0.3-1.5,0.4c0,0,0,0-0.1-0.1
	c0,0-0.1-0.1-0.1-0.1c0,0-0.1-0.1-0.1-0.1c-0.1-0.2-0.3-0.3-0.5-0.5c-0.1-0.1-0.1-0.1-0.1-0.3c0.1-0.2,0.2-0.5,0.4-0.7
	c0.3-0.4,0.5-0.8,0.6-1.3c0.1-0.2,0.2-0.4,0.3-0.7c0.3-0.5,0.4-0.9,0.6-1.4c0.1,0,0.2,0,0.3,0c0,0,0,0.1,0,0.1c0.2,0,0.2,0,0.4,0
	c0-0.1,0-0.1,0.1-0.2c0-0.1,0.1-0.2,0.1-0.2c0-0.1,0.1-0.2,0.1-0.2C13.1,15.9,13.1,15.9,13.2,15.8z"/>
<path class="st7" d="M12.3,7.8c0.1,0,0.1,0,0.2,0c0.3,0,0.5,0,0.8-0.1c0,0.1-0.1,0.1-0.1,0.2c-0.7,1-1.4,2.2-1.4,3.4
	c0.1-0.2,0.3-0.4,0.4-0.6c0.1,0.1,0.1,0.1,0.1,0.4c0,0.1,0,0.2,0,0.3c0,0.1,0,0.2,0,0.3c0,0.1,0,0.1,0,0.2c0,0.1,0,0.2,0,0.4
	c-0.1,0-0.1,0.1-0.2,0.1c-0.1,0-0.1,0.1-0.2,0.1c-0.1,0-0.1,0.1-0.2,0.1c-0.2,0.1-0.3,0.2-0.4,0.2c0,0,0-0.1,0.1-0.1
	c0-0.1,0-0.1,0.1-0.2c0-0.1,0-0.1,0.1-0.2c0-0.1,0.1-0.3,0.1-0.4c-0.4,0.2-0.7,0.4-1.1,0.6c-0.2,0.1-0.4,0.3-0.7,0.4
	c-0.2,0.1-0.3,0.2-0.5,0.4c-0.1,0.1-0.3,0.2-0.4,0.3c-0.1,0-0.1,0.1-0.2,0.1c-0.2,0.1-0.3,0.1-0.5,0.1c0.1-0.1,0.1-0.1,0.1-0.1
	c0,0,0-0.1,0-0.1c-0.1,0-0.3,0.1-0.4,0.1c0.2-0.5,0.4-1,0.7-1.5c0.3-0.5,0.5-1,0.7-1.6c0.1-0.2,0.3-0.4,0.5-0.5
	c0.3-0.3,0.6-0.6,0.8-0.9C11.8,7.8,11.8,7.8,12.3,7.8z"/>
<path class="st8" d="M11.6,11.8c-0.1,0.7-0.4,1.2-0.8,1.8c-0.1,0.1-0.1,0.1-0.1,0.2c0,0.1-0.1,0.2-0.1,0.2c0,0.1-0.1,0.1-0.1,0.2
	c-0.1,0.2-0.1,0.2-0.4,0.2c-0.1,0.2-0.1,0.2-0.2,0.4c0,0.1-0.1,0.1-0.1,0.2c0,0.1-0.1,0.1-0.1,0.2c0.1,0,0.1,0,0.2,0
	c0,0.3-0.1,0.5-0.3,0.7c0,0.1-0.1,0.1-0.1,0.2c0,0-0.1,0.1-0.1,0.1C9,16.4,9,16.4,8.9,16.6c-0.1,0.2-0.3,0.4-0.5,0.6
	c0,0,0,0.1,0,0.1c-0.2,0.1-0.3,0.1-0.5,0.2c0,0-0.1,0-0.1,0.1c-0.1,0-0.2,0.1-0.3,0.1c-0.2,0.1-0.3,0.1-0.5,0.2
	c-0.1,0-0.2,0.1-0.3,0.1c0,0-0.1,0-0.1,0.1c-0.3,0.1-0.3,0.1-0.5,0c-0.1-0.1-0.1-0.1-0.1-0.2c-0.1,0-0.2,0-0.3,0
	c0.1-0.1,0.1-0.1,0.2-0.1c0.1-0.1,0.1-0.1,0.1-0.3c0.1-0.2,0.1-0.3,0.3-0.5c0.1-0.2,0.2-0.4,0.3-0.6c0.1-0.3,0.2-0.6,0.4-0.9
	c0.1-0.2,0.2-0.4,0.3-0.7c0.1-0.3,0.2-0.4,0.4-0.5c0.1,0,0.1-0.1,0.2-0.1c0.1,0,0.1,0,0.2-0.1c0.9-0.4,0.9-0.4,1.6-1.1
	c0.1-0.1,0.3-0.2,0.4-0.2c0.4-0.2,0.8-0.4,1.1-0.7C11.3,11.9,11.3,11.9,11.6,11.8z"/>
<path class="st9" d="M14.6,8.2c0.2,0,0.5,0,0.7-0.1c-0.2,0.4-0.3,0.9-0.5,1.3c0,0.1-0.1,0.1-0.1,0.2c-0.3,0.5-0.6,1.1-0.8,1.6
	c0,0,0,0.1-0.1,0.1c-0.2,0.4-0.4,0.8-0.7,1.2c-0.1,0.2-0.2,0.4-0.3,0.6c-0.2,0.4-0.4,0.8-0.5,1.2c-0.1,0.2-0.1,0.2-0.2,0.5
	c-0.1,0.2-0.2,0.5-0.3,0.7c-0.2,0.4-0.3,0.7-0.5,1.1c-0.4,0.9-0.7,1.8-1.2,2.6c-0.1,0.2-0.2,0.4-0.3,0.6c-0.1,0.2-0.2,0.4-0.3,0.6
	c-0.3,0.5-0.6,0.9-0.8,1.4c-0.1,0-0.2,0-0.3,0c-0.1,0-0.1,0-0.2,0c-0.3,0-0.5,0-0.8,0c-0.1-0.2-0.2-0.4-0.3-0.6
	c0-0.1-0.1-0.1-0.1-0.2c-0.2-0.4-0.2-0.4-0.1-0.6c0.1-0.1,0.1-0.1,0.2-0.4c0.1,0,0.1,0,0.3,0.1c0.2,0.3,0.4,0.6,0.4,1
	c-0.1,0.1-0.1,0.1-0.2,0.3c0,0-0.1,0-0.1,0c0,0,0,0.1,0,0.1c0-0.1,0.1-0.1,0.1-0.2C8,21,8.2,20.6,8.5,20.3C8.7,20,8.9,19.7,9,19.4
	c0.1-0.2,0.1-0.3,0.2-0.4c0.2-0.3,0.3-0.6,0.4-0.9c0.2-0.4,0.3-0.8,0.6-1.1c0.2-0.3,0.3-0.6,0.4-0.8c0.1-0.1,0.1-0.3,0.2-0.4
	c0.2-0.3,0.3-0.7,0.4-1c0,0,0-0.1,0.1-0.1c0,0,0.1,0,0.1,0c0,0,0-0.1,0-0.1c0-0.2,0.1-0.3,0.2-0.5c0-0.1,0.1-0.1,0.1-0.2
	c0-0.1,0.1-0.1,0.1-0.2c0-0.1,0.1-0.1,0.1-0.2c0.1-0.1,0.2-0.3,0.2-0.4c0.1,0,0.1,0,0.2,0c0,0,0,0.1,0,0.1c0,0,0.1,0,0.1,0
	c0-0.1,0-0.1-0.1-0.2c-0.1-0.3,0-0.4,0.1-0.6c0.1-0.1,0.2-0.3,0.2-0.4c0.1-0.1,0.2-0.3,0.2-0.4c0-0.1,0.1-0.1,0.1-0.2
	c0.1-0.2,0.2-0.4,0.3-0.7c0.2-0.5,0.5-0.9,0.7-1.4C14.3,8.9,14.5,8.6,14.6,8.2z"/>
<path class="st10" d="M11.9,12.7c0,0.2-0.1,0.4-0.2,0.6c-0.1,0.2-0.1,0.2-0.1,0.4c0.1,0,0.1,0,0.2,0c0,0,0,0.1-0.1,0.1
	c-0.3,0.6-0.6,1.1-0.8,1.7c-0.2,0.4-0.3,0.7-0.5,1.1c0,0.1-0.1,0.1-0.1,0.2c-0.1,0.2-0.1,0.2-0.2,0.4c-0.2,0.4-0.4,0.7-0.6,1.2
	c-0.2,0.4-0.3,0.8-0.6,1.2c-0.1,0.2-0.1,0.2-0.2,0.4c-0.1,0.2-0.2,0.4-0.3,0.5C8.2,20.7,8,21,7.9,21.3c-0.1,0.1-0.1,0.1-0.2,0.2
	c0,0,0-0.1,0-0.1c0-0.1,0.1-0.1,0.1-0.2c0.1-0.2,0.2-0.2,0.1-0.5c-0.1-0.2-0.1-0.2-0.2-0.4c0-0.1-0.1-0.1-0.1-0.2
	C7.5,20,7.5,20,7.3,19.8c0.6-1.1,0.6-1.1,0.7-1.2c0.1-0.1,0.1-0.2,0.2-0.3c0.1-0.2,0.2-0.3,0.3-0.5c0.2-0.2,0.1-0.3,0.2-0.5
	c0.1-0.1,0.2-0.3,0.2-0.4c0-0.1,0.1-0.3,0.1-0.4C9,16.3,9,16.3,9.2,16.2c0.3-0.2,0.4-0.6,0.5-0.9c-0.1,0-0.1,0.1-0.2,0.1
	c0-0.3,0.1-0.5,0.3-0.7c0-0.1,0.1-0.1,0.1-0.2c0-0.1,0.1-0.1,0.1-0.2c0.1,0.1,0.1,0.1,0.1,0.1c0.2-0.2,0.3-0.4,0.5-0.7
	C10.9,13.1,11.1,12.8,11.9,12.7z"/>
<path class="st11" d="M17.7,10.4c0.5-0.1,0.7-0.1,1.2,0.2c0.2,0.1,0.2,0.1,0.2,0.2c0.1,0,0.1,0,0.2,0c0,0-0.1,0.1-0.1,0.1
	c-0.1,0.1-0.2,0.2-0.4,0.4c0,0-0.1,0.1-0.1,0.1c-0.1,0.1-0.1,0.1-0.2,0.3c0.1,0.1,0.1,0.1,0.1,0.1c0,0-0.1,0.1-0.1,0.1
	c-0.3,0.3-0.7,0.6-1,0.9c0,0-0.1,0.1-0.1,0.1c-0.2,0.2-0.4,0.4-0.6,0.6c-0.1,0.2-0.2,0.3-0.4,0.4c-0.2,0.2-0.4,0.4-0.6,0.6
	c-0.1,0.1-0.2,0.2-0.3,0.3c-0.5,0.4-0.7,1-1,1.6c-0.1,0.1-0.1,0.1-0.2,0.3c0,0.1,0,0.3,0,0.4c0,0.1,0,0.2-0.1,0.2c0.1,0,0.1,0,0.2,0
	c1.5-0.1,1.5-0.1,1.8,0.1c0,0.1,0.1,0.1,0.1,0.2c0,0,0.1,0.1,0.1,0.1c0.5,0.5,0.7,1.2,0.6,1.9c0,0.2-0.1,0.5-0.1,0.7
	C17,20.9,17,21.1,17,21.4c0.1-0.2,0.3-0.4,0.4-0.6c0,0.3-0.1,0.6-0.2,0.9c0,0.1,0,0.1-0.1,0.3c-0.1,0.2-0.2,0.5-0.3,0.7
	c-0.4,0.7-0.8,1.4-1,2.2c-0.1,0.2-0.1,0.3-0.2,0.5c0,0-0.1,0-0.1,0c-0.1-0.3,0-0.5,0.2-0.8c0-0.1,0.1-0.2,0.1-0.3c0,0,0-0.1,0.1-0.1
	c0.1-0.3,0.2-0.5,0.4-0.8c0.1-0.2,0.1-0.2,0.2-0.5c0.4-0.7,0.3-1.3,0.3-2.1c0-0.3,0-0.5,0-0.8c0-0.8-0.1-1.4-0.5-2
	c-0.2-0.1-0.3-0.1-0.5-0.1c-0.2,0-0.2,0-0.3,0.1C15.1,18,14.9,18,14.6,18c-0.3,0-0.6,0-0.9,0.2c-0.2,0.2-0.3,0.4-0.4,0.6
	c0-0.1,0-0.3,0-0.4c0-0.1,0-0.1,0-0.3c0-0.3,0-0.3,0.2-0.4c0,0,0.1,0,0.1,0c0-0.1,0-0.2,0-0.4c0.1,0,0.1-0.1,0.2-0.1
	c0.3-0.2,0.4-0.5,0.6-0.8c0-0.1,0.1-0.1,0.1-0.2c0.2-0.3,0.3-0.6,0.5-1c0.2-0.5,0.5-1,0.8-1.4c0.1-0.2,0.1-0.2,0.2-0.4
	c0.1-0.3,0.3-0.5,0.4-0.7c0.2-0.3,0.5-0.6,0.7-1c0.1-0.1,0.1-0.2,0.2-0.3C17.4,11.2,17.6,10.9,17.7,10.4z"/>
<path class="st12" d="M22.1,11.2c0.2,0.2,0.3,0.3,0.4,0.6c0,0,0,0.1,0.1,0.1c0,0.1,0.1,0.2,0.1,0.3c0.1,0.1,0.1,0.3,0.2,0.4
	c0,0.1,0.1,0.2,0.1,0.3c0,0.1,0.1,0.2,0.1,0.2c0.1,0.2,0.1,0.4,0.1,0.6c-0.3,0-0.6,0.1-0.8-0.1c0,0-0.1-0.1-0.1-0.1
	c0,0.4,0,0.9-0.1,1.3c0,0.2,0,0.2-0.1,0.4c-0.6,0.4-1.1,0.4-1.8,0.4c-0.2-0.1-0.2-0.3-0.2-0.4c0,0,0-0.1,0-0.2c0,0,0-0.1,0-0.1
	c-0.1-0.2-0.1-0.4-0.1-0.6c0-0.1-0.1-0.3-0.1-0.4c0-0.1,0-0.1-0.1-0.2c0-0.2-0.1-0.3-0.1-0.5c0-0.1,0-0.1-0.1-0.2
	c0-0.1,0-0.1-0.1-0.2c0-0.2,0-0.3,0.1-0.4c0,0,0.1,0,0.1,0c0.2,0,0.4,0,0.7,0.1c0.1,0,0.1,0,0.3,0c0.4-0.1,0.7-0.3,1-0.6
	c0,0,0.1-0.1,0.1-0.1c0.1-0.1,0.2-0.2,0.3-0.3C22,11.3,22.1,11.3,22.1,11.2z"/>
<path class="st13" d="M16.5,18.4C16.5,18.4,16.5,18.4,16.5,18.4c0.3,0.6,0.3,1.2,0.3,1.8c0,0.2,0,0.4,0,0.5c0,0.1,0,0.1,0,0.2
	c0,0.1,0,0.2,0,0.4c0,0.5,0,1-0.3,1.4c-0.2,0.4-0.3,0.8-0.5,1.1c-0.1,0.2-0.2,0.4-0.3,0.5c-0.2,0.3-0.3,0.7-0.4,1
	c0,0.1-0.1,0.2-0.1,0.3c0,0,0,0.1-0.1,0.2c-0.1,0.2-0.2,0.3-0.2,0.5c0-0.1,0-0.1,0-0.2c-0.1-0.2-0.1-0.5-0.2-0.7
	c0-0.1,0-0.2-0.1-0.2c0-0.1,0-0.2-0.1-0.2c0-0.1,0-0.1-0.1-0.2c-0.1-0.2-0.2-0.3-0.3-0.5c0-0.1,0.1-0.1,0.1-0.2
	c0.2-0.4,0.4-0.9,0.5-1.3c0.1-0.2,0.1-0.3,0.2-0.5c0.1-0.2,0.1-0.2,0.1-0.4c0-0.3,0.1-0.5,0.3-0.8c0-0.1,0.1-0.2,0.1-0.3
	c0-0.1,0-0.1,0.1-0.2c0.3-0.6,0.6-1.2,0.8-1.8C16.4,18.7,16.4,18.5,16.5,18.4z"/>
<path class="st14" d="M9.9,6.4C10,6.8,9.7,7.2,9.6,7.6c-0.1,0.1-0.1,0.1,0,0.3c0-0.1,0.1-0.1,0.1-0.2c0-0.1,0.1-0.1,0.1-0.2
	c0-0.1,0.1-0.1,0.1-0.2c0.1-0.2,0.1-0.2,0.3-0.2c0,0.1,0,0.2,0,0.3c0,0.1,0,0.1,0,0.2c0,0.2,0,0.2,0,0.4C10.2,8,10.1,8,10.1,8.1
	C9.6,8.5,9.5,9.1,9.4,9.7c0,0.1,0,0.1-0.1,0.2C9.3,10,9.3,10,9.3,10.2c0,0.2-0.1,0.3-0.3,0.5c-0.4,0.5-0.6,1-0.8,1.5
	c-0.1,0.2-0.2,0.3-0.3,0.5c-0.3,0.5-0.6,0.9-0.6,1.5c-0.4,0.2-0.9,0.2-1.3,0.3c0.2-0.6,0.4-1.1,0.7-1.7c0-0.1,0-0.1,0.1-0.2
	c0.2-0.4,0.4-0.8,0.6-1.2c0.1-0.2,0.2-0.3,0.3-0.5c0.2-0.4,0.4-0.8,0.6-1.2C8.3,9.5,8.4,9.3,8.5,9c0.1-0.2,0.2-0.5,0.3-0.7
	c0-0.1,0.1-0.1,0.1-0.2C9.3,7.6,9.6,7,9.9,6.4z"/>
<path class="st15" d="M23.3,15.8c0.1,0,0.1,0,0.2,0.1c0,0.1-0.1,0.2-0.1,0.3c-0.3,0.6-0.6,1.1-0.8,1.7c-0.2,0.4-0.4,0.9-0.6,1.3
	c0,0.1-0.1,0.1-0.1,0.2c-0.1,0.3-0.3,0.6-0.5,0.9c-0.2,0.4-0.4,0.8-0.6,1.3c-0.3,0.7-0.6,1.3-0.9,2c0,0-0.1,0-0.1,0
	c0,0.1,0,0.2-0.1,0.3c0,0-0.1,0-0.1,0c0,0.1,0,0.1,0.1,0.2c0,0-0.1,0-0.1,0c-0.1-0.1-0.1-0.1-0.2-0.2c0-0.1,0-0.1-0.1-0.1
	c-0.1-0.1-0.1-0.1-0.2-0.4c-0.1,0-0.2,0-0.3,0c0.2-0.4,0.3-0.7,0.5-1c0.1-0.2,0.2-0.5,0.3-0.7c0.2-0.4,0.4-0.8,0.7-1.2
	c0.3-0.4,0.5-0.9,0.8-1.4c0.1-0.3,0.3-0.5,0.6-0.8c0.1-0.1,0.1-0.2,0.2-0.4c0.1-0.2,0.2-0.3,0.2-0.4c0.2-0.3,0.3-0.7,0.5-1.1
	C22.6,16,22.8,15.9,23.3,15.8z"/>
<path class="st16" d="M14,18c0.1,0,0.2,0,0.3,0c0.1,0,0.1,0,0.2,0c0.2,0,0.2,0,0.4,0c0.1,0,0.2-0.1,0.4-0.1c0.3-0.1,0.5-0.2,0.9,0
	c0.1,0.2,0.2,0.4,0.3,0.6c0,0-0.1,0.1-0.1,0.1c-0.4,0.5-0.7,1-1,1.6c-0.1,0.1-0.1,0.1-0.2,0.3c0-0.1-0.1-0.1-0.1-0.2
	c0-0.1-0.1-0.1-0.1-0.2c-0.8-0.1-1.9,0.6-2.7,0.9c0-0.1,0.1-0.2,0.1-0.3c0-0.1,0-0.1,0.1-0.2c0.1-0.2,0.1-0.2,0.2-0.4
	c0.2-0.3,0.4-0.7,0.5-1.1c0.2-0.3,0.5-0.6,0.9-0.8C14,18.1,14,18.1,14,18z"/>
<path class="st17" d="M16.6,3.2c0.1,0.1,0.2,0.1,0.3,0.2c0,0.1-0.1,0.1-0.1,0.2c0,0,0.1,0,0.1,0c0.2,0,0.3,0.1,0.5,0.3
	c0,0-0.1,0.1-0.1,0.1c-0.3,0.5-0.7,1-0.9,1.6c-0.1,0.1-0.1,0.3-0.2,0.4c-0.3,0.5-0.4,0.9-0.5,1.4c-0.1,0.2-0.1,0.3-0.3,0.4
	c-0.2,0-0.2,0-0.4,0c-0.1,0-0.1,0-0.2,0c0,0-0.1,0-0.1,0c0-0.1-0.1-0.2-0.1-0.4c0-0.1,0-0.1,0-0.2c0-0.2,0-0.2,0-0.4
	c0-0.1-0.1-0.2-0.1-0.3c0-0.2-0.1-0.4,0-0.5c0.2-0.3,0.4-0.6,0.7-0.8c0.1-0.1,0.2-0.2,0.3-0.3c0.1-0.1,0.1-0.1,0.2-0.2
	c0.1,0.1,0.2,0.2,0.2,0.3c0,0,0.1,0,0.1,0c0,0,0-0.1,0-0.1c0,0,0.1,0,0.1,0c0.1,0.1,0.1,0.1,0.1,0.1c0-0.2,0.1-0.3,0.1-0.5
	c-0.1,0.1-0.1,0.1-0.2,0.2c-0.2,0.1-0.2,0.1-0.4,0.1c0-0.2,0-0.3,0.1-0.4c0,0,0.1-0.1,0.1-0.1C16,3.9,16,3.9,16,3.8
	c0,0,0.1-0.1,0.1-0.1c0,0,0.1-0.1,0.1-0.1C16.4,3.4,16.5,3.3,16.6,3.2z"/>
<path class="st18" d="M11.8,5c0.4,0.2,0.4,0.2,0.5,0.3c0,0.2,0,0.2-0.1,0.3c0,0.1,0,0.1,0.2,0.2c0.2,0.1,0.2,0.1,0.4,0
	c0-0.1,0-0.1,0-0.2c0.1,0,0.2,0,0.3,0c0,0.1-0.1,0.2-0.1,0.2c-0.2,0.4-0.2,0.7-0.3,1.1c0.1,0,0.1,0,0.2,0c0.1,0.3,0.1,0.3,0.2,0.5
	c-0.2,0-0.3,0-0.5,0c-0.3,0-0.5,0-0.7,0.1c-0.2,0-0.4,0-0.6,0c0-0.1,0-0.1-0.1-0.2c0,0.1-0.1,0.1-0.1,0.2c-0.4,0-0.4,0-0.7,0
	C10.3,7,10.3,7,10.5,6.5c0.1-0.2,0.3-0.4,0.4-0.5C11,6,11,5.9,11,5.9c0.3-0.3,0.3-0.3,0.5-0.4c0,0-0.1-0.1-0.1-0.1
	C11.6,5.2,11.7,5.1,11.8,5z"/>
<path class="st19" d="M12.4,7.8c0.3,0,0.5,0,0.8-0.1c0,0.1-0.1,0.1-0.1,0.2c-0.5,0.7-0.9,1.4-1.2,2.2c-0.3,0.1-0.6,0.1-0.9,0
	c-0.2,0-0.5,0-0.7,0c-0.2,0-0.4,0-0.5,0c0.4-0.6,0.8-1.1,1.3-1.6c0,0,0.1-0.1,0.1-0.1C11.6,8,11.9,7.8,12.4,7.8z"/>
<path class="st20" d="M17.7,10.4c0.5-0.1,0.7-0.1,1.2,0.2c0.2,0.1,0.2,0.1,0.2,0.2c0.1,0,0.1,0,0.2,0c0,0-0.1,0.1-0.1,0.1
	c-0.1,0.1-0.2,0.2-0.4,0.4c0,0-0.1,0.1-0.1,0.1c-0.1,0.1-0.1,0.1-0.2,0.3c0.1,0.1,0.1,0.1,0.1,0.1c-0.2,0.1-0.3,0.2-0.5,0.3
	c-0.3,0.2-0.5,0.4-0.8,0.7c-0.1,0.1-0.1,0.1-0.2,0.2c-0.4,0.4-0.4,0.4-0.7,0.8c-0.2,0.3-0.3,0.5-0.6,0.6c-0.1,0-0.1,0-0.2,0
	c0-0.1,0.1-0.1,0.1-0.2c0.1-0.2,0.2-0.4,0.3-0.6c0-0.1,0.1-0.2,0.1-0.3c0.3-0.5,0.5-0.9,0.7-1.4c0.1-0.2,0.2-0.4,0.3-0.6
	C17.4,11.1,17.6,10.8,17.7,10.4z"/>
<path class="st21" d="M14.6,8.2c0.4,0,0.4,0,0.7-0.1c-0.2,0.4-0.3,0.9-0.5,1.3c0,0.1-0.1,0.1-0.1,0.2c-0.3,0.5-0.6,1.1-0.8,1.6
	c0,0,0,0.1-0.1,0.1c-0.4,0.7-0.4,0.7-0.6,1.1c-0.2,0.2-0.3,0.5-0.4,0.7c-0.1,0.3-0.2,0.4-0.3,0.6c-0.1-0.2-0.2-0.3-0.2-0.5
	c-0.2,0.4-0.5,0.9-0.7,1.3c-0.1-0.2-0.1-0.2,0-0.3c0-0.1,0.1-0.1,0.1-0.2c0-0.1,0.1-0.1,0.1-0.2c0.1-0.1,0.1-0.1,0.1-0.2
	c0-0.1,0.1-0.1,0.1-0.2c0.1-0.2,0.2-0.3,0.3-0.5c0.1,0,0.1,0,0.2,0c0,0,0,0.1,0,0.1c0,0,0.1,0,0.1,0c0-0.1-0.1-0.1-0.1-0.2
	c-0.1-0.3,0-0.4,0.1-0.6c0.1-0.1,0.2-0.3,0.2-0.4c0.1-0.1,0.2-0.3,0.2-0.4c0-0.1,0.1-0.1,0.1-0.2c0.1-0.2,0.2-0.4,0.3-0.7
	c0.2-0.5,0.5-0.9,0.7-1.4C14.3,8.9,14.5,8.6,14.6,8.2z M11.3,14.6c0.1,0,0.1,0,0.2,0c-0.1,0.1-0.2,0.2-0.3,0.4
	C11.2,14.7,11.2,14.7,11.3,14.6z"/>
<path class="st22" d="M21.2,3.2c0,0,0.1,0,0.1,0c0.1,0.1,0.2,0.2,0.3,0.2c0.4,0.3,0.8,0.5,1.3,0.8c0.1,0,0.1,0.1,0.2,0.1
	c0,0,0.1,0,0.1,0.1c0.1,0.1,0.1,0.1,0.3,0.2c0,0.2,0,0.2,0,0.4c0,0.1,0,0.1,0,0.2c0,0,0,0.1,0,0.2c-0.1,0-0.2,0.1-0.3,0.1
	c0,0,0,0.1,0,0.1c0.1,0,0.1,0,0.2-0.1c0,0.1,0,0.2,0,0.4c-0.7,0-1.3-0.1-1.9-0.3c-0.1,0-0.1,0-0.2-0.1c0,0-0.1,0-0.1-0.1
	c0.5-0.1,0.9,0,1.4,0.1c0.2,0.1,0.2,0.1,0.4,0c-0.2,0-0.4-0.1-0.5-0.1c-0.1,0-0.1,0-0.2,0c-0.3-0.1-0.3-0.1-0.6-0.1
	c-0.1,0-0.1,0-0.3-0.2c-0.1-0.2-0.1-0.3-0.1-0.6c0-0.1,0-0.2,0-0.3c0-0.1,0-0.1,0-0.2c0-0.1,0-0.1,0-0.2c0-0.1,0-0.1,0-0.2
	C21.3,3.5,21.2,3.3,21.2,3.2z"/>
<path class="st23" d="M14.1,6.8c0.1,0,0.1,0.1,0.2,0.1c0,0.1,0,0.3,0.1,0.4c0,0.1,0,0.2,0.1,0.3c0,0.1,0,0.1,0,0.2
	c0,0.1,0,0.1,0.1,0.2c0,0-0.1,0.1-0.1,0.1c-0.3,0.3-0.4,0.7-0.6,1c-0.1,0.1-0.1,0.1-0.1,0.2c-0.2,0.4-0.4,0.9-0.6,1.4
	c-0.2,0.4-0.4,0.7-0.6,1.1c-0.1-0.1-0.1-0.1-0.1-0.3c0-0.1,0-0.1,0-0.2c0-0.4,0-0.7,0.1-1.1c-0.1,0-0.1,0-0.2,0
	c0.5-1.1,0.5-1.1,0.8-1.5c0.1-0.1,0.1-0.2,0.2-0.3c0-0.1,0.1-0.1,0.1-0.2c0-0.1,0.1-0.1,0.1-0.2c0.1-0.1,0.1-0.1,0.4-0.2
	c-0.1-0.3-0.2-0.5-0.2-0.8c0,0,0,0,0.1,0c0.1,0.2,0.1,0.4,0.2,0.6c0.2-0.2,0.2-0.3,0.2-0.6C14.1,7,14.1,6.9,14.1,6.8z"/>
<path class="st24" d="M9,9.2C9,9.2,9,9.2,9,9.2C9.4,10,9.4,10,9.2,10.4c-0.1,0.2-0.3,0.3-0.4,0.5c-0.3,0.4-0.5,0.9-0.7,1.4
	c-0.1,0.2-0.2,0.3-0.3,0.5c-0.3,0.5-0.6,0.9-0.6,1.5c-0.4,0.1-0.4,0.1-0.7,0.1c0-0.3,0.1-0.4,0.3-0.7c0.4-0.7,0.8-1.4,1.1-2.2
	C8,11.2,8.1,11,8.3,10.7c0.2-0.3,0.3-0.7,0.5-1c0-0.1,0.1-0.1,0.1-0.2c0-0.1,0-0.1,0.1-0.2C9,9.3,9,9.2,9,9.2z"/>
<path class="st25" d="M17.9,23.5c0.6-0.2,0.6-0.2,0.9-0.1c0,0,0,0.1,0,0.1c0.1,0,0.1,0,0.2,0c0.1,0.1,0.1,0.1,0.2,0.3
	c0,0.1,0.1,0.1,0.1,0.2c0,0,0.1,0.1,0.1,0.2c0,0.1,0.1,0.1,0.1,0.2c-0.1,0.6-0.4,1.1-0.9,1.4c-0.1,0.1-0.1,0.1-0.2,0.1
	c-0.1-0.1-0.1-0.1-0.1-0.2c-0.1-0.2-0.1-0.2-0.3-0.3c0,0,0-0.1,0.1-0.1c0.2-0.3,0.3-0.5,0.4-0.9c-0.2,0.2-0.2,0.2-0.3,0.4
	c0,0-0.1,0-0.1,0C18,24.2,18,23.9,17.9,23.5z"/>
<path class="st26" d="M6,14.7c0.1,0,0.1,0,0.3,0c0,0,0.1,0,0.1,0c0.1,0,0.2,0,0.4,0c0,0,0,0.1,0,0.1c-0.1,0.3-0.2,0.6-0.3,0.9
	c-0.1,0.3-0.2,0.6-0.4,0.9C6,16.8,5.9,17,5.9,17.2c-0.1,0.1-0.2,0.2-0.3,0.3c-0.1-0.3-0.1-0.6-0.1-0.9c0-0.1,0-0.2,0-0.3
	c-0.1-0.6-0.1-0.9,0.2-1.4C5.8,14.8,5.8,14.7,6,14.7z"/>
<path class="st27" d="M22.1,11.2c0.2,0.2,0.3,0.3,0.4,0.6c0,0,0,0.1,0.1,0.1c0,0.1,0.1,0.2,0.1,0.3c0.1,0.1,0.1,0.3,0.2,0.4
	c0,0.1,0.1,0.2,0.1,0.3c0,0.1,0.1,0.2,0.1,0.2c0.1,0.2,0.1,0.4,0.1,0.6c-0.4,0.1-0.4,0.1-0.7,0c-0.2-0.2-0.3-0.3-0.4-0.6
	c-0.2-0.4-0.5-0.7-0.9-0.9C21.5,11.9,21.8,11.6,22.1,11.2z"/>
<path class="st28" d="M12.2,10.6c0.1,0.1,0.1,0.1,0.1,0.4c0,0.1,0,0.2,0,0.3c0,0.1,0,0.2,0,0.3c0,0.1,0,0.1,0,0.2c0,0.1,0,0.2,0,0.4
	c-0.1,0-0.1,0-0.2,0.1c-0.1,0-0.1,0.1-0.2,0.1c-0.1,0-0.1,0.1-0.2,0.1c-0.2,0.1-0.3,0.2-0.4,0.2c0,0,0-0.1,0.1-0.1
	c0-0.1,0-0.1,0.1-0.2c0-0.1,0-0.1,0.1-0.2c0-0.1,0.1-0.3,0.1-0.4c-0.4,0.2-0.7,0.4-1.1,0.6c-0.2,0.1-0.4,0.3-0.7,0.4
	c-0.2,0.1-0.3,0.2-0.5,0.4c-0.1,0.1-0.3,0.2-0.4,0.3c-0.1,0.1-0.1,0.1-0.2,0.1c-0.2,0.1-0.3,0.1-0.5,0.1c0,0,0.1-0.1,0.1-0.1
	c0,0,0-0.1,0-0.1c-0.1,0-0.1-0.1-0.2-0.1c1.2-0.7,1.2-0.7,1.7-0.9c0.2-0.1,0.2-0.1,0.3-0.2c0.2-0.1,0.3-0.2,0.5-0.3
	c0.3-0.2,0.6-0.4,0.9-0.6c0.1,0,0.2-0.1,0.2-0.1C11.9,11.1,12,10.9,12.2,10.6z"/>
<path class="st29" d="M8.8,8.3C8.9,8.4,8.9,8.4,9,8.5C8.9,8.7,8.8,8.8,8.8,8.9c0,0.1-0.1,0.2-0.1,0.4c-0.1,0.4-0.3,0.7-0.5,1.1
	c0,0.1-0.1,0.1-0.1,0.2C8,10.8,7.9,11,7.8,11.2c-0.1,0.2-0.2,0.4-0.3,0.6c-0.1,0.1-0.1,0.2-0.2,0.4c-0.2,0.4-0.4,0.7-0.5,1.1
	c-0.1,0.2-0.2,0.4-0.3,0.6c-0.1,0.2-0.1,0.2-0.2,0.5c-0.2,0.1-0.2,0.1-0.4,0.2c0.2-0.6,0.4-1.1,0.7-1.7c0-0.1,0.1-0.1,0.1-0.2
	c0.2-0.4,0.4-0.8,0.6-1.2c0.1-0.2,0.2-0.3,0.3-0.5c0.2-0.4,0.4-0.8,0.6-1.2c0.2-0.3,0.3-0.6,0.5-1C8.7,8.6,8.7,8.5,8.8,8.3z"/>
<path class="st30" d="M22.3,13.9c0.1,0,0.1,0,0.2,0c0.3,0,0.5-0.1,0.8-0.2c0.1,0.1,0.1,0.1,0.2,0.3c0,0.2,0,0.2-0.1,0.4
	c0,0.1-0.1,0.1-0.1,0.2c-0.2,0.4-0.4,0.7-0.6,1.1c-0.4-0.1-0.7-0.1-1.1-0.2c0.2-0.2,0.2-0.2,0.4-0.3c0.1,0,0.2-0.1,0.2-0.1
	c0-0.1,0-0.1,0-0.1C22.2,14.1,22.2,14.1,22.3,13.9z"/>
<path class="st31" d="M11.7,4.4c0.2,0,0.3,0.1,0.5,0.1c0.1,0,0.1,0,0.2,0.1c0.1,0,0.1,0.1,0.2,0.1c0.1,0,0.1,0,0.2,0.1
	C13,4.9,13.3,5,13.6,5.2c-0.2,0.3-0.2,0.3-0.3,0.5c-0.2,0-0.2,0-0.4,0c0,0.1,0,0.1,0,0.2c-0.1,0-0.1,0.1-0.2,0.1c0,0,0-0.1,0-0.1
	c-0.1,0-0.1,0-0.2,0c-0.1-0.1-0.1-0.1-0.3-0.2c-0.1-0.1-0.1-0.1-0.1-0.1c0,0-0.1-0.1-0.1-0.1c0.1,0,0.1,0,0.2,0c0-0.1,0-0.1,0-0.3
	c-0.2-0.2-0.2-0.2-0.4-0.3c-0.2,0-0.2,0-0.5,0.1c-0.1,0-0.1,0-0.2,0.1c-0.2,0.1-0.3,0.1-0.5,0.2c0.2-0.2,0.3-0.4,0.5-0.6
	c0.1-0.1,0.1-0.1,0.2-0.2C11.5,4.4,11.5,4.4,11.7,4.4z"/>
<path class="st32" d="M7.2,19.9c0.1,0,0.1,0,0.3,0.1c0.2,0.3,0.4,0.6,0.4,1c-0.1,0.1-0.1,0.1-0.2,0.3c0,0-0.1,0-0.1,0
	c0,0,0,0.1,0,0.1c0.1-0.2,0.2-0.4,0.3-0.5c0.1,0,0.1,0,0.2,0c0.1,0,0.2,0,0.3,0c0.2,0,0.3,0,0.5,0.1c0,0.2-0.1,0.4-0.2,0.6
	c-0.1,0-0.2,0-0.3,0c-0.1,0-0.1,0-0.2,0c-0.3,0-0.5,0-0.8,0c-0.1-0.2-0.2-0.4-0.3-0.6c0-0.1-0.1-0.1-0.1-0.2
	c-0.2-0.4-0.2-0.4-0.1-0.6C7.1,20.1,7.1,20.1,7.2,19.9z"/>
<path class="st33" d="M9.9,6.4C10,6.8,9.7,7.2,9.6,7.6c-0.1,0.1-0.1,0.1,0,0.3c0-0.1,0.1-0.1,0.1-0.2c0-0.1,0.1-0.1,0.1-0.2
	c0-0.1,0.1-0.1,0.1-0.2c0.1-0.2,0.1-0.2,0.3-0.2c0,0.1,0,0.2,0,0.3c0,0.1,0,0.1,0,0.2c0,0.2,0,0.2,0,0.4C10.2,8,10.1,8,10.1,8.1
	C9.7,8.4,9.5,9,9.4,9.5c0,0.2,0,0.2-0.2,0.3c0-0.1,0-0.1,0-0.2c0-0.1,0-0.1,0-0.2c0-0.1,0-0.1,0-0.2C9.1,9,9.1,9,9,8.8
	C8.9,8.5,8.8,8.3,8.9,8c0.1-0.3,0.3-0.5,0.4-0.7c0-0.1,0.1-0.2,0.1-0.3C9.6,6.8,9.7,6.6,9.9,6.4z"/>
<path class="st34" d="M16.6,3.2c0.1,0.1,0.2,0.1,0.3,0.2c0,0.1-0.1,0.1-0.1,0.2c0,0,0.1,0,0.1,0c0.2,0,0.3,0.1,0.5,0.3
	c0,0-0.1,0.1-0.1,0.1c-0.4,0.6-0.7,1.1-1,1.7c-0.2-0.3-0.2-0.6-0.1-1c0.1-0.2,0.1-0.4,0.2-0.6c-0.1,0.1-0.1,0.1-0.2,0.2
	c-0.2,0.1-0.2,0.1-0.4,0.1c0-0.2,0-0.3,0.1-0.4c0,0,0.1-0.1,0.1-0.1c0,0,0.1-0.1,0.1-0.1c0,0,0.1-0.1,0.1-0.1c0,0,0.1-0.1,0.1-0.1
	C16.4,3.4,16.5,3.3,16.6,3.2z"/>
<path class="st35" d="M5.9,17.3c0.2-0.1,0.3-0.1,0.5-0.2c0,0,0.1,0,0.2,0c0.1,0,0.2-0.1,0.3-0.1c0.2,0,0.3-0.1,0.5-0.1
	c0.1,0,0.2-0.1,0.3-0.1c0,0,0.1,0,0.1,0c0.3-0.1,0.5-0.1,0.7,0c0,0.2,0,0.3-0.1,0.5c-0.2,0.1-0.3,0.1-0.5,0.2c-0.1,0-0.1,0-0.1,0
	c-0.1,0-0.2,0.1-0.3,0.1c-0.2,0.1-0.3,0.1-0.5,0.2c-0.1,0-0.2,0.1-0.3,0.1c0,0-0.1,0-0.1,0c-0.2,0.1-0.3,0.1-0.5,0
	c-0.1-0.1-0.1-0.1-0.1-0.2c-0.1,0-0.2,0-0.3,0c0.1,0,0.1-0.1,0.2-0.1C5.8,17.5,5.8,17.4,5.9,17.3z"/>
<path class="st36" d="M12.9,14.9c0.1,0.2,0.2,0.4,0.2,0.6c0,0.1,0,0.1,0,0.2c0,0,0,0.1,0,0.1c0.1-0.1,0.2-0.2,0.3-0.4
	c0,0.1,0.1,0.3,0.1,0.4c0,0.1,0.1,0.2,0.1,0.2c0.1,0.2,0.1,0.2,0,0.5c0,0-0.1,0-0.1,0c-0.1-0.3-0.1-0.3-0.3-0.7
	c-0.2,0.4-0.4,0.9-0.6,1.4c-0.3-0.1-0.5-0.1-0.7-0.3c0.3-0.6,0.5-1.1,0.8-1.7C12.8,15.1,12.8,15.1,12.9,14.9z"/>
<path class="st37" d="M12.5,6.1c0.1,0,0.1,0,0.2,0c-0.2,0.4-0.2,0.4-0.4,0.4c0,0,0,0.1,0,0.1c0.2-0.1,0.2-0.1,0.5-0.2
	c0,0.2,0,0.4,0,0.6c0.1,0,0.1,0,0.2,0c0.1,0.2,0.2,0.3,0.2,0.5c-0.2,0-0.3,0-0.5,0c-0.3,0-0.5,0-0.7,0.1c-0.2,0-0.4,0-0.6,0
	c0-0.1,0-0.3,0-0.4c0.2,0,0.3-0.1,0.5-0.1c0,0,0-0.1,0-0.1c0.1-0.2,0.2-0.4,0.3-0.5c0-0.1,0.1-0.1,0.1-0.2
	C12.4,6.2,12.4,6.2,12.5,6.1z"/>
<path class="st38" d="M5.9,14.5c0.4-0.1,0.9-0.2,1.3-0.3c0.1,0.3,0,0.4-0.1,0.6c0,0.1-0.1,0.1-0.1,0.2C7,15.3,7,15.3,6.8,15.5
	c-0.2,0.3-0.3,0.6-0.4,1C6.3,16.7,6.2,17,6,17.2c-0.2,0.2-0.2,0.2-0.2,0.4c-0.1,0-0.1,0-0.2,0.1c0-0.2,0-0.2,0.1-0.4
	c0.1-0.2,0.1-0.2,0.2-0.4c0.1-0.2,0.1-0.3,0.2-0.5c0.2-0.3,0.3-0.7,0.3-1c0-0.2,0.1-0.4,0.2-0.6c-0.3,0-0.6,0-0.9,0.1
	C5.9,14.7,5.9,14.6,5.9,14.5z"/>
<path class="st39" d="M23,16.6c0.1,0,0.1,0,0.2,0c0,0,0,0.1-0.1,0.1c-0.2,0.4-0.4,0.8-0.5,1.2c-0.2,0.5-0.4,0.9-0.6,1.4
	c0,0.1,0,0.1-0.1,0.2c-0.2,0.4-0.4,0.7-0.6,1.1c0-0.1,0-0.1-0.1-0.2c0-0.1,0-0.1,0.1-0.2c0-0.1,0.1-0.1,0.1-0.2c0-0.1,0-0.1-0.1-0.2
	c-0.1-0.3,0.1-0.4,0.2-0.6c0.2-0.3,0.3-0.6,0.4-0.9c0.1-0.2,0.1-0.2,0.2-0.5c0.1-0.2,0.1-0.2,0.1-0.4c0-0.2,0.1-0.3,0.2-0.5
	c0-0.1,0.1-0.1,0.1-0.2C22.8,16.7,22.8,16.7,23,16.6z"/>
<path class="st40" d="M11.8,5c0.4,0.2,0.4,0.2,0.5,0.3c0,0.2,0,0.2-0.1,0.3c0,0.1,0,0.1,0.2,0.2c0.2,0.1,0.2,0.1,0.4,0
	c0-0.1,0-0.1,0-0.2c0.1,0,0.2,0,0.3,0c0,0.1-0.1,0.2-0.1,0.3c0,0.1,0,0.1-0.1,0.2c0,0.1,0,0.1-0.1,0.2c0,0,0,0.1-0.1,0.1
	c-0.1,0.2-0.4,0.3-0.6,0.3c0-0.3,0.1-0.4,0.3-0.6c0,0-0.1,0-0.1,0c-0.2,0-0.2,0-0.3-0.2c0,0,0-0.1-0.1-0.1c-0.1,0-0.1,0-0.2,0
	c-0.3,0-0.4-0.1-0.7-0.3c0.1-0.1,0.1-0.1,0.2-0.1c0,0-0.1-0.1-0.1-0.1C11.6,5.2,11.7,5.1,11.8,5z"/>
<path class="st41" d="M8.8,8.3C8.9,8.4,8.9,8.4,9,8.5C8.9,8.7,8.9,8.7,8.8,8.9c0,0.1-0.1,0.2-0.1,0.2c-0.1,0.3-0.3,0.6-0.5,0.9
	c0,0-0.1,0-0.1,0c0,0,0,0.1,0,0.1c0,0.2-0.1,0.3-0.2,0.5c0,0.1-0.1,0.1-0.1,0.2c0,0.1-0.1,0.1-0.1,0.2c-0.2,0.4-0.5,0.8-0.7,1.3
	c-0.1,0.2-0.3,0.5-0.4,0.7C6.6,12.6,7,12,7.2,11.5c0.1-0.2,0.2-0.3,0.3-0.5c0.2-0.4,0.4-0.8,0.6-1.2c0.2-0.3,0.3-0.6,0.5-1
	C8.7,8.6,8.7,8.5,8.8,8.3z M6.4,13.3c0,0.1,0.1,0.1,0.1,0.2c0,0.2,0,0.2-0.1,0.4c-0.1,0.3-0.1,0.3-0.1,0.5c-0.2,0.1-0.2,0.1-0.4,0.2
	C6.1,14.1,6.2,13.7,6.4,13.3z"/>
<path class="st42" d="M14.3,17c0.1,0.1,0.1,0.1,0.1,0.2c-0.1,0.2-0.1,0.2-0.1,0.3c0.1,0,0.1,0,0.2,0c1.5-0.1,1.5-0.1,1.8,0.2
	c0.1,0.1,0.1,0.1,0.1,0.2c0.1,0.1,0.1,0.1,0.1,0.1c0.2,0.3,0.3,0.7,0.3,1.1c0,0,0,0-0.1,0c0,0,0-0.1-0.1-0.1
	c-0.1-0.3-0.3-0.6-0.5-0.9c0,0-0.1-0.1-0.1-0.1c-0.2-0.1-0.3-0.1-0.5-0.1c-0.2,0-0.2,0-0.3,0.1C14.9,18.1,14.5,18,14,18
	c0-0.1,0.1-0.1,0.1-0.2c0.2,0,0.2,0,0.4-0.1c0.1,0,0.1,0,0.2,0c0.1,0,0.1,0,0.2,0c-0.2,0-0.4,0-0.7,0c-0.1-0.1-0.1-0.3-0.2-0.4
	C14.1,17.2,14.2,17.1,14.3,17z"/>
<path class="st43" d="M5.7,15.2C6,15.9,6.1,16.3,5.9,17c-0.1,0.2-0.2,0.4-0.4,0.5c0-0.3-0.1-0.6-0.1-0.8c0-0.1,0-0.3-0.1-0.4
	c0-0.1,0-0.1,0-0.3c0-0.1,0-0.2,0-0.2C5.3,15.5,5.4,15.3,5.7,15.2z"/>
<path class="st44" d="M20.3,5.6c0.1,0,0.1,0,0.2,0c-0.1,0.1-0.1,0.2-0.2,0.2c0,0.1,0,0.1-0.1,0.2c-0.1,0.1-0.1,0.1-0.2,0.3
	c-0.2,0.3-0.2,0.5-0.3,0.8c-0.1,0.2-0.2,0.3-0.4,0.5c-0.2,0.1-0.4,0.2-0.7,0.2c-0.1,0-0.1,0-0.2,0.1c-0.2,0-0.2,0-0.5,0
	c0-0.1,0-0.1-0.1-0.2c0.1,0,0.2,0,0.2-0.1c0.1,0,0.2,0,0.3-0.1c0.1,0,0.1,0,0.2,0c0.2-0.1,0.4-0.1,0.6-0.2c0-0.1,0-0.2,0.1-0.3
	c0.1-0.1,0.1-0.1,0.2-0.3c0.2-0.3,0.4-0.6,0.7-1C20.3,5.7,20.3,5.7,20.3,5.6z"/>
<path class="st45" d="M21.1,2.6c0.1,0.1,0.3,0.1,0.4,0.2c0.1,0.1,0.3,0.1,0.4,0.2c0.6,0.2,1.1,0.5,1.6,0.8c0.1,0,0.1,0.1,0.2,0.1
	c0.1,0,0.1,0.1,0.2,0.1C24,3.9,24,3.9,24.1,4c0.2,0.1,0.2,0.2,0.2,0.4c-0.1,0.2-0.2,0.3-0.3,0.5c0-0.1-0.1-0.1-0.1-0.2
	c-0.2-0.4-0.4-0.7-0.8-0.9C23,3.7,23,3.7,22.9,3.6c-0.4-0.3-0.9-0.5-1.4-0.5c-0.1,0-0.1,0-0.2,0C21.2,2.9,21.2,2.8,21.1,2.6z"/>
<path class="st46" d="M16.6,2c0.1,0.1,0.1,0.1,0.3,0.2c0,0,0.1,0.1,0.1,0.1c0.1,0,0.1,0.1,0.2,0.1c0.1,0.1,0.1,0.1,0.2,0.1
	c0.3,0.3,0.3,0.3,0.4,0.4c0,0.1,0,0.1,0,0.2c-0.1,0-0.2-0.1-0.3-0.1c-0.1,0-0.1,0-0.2-0.1c0,0-0.1,0-0.1-0.1c0,0,0-0.1,0-0.1
	c-0.2,0-0.4,0-0.6,0.1c-0.1,0-0.1,0-0.2,0c-0.1,0-0.1,0-0.2,0c-0.1,0-0.1,0-0.2,0c-0.1,0-0.3,0.1-0.4,0.1c0.1-0.3,0.3-0.5,0.5-0.8
	c0-0.1,0.1-0.1,0.1-0.2C16.4,2.1,16.4,2.1,16.6,2z"/>
<path class="st6" d="M21.8,12.8c0.1,0,0.1,0,0.2,0c0.2,0.6,0.2,1.1,0.1,1.7c0,0.2,0,0.2,0,0.4c-0.1,0.2-0.2,0.3-0.4,0.5
	c-0.2,0.1-0.4,0.2-0.6,0.2c0,0,0-0.1,0-0.1c0,0,0.1-0.1,0.1-0.1c0.1-0.1,0.2-0.2,0.2-0.2c0.1-0.1,0.2-0.2,0.3-0.3
	c0.3-0.4,0.2-0.9,0.1-1.4C21.8,13.3,21.8,13,21.8,12.8z"/>
<path class="st47" d="M10.6,12.2c0,0,0,0.1,0,0.1c-0.3,0.2-0.5,0.4-0.9,0.5C9.6,13,9.6,13,9.4,13.1c-0.2,0.2-0.4,0.3-0.6,0.5
	c-0.1,0.1-0.1,0.1-0.2,0.1c-0.2,0.1-0.3,0.1-0.5,0.1c0,0,0.1-0.1,0.1-0.1c0,0,0-0.1,0-0.1c-0.1,0-0.1-0.1-0.2-0.1
	c0.6-0.3,1.1-0.7,1.7-0.9c0.1-0.1,0.2-0.1,0.3-0.2C10.3,12.3,10.4,12.3,10.6,12.2z"/>
<path class="st48" d="M10.2,7.1c0,0.1,0,0.2,0,0.3c0,0.1,0,0.1,0,0.2c0,0.2,0,0.2,0,0.4C10.1,8,10.1,8.1,10,8.2
	C9.7,8.5,9.6,8.8,9.5,9.1c-0.1,0-0.1,0-0.2,0C9.2,8.9,9.2,8.7,9.3,8.5c0.1-0.2,0.1-0.3,0.2-0.5C9.5,8,9.5,8,9.6,7.9
	C10,7.1,10,7.1,10.2,7.1z"/>
<path class="st49" d="M17.9,23.5c0.6-0.2,0.6-0.2,0.9-0.1c0.1,0.1,0.1,0.1,0.1,0.3c-0.1,0.3-0.3,0.5-0.6,0.8c0,0.1,0,0.1,0,0.2
	c0,0-0.1,0-0.1,0C18,24.2,18,23.9,17.9,23.5z"/>
<path class="st50" d="M11.5,12c0,0.9-0.8,1.7-1.2,2.4c-0.1,0-0.1,0-0.2,0c0.2-0.5,0.4-1,0.7-1.5c0-0.1,0.1-0.1,0.1-0.2
	c0-0.1,0.1-0.1,0.1-0.2c0,0,0.1-0.1,0.1-0.1C11.1,12.2,11.2,12,11.5,12z"/>
<path class="st51" d="M17.7,23.5c0,0,0.1,0,0.1,0c0.1,0.4,0.2,0.8,0.3,1.2c0,0,0.1,0,0.1,0c0-0.1,0-0.1,0-0.2
	c0.1-0.1,0.1-0.1,0.3-0.2c-0.1,0.5-0.2,0.9-0.6,1.3c-0.1-0.1-0.1-0.2-0.1-0.4c0-0.2,0-0.4-0.1-0.7C17.8,24.1,17.7,23.8,17.7,23.5z"
	/>
<path class="st52" d="M21,2.6c0,0.1,0.1,0.3,0.1,0.4c-0.8,0.2-1.5,0.4-2.3,0.6c0,0-0.1-0.1-0.1-0.1c0.3-0.1,0.6-0.2,0.8-0.4
	c0.1,0,0.2-0.1,0.2-0.1C20.2,2.9,20.6,2.7,21,2.6z"/>
<path class="st53" d="M21.4,5.4c0.5-0.1,0.9,0,1.4,0.1c0.2,0.1,0.2,0.1,0.4-0.1c0.2,0,0.3-0.1,0.5-0.1c-0.1,0-0.2,0.1-0.2,0.1
	c0,0,0,0.1,0,0.1c0.1,0,0.1,0,0.2-0.1c0,0.1,0,0.2,0,0.4c-0.7,0-1.3-0.1-1.9-0.3c-0.1,0-0.1,0-0.2-0.1C21.5,5.4,21.4,5.4,21.4,5.4z"
	/>
<path class="st54" d="M17.8,15.9c0.1,0.4-0.2,0.9-0.4,1.3c-0.2,0.3-0.4,0.5-0.6,0.7c0-0.7,0.3-1.1,0.8-1.6
	C17.7,16.1,17.7,16.1,17.8,15.9z"/>
<path class="st55" d="M16.6,3.2c0.1,0.1,0.2,0.1,0.3,0.2c-0.2,0.3-0.4,0.5-0.6,0.8c-0.1,0.1-0.1,0.1-0.2,0.2
	c-0.2,0.1-0.2,0.1-0.4,0.1c0-0.2,0-0.3,0.1-0.4c0,0,0.1-0.1,0.1-0.1c0,0,0.1-0.1,0.1-0.1c0,0,0.1-0.1,0.1-0.1c0,0,0.1-0.1,0.1-0.1
	C16.4,3.4,16.5,3.3,16.6,3.2z"/>
<path class="st56" d="M17.4,10.4c0.1,0,0.1,0,0.2,0c0,0.7-0.5,1.4-0.9,2c0-0.3,0.1-0.5,0.2-0.8c0,0,0-0.1,0-0.1
	C17.1,11,17.2,10.7,17.4,10.4z"/>
<path class="st57" d="M22.2,13.4c0.3,0.2,0.3,0.2,0.3,0.3c0.1,0,0.1,0,0.2,0c0.1,0,0.2,0,0.2,0c0,0.1,0.1,0.1,0.1,0.2
	c-0.2,0-0.5,0.1-0.7,0.1c-0.1,0.3-0.1,0.5-0.1,0.8c0,0.2,0,0.2-0.1,0.5c-0.2,0.2-0.5,0.3-0.7,0.4c-0.1,0-0.1-0.1-0.2-0.1
	c0.1,0,0.1-0.1,0.2-0.1c0.1,0,0.1-0.1,0.2-0.1c0.1,0,0.1-0.1,0.2-0.1c0.2-0.1,0.2-0.1,0.2-0.3c0-0.1,0-0.1,0-0.2c0-0.1,0-0.2,0-0.2
	c0-0.1,0-0.2,0-0.3C22.1,13.9,22.1,13.6,22.2,13.4z"/>
<path class="st58" d="M12.1,16.4c0.2,0.1,0.4,0.2,0.7,0.2c-0.1,0.2-0.2,0.4-0.2,0.7c-0.3-0.1-0.5-0.1-0.7-0.3
	C12,16.8,12,16.6,12.1,16.4z"/>
<path class="st59" d="M20.2,6c0.1,0,0.1,0,0.2,0c0,0.1,0,0.1-0.1,0.1C20.1,6.5,20,6.8,20,7.2c-0.1,0.2-0.2,0.4-0.4,0.5
	C19.3,7.8,19,7.9,18.7,8c-0.1,0-0.1,0-0.2,0.1c-0.1,0-0.3,0.1-0.4,0.1C18.1,8.1,18,8.1,18,8c0.1,0,0.2,0,0.3-0.1
	c0.1,0,0.2-0.1,0.3-0.1c0.1,0,0.1,0,0.2,0c0.3-0.1,0.6-0.2,0.9-0.4c0.1-0.2,0.1-0.2,0.1-0.4C19.9,6.6,20,6.3,20.2,6z"/>
<path class="st60" d="M24.1,5.4c0.1,0,0.1,0,0.2-0.1c0.2,0.7,0.2,1.2-0.1,1.8c-0.1,0.2-0.2,0.3-0.4,0.4c0-0.2,0.1-0.4,0.2-0.7
	C24.2,6.5,24.1,6,24.1,5.4z"/>
<path class="st61" d="M22.6,17.3c0.1,0,0.1,0,0.2,0c0,0.1-0.1,0.1-0.1,0.2c-0.2,0.4-0.4,0.9-0.6,1.4c-0.2,0.6-0.5,1.1-0.8,1.6
	c-0.1-0.2-0.1-0.2,0-0.4c0-0.1,0.1-0.1,0.1-0.2c0-0.1,0-0.1,0-0.2c0.1-0.2,0.2-0.4,0.3-0.7c0.2-0.4,0.4-0.8,0.6-1.2
	C22.4,17.7,22.5,17.5,22.6,17.3z"/>
<path class="st62" d="M23.3,15.8c0.1,0,0.1,0.1,0.2,0.1c-0.2,0.4-0.3,0.7-0.7,0.9c-0.1,0-0.1,0-0.2,0c0-0.2,0.1-0.3,0.1-0.5
	c-0.1,0-0.1,0-0.2,0.1c0-0.1,0-0.1,0.1-0.3C22.8,15.9,23,15.9,23.3,15.8z"/>
<path class="st63" d="M17,22c0.1,0.1,0.1,0.1,0.2,0.3c0.1,0.3,0.2,0.4,0.4,0.6c0.1,0.1,0.1,0.3,0.2,0.5c0.1,0,0.1,0,0.2-0.1
	c0,0,0,0.1,0,0.1c-0.1,0-0.2,0.1-0.3,0.1c0,0.1,0.1,0.3,0.1,0.4c0,0,0,0-0.1,0c-0.2-0.4-0.4-0.7-0.5-1.1c0-0.1,0-0.1-0.1-0.2
	c0-0.1-0.1-0.2-0.1-0.3c-0.1,0-0.1,0-0.2,0c0.1,0,0.1-0.1,0.2-0.1C17,22.1,17,22,17,22z"/>
<path class="st64" d="M5.9,14.5c0.4-0.1,0.8-0.2,1.2-0.2C7,14.4,7,14.4,6.9,14.5c0,0.2,0,0.2,0,0.3c-0.1,0-0.3,0-0.4,0
	c-0.1,0-0.2,0-0.2,0c-0.1,0-0.3,0-0.4,0C5.9,14.7,5.9,14.6,5.9,14.5z"/>
<path class="st65" d="M11.7,4.4c0.2,0,0.4,0.1,0.7,0.2c0,0.1,0,0.1,0,0.2c-0.4,0.1-0.8,0.2-1.2,0.3C11.4,4.5,11.4,4.5,11.7,4.4z"/>
<path class="st66" d="M13.1,14.4c0.2,0.3,0.3,0.6,0.3,0.9c-0.1,0.2-0.1,0.2-0.2,0.4c0,0-0.1,0-0.1,0C12.8,15,12.8,15,13,14.5
	C13.1,14.5,13.1,14.5,13.1,14.4z"/>
<path class="st67" d="M12.1,6.5c0.1,0.2,0.1,0.2,0,0.4c-0.2,0.3-0.3,0.3-0.6,0.4c-0.1,0.2-0.1,0.2-0.2,0.4c-0.1-0.2-0.1-0.2-0.1-0.4
	C11.3,6.9,11.7,6.6,12.1,6.5z"/>
<path class="st68" d="M23.5,15.2c0.2,0,0.2,0,0.3,0c-0.1,0.3-0.2,0.5-0.3,0.7C23.2,16,23,16,22.7,16.1c0-0.1,0-0.2,0-0.4
	c0,0,0.1,0,0.1,0C23.1,15.5,23.3,15.4,23.5,15.2z"/>
<path class="st69" d="M13,5.7c0.1,0,0.2,0,0.3,0c0,0.1-0.1,0.2-0.1,0.3c0,0.1,0,0.1-0.1,0.2c0,0.1,0,0.1-0.1,0.2
	c0,0.1,0,0.1-0.1,0.1c-0.1,0.2-0.4,0.3-0.6,0.3c0-0.3,0.1-0.4,0.3-0.6c0,0-0.1-0.1-0.1-0.1c0.2-0.1,0.2-0.1,0.4-0.2
	C12.9,5.8,12.9,5.8,13,5.7z"/>
<path class="st70" d="M22.1,11.2c0.2,0.2,0.2,0.2,0.3,0.4c-0.2,0.1-0.5,0.3-0.7,0.4c0,0,0,0.1,0,0.1c-0.2,0-0.2,0-0.4,0
	C21.5,11.8,21.8,11.5,22.1,11.2z"/>
<path class="st71" d="M11.7,11.4c-0.1,0-0.1,0-0.2,0.1c0,0,0,0.1,0,0.1c0,0.2,0,0.2-0.1,0.3c-0.4,0.3-0.9,0.4-1.4,0.6
	c0.1-0.2,0.3-0.3,0.5-0.4c0.2-0.1,0.5-0.3,0.7-0.5C11.5,11.4,11.5,11.4,11.7,11.4z"/>
<path class="st72" d="M8.6,9.2c0,0.1,0.1,0.1,0.1,0.2c-0.4,0.9-0.8,1.7-1.3,2.5c-0.1-0.2-0.1-0.2,0-0.4c0-0.1,0.1-0.1,0.1-0.2
	c0-0.1,0.1-0.1,0.1-0.2c0.1-0.1,0.1-0.1,0.1-0.2c0.1-0.1,0.1-0.3,0.2-0.4C8,10.6,8,10.5,8,10.5c0.1-0.1,0.1-0.1,0.1-0.3
	c0,0,0.1,0,0.1,0c0,0,0-0.1,0-0.1c0-0.2,0.1-0.3,0.2-0.5c0-0.1,0-0.1,0.1-0.2C8.5,9.3,8.6,9.3,8.6,9.2z"/>
<path class="st73" d="M16.6,2.6c0.1,0,0.1,0,0.2,0c0.2,0,0.4,0,0.6,0.1c0.1,0.1,0.2,0.2,0.4,0.3c0,0.1,0,0.1,0,0.2
	c-0.1,0-0.2-0.1-0.3-0.1c-0.1,0-0.1,0-0.2-0.1c0,0-0.1,0-0.1-0.1c0,0,0-0.1,0-0.1c-0.3,0-0.5,0.1-0.8,0.2c0,0-0.1,0-0.1,0
	c-0.1,0-0.2,0.1-0.3,0.1C16,2.7,16.2,2.7,16.6,2.6z"/>
<path class="st74" d="M9.9,6.4C10,6.8,9.7,7.2,9.6,7.6C9.5,7.7,9.5,7.8,9.4,8c0,0.1,0,0.1-0.1,0.2c0,0,0,0-0.1,0
	C9.2,8,9.1,7.8,9.2,7.6C9.3,7.4,9.4,7.2,9.5,7c0-0.1,0.1-0.1,0.1-0.2C9.7,6.7,9.8,6.6,9.9,6.4z"/>
<path class="st75" d="M12.2,12.2c-0.1,0.3-0.1,0.3-0.2,0.5c-0.3,0.1-0.6,0.2-0.9,0.3C11.4,12.5,11.7,12.4,12.2,12.2z"/>
<path class="st76" d="M16,17.6c0.1,0,0.1,0,0.3,0c0.4,0.3,0.6,0.8,0.6,1.3c0,0,0,0.1,0,0.1c0,0,0,0-0.1,0c0,0,0-0.1-0.1-0.1
	c-0.2-0.4-0.4-0.8-0.7-1.1C16,17.8,16,17.7,16,17.6z"/>
<path class="st77" d="M13.5,16.5c0.1,0.1,0.2,0.3,0.2,0.5c0,0.1,0,0.1,0.1,0.2c0,0,0,0.1,0,0.1c-0.1,0-0.2,0.1-0.2,0.1
	c0,0.1,0,0.2,0,0.3c-0.1,0-0.2,0.1-0.2,0.1c0-0.9,0-0.9,0.1-1.3C13.5,16.5,13.5,16.5,13.5,16.5z"/>
<path class="st78" d="M9.7,17.7c0.1,0.3,0,0.4-0.1,0.6c0,0.1-0.1,0.2-0.1,0.2c-0.1,0.2-0.2,0.5-0.3,0.7c0,0-0.1,0-0.1,0
	C9,18.7,9.3,18.2,9.7,17.7z"/>
<path class="st79" d="M11.8,5c0.4,0.2,0.4,0.2,0.5,0.3c0,0.1,0,0.2-0.1,0.3c-0.3-0.1-0.5-0.1-0.8-0.2c0-0.1,0.1-0.1,0.1-0.2
	C11.7,5.1,11.7,5.1,11.8,5z"/>
<path class="st80" d="M18.4,24.2c0.1,0,0.1,0,0.2,0c-0.1,0.5-0.3,0.9-0.6,1.3c0,0-0.1-0.1-0.1-0.1C18,24.9,18.2,24.6,18.4,24.2z"/>
<path class="st81" d="M13.3,17.9c0,0,0.1,0.1,0.1,0.1c0,0.2,0,0.2,0,0.4c0,0.1,0,0.1,0,0.2c0,0,0,0.1,0,0.1c0,0,0-0.1,0.1-0.1
	c0.2-0.4,0.2-0.4,0.5-0.5c0,0,0.1,0,0.1,0c0,0,0,0.1,0,0.1c-0.1,0.1-0.1,0.1-0.3,0.3c0,0.1-0.1,0.1-0.1,0.2
	c-0.1,0.1-0.1,0.1-0.4,0.2C13.2,18.5,13.1,18.2,13.3,17.9z"/>
<path class="st82" d="M19.5,12.2c0,0,0.1,0,0.1,0c0.2,0,0.4,0,0.7,0.1c0.1,0,0.1,0,0.3,0c0.1,0,0.3-0.1,0.4-0.1c0,0,0.1,0,0.1,0
	c0.1,0.1,0.1,0.1,0.2,0.2c-0.6,0.2-1.2,0.3-1.8,0C19.5,12.3,19.5,12.3,19.5,12.2z"/>
<path class="st83" d="M6.1,14.7c0.1,0,0.2,0,0.3,0c0,0.1-0.1,0.1-0.1,0.2c-0.1,0.2-0.1,0.2-0.2,0.4c0,0.1-0.1,0.1-0.1,0.2
	c0,0-0.1,0-0.1,0c-0.2-0.4-0.2-0.4-0.2-0.7C5.8,14.7,5.8,14.7,6.1,14.7z"/>
<path class="st84" d="M15.9,4.6c0,0,0.1,0,0.1,0c0,0.1,0,0.2,0,0.3c0,0-0.1,0-0.1,0c0,0,0,0.1,0,0.1C16,5.4,16,5.7,16,6
	c0,0,0,0-0.1,0c-0.1-0.3-0.2-0.6-0.1-0.9c0-0.1,0-0.3-0.1-0.4c0.1,0,0.1,0,0.2,0C15.9,4.7,15.9,4.6,15.9,4.6z"/>
<path class="st85" d="M21.3,5.3c0,0.2,0,0.3-0.2,0.4c-0.1,0-0.1,0.1-0.2,0.1c-0.1,0-0.1,0.1-0.2,0.1c-0.1,0.1-0.1,0.1-0.4,0.1
	C20.6,5.7,20.8,5.4,21.3,5.3z"/>
<path class="st86" d="M18.3,8.1c0.4-0.1,0.9-0.2,1.3-0.3C19.4,8,19.4,8,19.3,8.1c-0.1,0-0.1,0-0.2,0.1c-0.1,0-0.1,0-0.2,0.1
	c-0.2,0-0.4,0-0.6,0C18.3,8.2,18.3,8.1,18.3,8.1z"/>
<path class="st87" d="M10.9,9.9c0.4-0.1,0.7-0.1,1.1,0c0,0.1,0,0.1,0,0.2c-0.4,0.1-0.6,0.1-1-0.1C11,10,11,10,10.9,9.9z"/>
<path class="st88" d="M16.9,20.7c0.2,0.2,0.2,0.4,0.2,0.7c-0.1,0.2-0.2,0.4-0.3,0.5C16.7,21,16.7,21,16.9,20.7z"/>
<path class="st89" d="M13.3,15.4C13.3,15.4,13.4,15.4,13.3,15.4c0.1,0.1,0.2,0.3,0.2,0.4c0,0.1,0.1,0.2,0.1,0.2
	c0.1,0.2,0.1,0.2,0,0.5c0,0-0.1,0-0.1,0c0-0.1-0.1-0.3-0.1-0.4c0-0.1,0-0.1-0.1-0.2C13.2,15.7,13.2,15.6,13.3,15.4z"/>
<path class="st90" d="M8.3,13.6c0,0.2,0,0.2-0.1,0.3c-0.5,0.3-0.5,0.3-0.8,0.4c0-0.1,0.1-0.2,0.1-0.3c0,0,0-0.1,0.1-0.1
	C7.8,13.6,8,13.6,8.3,13.6z"/>
<path class="st91" d="M12.9,19.3c0.1,0.3,0,0.5-0.2,0.7c-0.1,0.2-0.3,0.4-0.4,0.6c-0.1,0-0.1,0-0.2,0C12.4,20.1,12.6,19.7,12.9,19.3
	z"/>
<path class="st92" d="M12.4,10.3c0.1,0.2,0.1,0.2,0.1,0.4c0,0.1,0,0.2,0,0.3c0,0.1,0,0.2,0,0.3c0,0.1,0,0.1,0,0.2
	c-0.1,0-0.1,0-0.2,0c0-0.1,0-0.3,0-0.4c0-0.1,0-0.2,0-0.2C12.3,10.5,12.3,10.5,12.4,10.3z"/>
<path class="st93" d="M23.6,3.8C24.2,4,24.2,4,24.3,4.2c0,0.2-0.1,0.4-0.3,0.5c0,0,0-0.1-0.1-0.1c0-0.1-0.1-0.1-0.1-0.2
	c0-0.1-0.1-0.1-0.1-0.2C23.8,4.1,23.7,4,23.6,3.8z"/>
<path class="st94" d="M12.2,5.3c0.3,0,0.4,0.1,0.7,0.2c-0.1,0.1-0.2,0.2-0.4,0.3c-0.2,0-0.4-0.1-0.5-0.3c0.1,0,0.1,0,0.2,0
	C12.2,5.5,12.2,5.4,12.2,5.3z"/>
<path class="st95" d="M21,2.6c0,0.1,0,0.2,0,0.3c-0.8,0.2-0.8,0.2-1.6,0.4c0,0,0,0,0-0.1c0.2-0.1,0.3-0.1,0.5-0.2C19.9,3,20,3,20,3
	C20.3,2.8,20.7,2.7,21,2.6z"/>
<path class="st96" d="M21.1,12.2c0.2-0.1,0.3-0.1,0.5,0c0.5,0.3,0.5,0.3,0.5,0.5c0,0.1,0,0.1,0,0.2c0,0.1,0,0.1,0,0.2
	c0,0,0,0.1,0,0.1c0,0,0,0-0.1,0c0,0,0-0.1-0.1-0.1C21.9,12.7,21.6,12.4,21.1,12.2z"/>
<path class="st97" d="M22.3,13.5c0.3,0,0.5-0.1,0.8-0.1c0,0.1,0,0.2,0,0.4c-0.2,0-0.4,0.1-0.7,0C22.4,13.6,22.4,13.5,22.3,13.5z"/>
<path class="st98" d="M10.2,9.8c0.3,0,0.4,0,0.6,0.2c0,0,0,0.1,0,0.1c-0.3,0.1-0.6,0.1-0.9,0.1C9.9,9.9,10,9.8,10.2,9.8z"/>
<path class="st99" d="M12.5,6.1c0.1,0,0.1,0,0.2,0c-0.1,0.2-0.3,0.4-0.4,0.6c-0.2,0.2-0.2,0.2-0.2,0.4c-0.2,0.2-0.4,0.3-0.6,0.3
	c0-0.1,0-0.1,0-0.2c0.2,0,0.3-0.1,0.5-0.1c0,0,0-0.1,0-0.1c0.1-0.2,0.2-0.4,0.3-0.5c0-0.1,0.1-0.1,0.1-0.2
	C12.4,6.2,12.4,6.2,12.5,6.1z"/>
<path class="st100" d="M21.2,4.8c0.2,0.2,0.2,0.2,0.2,0.3c-0.1,0-0.1,0.1-0.2,0.1C21,5.3,21,5.4,20.8,5.6c-0.1,0.1-0.2,0.2-0.3,0.2
	C20.5,5.9,20.4,6,20.4,6c0-0.3,0.2-0.5,0.4-0.8C20.9,5.2,21,5.1,21.1,5C21.1,5,21.2,4.9,21.2,4.8z"/>
<path class="st101" d="M21,3.8c0,0,0.1,0,0.1,0c0.1,0.5,0,0.8-0.1,1.3c-0.1,0-0.1,0-0.2,0C20.9,4.6,21,4.2,21,3.8z"/>
<path class="st102" d="M22.1,14.1c0.1,0,0.1,0,0.2,0c0,0.1,0,0.2,0,0.3c0,0.1,0,0.1,0,0.2c0,0.1,0,0.1,0,0.2c0,0.1,0,0.1,0,0.2
	c-0.1,0.2-0.2,0.3-0.4,0.4c-0.1,0-0.1,0.1-0.2,0.1c-0.1,0-0.1,0.1-0.2,0.1c-0.1,0-0.1-0.1-0.2-0.1c0.1,0,0.1-0.1,0.2-0.1
	c0.1,0,0.1-0.1,0.2-0.1c0.1-0.1,0.1-0.1,0.2-0.1c0.2-0.1,0.2-0.1,0.2-0.3c0-0.1,0-0.1,0-0.2c0-0.1,0-0.1,0-0.2c0-0.1,0-0.1,0-0.2
	C22.1,14.3,22.1,14.2,22.1,14.1z"/>
<path class="st102" d="M16,2.9c0.1,0,0.2-0.1,0.4-0.1c0.1,0,0.1,0,0.2-0.1c0.4-0.1,0.6,0.1,0.9,0.2c0.1,0,0.1,0.1,0.2,0.1
	c0,0,0.1,0.1,0.1,0.1c-0.1,0.1-0.1,0.1-0.2,0.2c0,0-0.1-0.1-0.1-0.1C17.3,3.1,17,3,16.7,2.9C16.4,2.9,16.3,3,16,2.9
	C16,3,16,3,16,2.9z"/>
<path class="st103" d="M15.1,26.1c0.1,0.3,0,0.4-0.1,0.6c-0.1,0.2-0.2,0.4-0.3,0.7c0,0.1-0.1,0.1-0.1,0.2c0,0-0.1,0-0.1,0
	c0-0.2,0.1-0.4,0.2-0.6c0.1-0.2,0.2-0.4,0.3-0.6C15,26.2,15,26.2,15.1,26.1z"/>
<path class="st104" d="M18,8c0.5-0.1,0.9-0.3,1.4-0.4c0,0.1,0,0.1,0,0.2c-0.4,0.1-0.8,0.3-1.3,0.4C18.1,8.1,18,8.1,18,8z"/>
<path class="st105" d="M9.7,15.3c0,0.3-0.1,0.5-0.3,0.7c0,0.1-0.1,0.1-0.1,0.2c-0.1,0-0.1,0-0.2,0.1c0-0.3,0.1-0.4,0.2-0.6
	c0-0.1,0.1-0.1,0.1-0.2C9.5,15.3,9.5,15.3,9.7,15.3z"/>
<path class="st106" d="M9,8.8c0.1,0,0.1,0,0.2-0.1c0.2,0.4,0.3,0.6,0.1,1C9.3,9.8,9.3,9.8,9.3,9.8C9.2,9.5,9.1,9.1,9,8.8z"/>
<path class="st56" d="M12.1,20.8c0.1,0,0.1,0,0.2,0c0,0.1-0.1,0.2-0.1,0.4c0,0.1,0,0.1-0.1,0.2c-0.1,0.2-0.1,0.2-0.3,0.3
	c0-0.3,0-0.4,0.2-0.6c0-0.1,0.1-0.1,0.1-0.2C12,20.9,12,20.9,12.1,20.8z"/>
<path class="st107" d="M23.3,3.6c0.3,0.1,0.4,0.2,0.6,0.4c0.1,0.2,0.1,0.2,0.1,0.4c0,0.1,0,0.1,0.1,0.2c0,0.1,0,0.1,0,0.2
	c0,0,0,0-0.1,0c0-0.1-0.1-0.1-0.1-0.2C23.7,4.3,23.5,4,23.3,3.6z"/>
<path class="st72" d="M16.6,2c0.1,0.1,0.2,0.2,0.3,0.3c-0.3,0.1-0.6,0.1-0.9,0.2C16.4,2.1,16.4,2.1,16.6,2z"/>
<path class="st108" d="M16,4.8c0.2,0.2,0.2,0.3,0.2,0.6c0,0.1,0,0.2,0,0.2c0,0.2-0.1,0.3-0.2,0.5c0-0.3,0-0.5-0.1-0.8
	c0-0.1,0-0.1,0-0.2c0-0.1,0-0.1,0-0.2C16,4.8,16,4.8,16,4.8z"/>
<path class="st109" d="M12.2,11.4c0.1,0,0.1,0,0.2-0.1c0,0.1,0,0.2,0,0.3c0,0.1,0,0.1,0,0.2c0,0.2,0,0.2-0.1,0.3
	c-0.1,0-0.1,0-0.1,0.1c0-0.1,0-0.2,0-0.4c0-0.1,0-0.1,0-0.2C12.1,11.5,12.1,11.5,12.2,11.4z"/>
<path class="st110" d="M11.3,5c0.1,0,0.1,0,0.2-0.1c0.1,0,0.1,0,0.2-0.1c0.1,0,0.1,0,0.2-0.1c0.2,0,0.3-0.1,0.5-0.1
	c0,0,0.1,0.1,0.1,0.1c-0.1,0-0.1,0-0.2,0.1c-0.5,0.1-1,0.3-1.5,0.5C10.9,5.2,11,5.1,11.3,5z"/>
<path class="st111" d="M19.2,23.2c0.1,0.3,0.2,0.7,0.4,1c-0.3-0.2-0.3-0.2-0.5-0.5c0-0.1-0.1-0.1-0.1-0.2c0,0,0-0.1-0.1-0.1
	C19.1,23.2,19.1,23.2,19.2,23.2z"/>
<path class="st112" d="M23.7,15.1c0,0,0.1,0,0.1,0c-0.1,0.2-0.1,0.3-0.2,0.5c-0.2,0-0.3,0-0.5,0c0,0,0.1-0.1,0.1-0.1
	c0.1-0.1,0.1-0.1,0.2-0.3C23.5,15.2,23.5,15.2,23.7,15.1z"/>
<path class="st113" d="M24,13.7c0.1,0,0.1,0,0.2-0.1c0.1,0.5,0.1,0.5,0,0.8c0,0.1-0.1,0.1-0.1,0.2C24,14.3,24,14,24,13.7z"/>
<path class="st114" d="M11.9,16.9c0.4,0,0.4,0,0.8,0.1c-0.1,0.1-0.1,0.2-0.2,0.4c-0.2-0.1-0.4-0.2-0.6-0.3
	C11.9,17,11.9,16.9,11.9,16.9z"/>
<path class="st115" d="M11,13c0.3-0.1,0.6-0.2,0.9-0.3c-0.1,0.3-0.1,0.3-0.2,0.4c0-0.1,0-0.1-0.1-0.2c-0.2,0.1-0.5,0.2-0.7,0.4
	C11,13.2,11,13.1,11,13z"/>
<path class="st116" d="M10.6,12.2c0,0,0,0.1,0,0.1c-0.3,0.2-0.6,0.3-1,0.4C9.8,12.5,10.2,12.3,10.6,12.2z"/>
<path class="st117" d="M16,23.7c0,0.1,0.1,0.1,0.1,0.2c-0.1,0.3-0.1,0.5-0.4,0.7c-0.1,0.1-0.1,0.2-0.2,0.3c0-0.3,0.1-0.5,0.3-0.8
	c0-0.1,0.1-0.2,0.1-0.2C16,23.8,16,23.7,16,23.7z"/>
<path class="st118" d="M9.1,8C9.1,8,9.1,8,9.1,8c0.2,0.3,0.2,0.3,0.2,0.5C9.2,8.7,9.2,8.7,9.1,8.8C9,8.7,9,8.7,9,8.5
	C9,8.3,9,8.3,9.1,8z"/>
<path class="st119" d="M16.8,20c0.1,0.2,0.1,0.2,0.1,0.4c0,0.2,0,0.3,0.1,0.4c-0.1,0.1-0.2,0.1-0.3,0.2C16.7,20.6,16.7,20.2,16.8,20
	z"/>
<path class="st120" d="M17.4,22.8c0,0,0.1,0,0.1,0c0.1,0.2,0.2,0.4,0.3,0.6c0.1,0,0.1,0,0.2-0.1c0,0,0,0.1,0,0.1
	c-0.1,0-0.2,0.1-0.3,0.1C17.4,23,17.4,23,17.4,22.8z"/>
<path class="st121" d="M12.2,13c0,0,0.1,0.1,0.1,0.1c0,0,0.1,0,0.1,0c0-0.1,0-0.1,0-0.2c0.1,0.2,0.1,0.2,0.1,0.5
	c-0.1,0.1-0.1,0.2-0.2,0.3C12.4,13.5,12.3,13.3,12.2,13z"/>
<path class="st122" d="M22.4,3.2c0.1,0,0.2,0.1,0.3,0.1c0.1,0,0.1,0,0.2,0.1c0.3,0.1,0.4,0.2,0.6,0.5c-0.3-0.1-0.5-0.2-0.7-0.4
	c0,0-0.1-0.1-0.1-0.1c0,0-0.1,0-0.1-0.1C22.4,3.2,22.4,3.2,22.4,3.2z"/>
<path class="st123" d="M16.5,18.2c0.1,0,0.1,0,0.2,0c0.1,0.3,0.2,0.6,0.2,0.9c0,0,0,0-0.1,0C16.7,18.8,16.6,18.5,16.5,18.2z"/>
<path class="st124" d="M23.3,15.8c-0.1,0.2-0.3,0.4-0.5,0.5c-0.1,0-0.1,0-0.2,0.1c0-0.1,0-0.1,0.1-0.3C22.8,15.9,23,15.9,23.3,15.8z
	"/>
<path class="st125" d="M9.7,17.7c0.1,0.2,0.1,0.2-0.1,0.4c0,0.1-0.1,0.1-0.1,0.2c-0.1-0.2-0.1-0.2,0.1-0.4
	C9.6,17.9,9.6,17.8,9.7,17.7z M9.3,18.3c0.1,0,0.1,0,0.2,0c-0.2,0.3-0.2,0.3-0.3,0.5C9.1,18.7,9.1,18.6,9.3,18.3z"/>
<path class="st126" d="M12,16.6c0.1,0,0.1,0,0.3,0c0.2,0.2,0.2,0.2,0.4,0.3c-0.3,0-0.5,0-0.7-0.2C12,16.7,12,16.7,12,16.6z"/>
<path class="st127" d="M5.9,14.5c0.1,0,0.2-0.1,0.2-0.1c0.1,0,0.1,0,0.1,0c0.1,0,0.1,0,0.5,0c-0.2,0-0.4,0.1-0.6,0.1
	c0,0.1,0.1,0.2,0.1,0.3c-0.1,0-0.2,0-0.4,0C5.9,14.7,5.9,14.6,5.9,14.5z"/>
<path class="st128" d="M21.1,2.6c0.1,0,0.2,0.1,0.3,0.1c0.1,0,0.1,0,0.2,0.1c0.1,0.1,0.1,0.1,0.2,0.2C21.4,3,21.4,3,21.2,3
	C21.2,2.9,21.2,2.7,21.1,2.6z"/>
<path class="st129" d="M11,11.9c0,0.1,0,0.1,0,0.2c-0.3,0.1-0.6,0.2-0.9,0.3C10.2,12.1,10.7,12,11,11.9z"/>
<path class="st130" d="M23.5,4c0.3,0.1,0.3,0.3,0.5,0.5c0,0.1,0,0.1,0.1,0.2c0,0.1,0,0.1,0.1,0.2C24,5,24,5,23.9,5.1
	c0-0.1,0-0.1-0.1-0.2c0-0.1-0.1-0.1-0.1-0.2c0-0.1-0.1-0.1-0.1-0.2C23.6,4.3,23.5,4.2,23.5,4z"/>
<path class="st131" d="M10,12.7C10,12.7,10,12.7,10,12.7c-0.3,0.2-0.7,0.3-1.1,0.4C9.2,12.8,9.6,12.7,10,12.7z"/>
<path class="st132" d="M8.9,8.7C9.2,9,9.2,9.2,9.3,9.5c0,0,0,0-0.1,0C9.1,9.5,9.1,9.3,9,9.2C9,9.3,8.9,9.4,8.8,9.5
	C8.9,9.3,8.9,9,8.9,8.7z"/>
<path class="st133" d="M20.6,20c0.1,0,0.1,0,0.2,0c-0.1,0.2-0.2,0.4-0.3,0.6c0-0.1-0.1-0.1-0.1-0.2C20.5,20.3,20.6,20.1,20.6,20z"/>
<path class="st134" d="M23.1,16.2c0.1,0,0.1,0,0.2,0c-0.2,0.3-0.3,0.5-0.7,0.7C22.9,16.3,22.9,16.3,23.1,16.2z"/>
<path class="st135" d="M16.2,4.9C16.3,5,16.3,5,16.3,5.1c0,0.1,0,0.1,0,0.2c0,0.1,0,0.1,0,0.2c0,0.2,0,0.2-0.1,0.3
	c-0.1-0.5-0.1-0.5-0.1-0.8C16.1,4.9,16.2,4.9,16.2,4.9z"/>
<path class="st136" d="M18.2,25.1c0.2,0.1,0.2,0.1,0.4,0.3c0,0.2,0,0.2,0,0.4c0,0-0.1,0-0.1,0c0-0.1-0.1-0.1-0.1-0.2
	c-0.1-0.2-0.1-0.2-0.3-0.3C18.1,25.2,18.2,25.2,18.2,25.1z"/>
<path class="st137" d="M15.7,3.2c0,0,0.1,0,0.1,0c-0.1,0.1-0.2,0.2-0.3,0.3c-0.1,0.1-0.1,0.1-0.2,0.2c0,0-0.1,0.1-0.1,0.1
	c-0.1,0-0.1,0-0.2,0c0.1-0.1,0.1-0.2,0.2-0.3c0-0.1,0.1-0.1,0.1-0.2C15.5,3.2,15.5,3.2,15.7,3.2z"/>
<path class="st138" d="M16.3,2.6c0.1,0,0.2,0,0.2-0.1c0.1,0,0.1,0,0.2,0c0,0.1,0,0.1,0,0.2c0,0-0.1,0-0.1,0
	c-0.3,0.1-0.6,0.2-0.9,0.4C15.8,2.8,15.9,2.7,16.3,2.6z"/>
<path class="st139" d="M17,22c0.2,0.2,0.2,0.4,0.3,0.7c-0.1,0-0.1,0-0.2,0.1c0-0.1-0.1-0.2-0.1-0.3c-0.1,0-0.1,0-0.2,0
	c0.1,0,0.1-0.1,0.2-0.1C17,22.1,17,22,17,22z"/>
<path class="st140" d="M23.9,4c0.3,0.1,0.3,0.1,0.4,0.3c0,0.1,0,0.1,0,0.2c-0.1,0.1-0.1,0.1-0.2,0.2C24.1,4.4,24,4.2,23.9,4z"/>
<path class="st141" d="M15.9,4.6c0,0,0.1,0,0.1,0c0,0.1,0,0.2,0,0.3c0,0-0.1,0-0.1,0c0,0,0,0.1,0,0.1c0,0.1,0,0.1,0,0.2
	c-0.1,0.1-0.1,0.1-0.1,0.1c0-0.2-0.1-0.4-0.1-0.6c0.1,0,0.1,0,0.2,0C15.9,4.7,15.9,4.6,15.9,4.6z"/>
<path class="st142" d="M18.2,23.2c0.2,0,0.5-0.1,0.7-0.1c0,0.1,0,0.1-0.1,0.2C18.6,23.4,18.5,23.4,18.2,23.2z"/>
<path class="st143" d="M12.4,5.4c0.2,0,0.3,0.1,0.5,0.2c-0.1,0.1-0.1,0.1-0.2,0.2C12.6,5.6,12.5,5.5,12.4,5.4z"/>
<path class="st144" d="M17.8,25.5c0.1,0,0.1,0,0.2,0c0,0.1-0.1,0.2-0.1,0.3c0,0.1,0,0.1,0,0.2c0,0,0,0.1-0.1,0.1c0,0-0.1,0-0.1,0
	C17.7,25.9,17.7,25.7,17.8,25.5z"/>
<path class="st145" d="M13.5,16.5c0.1,0.1,0.2,0.3,0.2,0.5c0,0.1,0,0.1,0.1,0.2c0,0,0,0.1,0,0.1c-0.1,0-0.1,0-0.2,0.1
	c-0.1-0.2-0.1-0.5-0.2-0.7C13.5,16.5,13.5,16.5,13.5,16.5z"/>
<path class="st146" d="M12.4,10.3c0.2,0.2,0.1,0.3,0.1,0.6c0,0-0.1,0-0.1,0c-0.1-0.2-0.1-0.2-0.1-0.4C12.3,10.4,12.4,10.3,12.4,10.3
	z"/>
<path class="st66" d="M12.5,6.1c0.1,0,0.1,0,0.2,0c-0.2,0.2-0.3,0.4-0.6,0.6c0,0,0-0.1,0-0.1c0.1-0.1,0.1-0.1,0.2-0.2
	c0,0,0.1-0.1,0.1-0.1C12.4,6.2,12.5,6.2,12.5,6.1z"/>
<path class="st147" d="M16.2,4.1c0.1,0,0.1,0.1,0.2,0.1c-0.1,0.2-0.1,0.3-0.2,0.5c0-0.1-0.1-0.1-0.1-0.2c-0.1,0-0.1,0-0.2,0
	c0,0,0.1-0.1,0.1-0.1C16.2,4.2,16.2,4.2,16.2,4.1z"/>
<path class="st148" d="M11.5,4.4c0.2-0.1,0.3,0,0.6,0.1c-0.2,0-0.5,0.1-0.7,0.1C11.4,4.6,11.5,4.5,11.5,4.4z"/>
<path class="st149" d="M22.3,13.9c0,0.1,0.1,0.1,0.1,0.2c0,0.2,0,0.2-0.1,0.4c-0.1,0-0.1,0-0.2,0C22.2,14.2,22.2,14.1,22.3,13.9z"/>
<path class="st109" d="M16.2,14c0,0.1,0,0.1,0.1,0.2c-0.1,0.1-0.3,0.3-0.4,0.4c0-0.1,0-0.1,0-0.3C16.1,14.1,16.1,14.1,16.2,14z"/>
<path class="st150" d="M18,8c0.2-0.1,0.4-0.1,0.6-0.2c0,0,0,0.1,0,0.1c-0.2,0.1-0.3,0.2-0.5,0.2C18.1,8.1,18,8.1,18,8z"/>
<path class="st151" d="M11.8,5C11.9,5,12,5.1,12.1,5.1C12.1,5.2,12,5.3,12,5.3c-0.1-0.1-0.2-0.1-0.4-0.2C11.7,5.1,11.7,5,11.8,5z"/>
<path class="st152" d="M17,19.8c0,0,0.1,0,0.1,0c0,0.2,0.1,0.3,0.1,0.5c-0.1,0.1-0.1,0.1-0.1,0.1C16.9,19.9,16.9,19.9,17,19.8z"/>
<path class="st153" d="M16.9,18.8C16.9,18.8,16.9,18.8,16.9,18.8c0.1,0.2,0.2,0.3,0.2,0.5c-0.1,0-0.2,0.1-0.2,0.1c0-0.1,0-0.2,0-0.3
	c0,0,0,0,0.1,0C16.9,19,16.9,18.9,16.9,18.8z"/>
<path class="st154" d="M15.6,17.6c0.2,0,0.2,0,0.4-0.1c0,0.1,0,0.1,0,0.2c-0.2,0-0.3,0-0.5,0C15.5,17.7,15.6,17.7,15.6,17.6z"/>
<path class="st155" d="M5.9,17.1c0.1,0,0.1,0,0.2,0c-0.1,0.4-0.1,0.4-0.2,0.5c-0.1,0-0.1,0-0.2,0.1C5.6,17.4,5.7,17.3,5.9,17.1z"/>
<path class="st156" d="M21.2,4.8c0.2,0.2,0.2,0.2,0.2,0.3c-0.2,0-0.3,0.1-0.5,0.1C21,5.1,21.1,5,21.2,4.8z"/>
<path class="st157" d="M23.3,3.6c0.2,0,0.2,0,0.3,0.1C23.7,4,23.7,4,23.7,4.2c-0.2-0.1-0.3-0.1-0.4-0.3C23.3,3.7,23.3,3.7,23.3,3.6z
	"/>
<path class="st158" d="M16.6,2c0.1,0.1,0.1,0.2,0.2,0.2c-0.2,0-0.4,0.1-0.6,0.1C16.4,2.1,16.4,2.1,16.6,2z"/>
<path class="st110" d="M9,8.8c0.1,0,0.1,0,0.2-0.1c0,0.2,0.1,0.4,0.1,0.6c0,0-0.1,0-0.1,0C9.1,9.2,9.1,9,9,8.8z"/>
<path class="st30" d="M11.7,7.3c0,0.1,0,0.2,0,0.3c-0.1,0-0.2,0.1-0.2,0.1c0-0.1,0-0.1,0-0.3C11.5,7.3,11.5,7.3,11.7,7.3z"/>
<path class="st159" d="M17.1,2.8c0.2,0,0.2,0,0.4,0C17.7,3,17.7,3,17.8,3.2c-0.1,0-0.2-0.1-0.3-0.1c-0.1,0-0.1,0-0.2-0.1
	C17.2,3,17.2,2.9,17.1,2.8C17.1,2.9,17.1,2.9,17.1,2.8z"/>
</svg>
