<?xml version="1.0" encoding="UTF-8"?>
<svg id="Layer_2" data-name="Layer 2" xmlns="http://www.w3.org/2000/svg" xmlns:xlink="http://www.w3.org/1999/xlink" viewBox="0 0 20.47 20.47">
  <defs>
    <style>
      .cls-1 {
        fill: #fff;
      }

      .cls-2, .cls-3 {
        fill: none;
      }

      .cls-3 {
        clip-path: url(#clippath);
      }

      .cls-4 {
        fill: #010101;
      }
    </style>
    <clipPath id="clippath">
      <rect class="cls-2" width="20.47" height="20.47"/>
    </clipPath>
  </defs>
  <g id="Layer_1-2" data-name="Layer 1">
    <path class="cls-1" d="m19.97,10.29c0,5.29-4.29,9.58-9.58,9.58S.81,15.58.81,10.29,5.1.71,10.39.71s9.58,4.29,9.58,9.58"/>
    <path class="cls-1" d="m.52,10.33C.52,4.94,4.89.57,10.29.57s9.77,4.37,9.77,9.76-4.37,9.77-9.77,9.77S.52,15.73.52,10.33"/>
    <g class="cls-3">
      <path class="cls-4" d="m15.33,11.37c-.17-.18-.45-.32-.31-.62.08-.14.23-.15.38-.16,0,0,0,0,0,0,.32-.08.71.1,1.04.14.84.23,1.64.56,2.4.99-.12.68-.31,1.34-.58,1.96-.91-.88-1.91-1.62-2.92-2.31m-1.24,6.67c-.65-1.2-1.44-2.33-2.37-3.42.01,0,.02,0,.03,0-.04-.05-.08-.1-.12-.15.25.04.52.2.79.29.27.09.56.13.84.19.05.01.1.03.15.04.36.17.26.83.6,1.12.12.01.23.19.34.1,0,0,0,0,0-.01.11-.09-.07-.14-.05-.23.06-.21-.18-.3-.19-.48,0-.04,0-.09.04-.14.17.11.31.38.55.44.06.04.11.09.18.09,0,0,0-.02,0-.02.03-.08-.01-.14-.06-.21-.02-.04-.05-.09-.08-.13-.02-.04-.02-.08-.01-.13-.06-.13-.2-.15-.26-.23,0,0,0,0,0-.01.17-.15.35.11.52.18.03.18.24.12.29.28.06-.03.07-.08.05-.13-.01-.05-.04-.09-.05-.14-.09-.05-.03-.16-.09-.23-.09-.18-.32-.06-.38-.25.02-.01.04-.02.06-.03.2-.05.21.25.45.18.04.05.07.13.12.16h0c.02-.08.03-.2,0-.3v-.02s-.05-.08-.08-.1c0,0,0,0-.01-.01h0c-.05-.02-.11-.03-.17-.05-.23-.15-.38-.57-.66-.17-.53.27-.59-.41-.95-.63-.22-.27-.5-.36-.74-.57,0-.01.01-.03.02-.04.08-.12.33-.02.47-.01.5.09.97.26,1.41.49.89.4,1.68,1.02,2.37,1.8-.81,1.04-1.85,1.89-3.04,2.47m-6.41.49c.48-1.21,1.14-2.36,1.82-3.45,0,.04-.02.09-.02.13-.24,1.22-.58,2.4-1.02,3.53-.26-.06-.52-.12-.78-.2m-1.97-4.77c.44-.23.91-.39,1.41-.49.15-.01.4-.1.48.01,0,0,.01.02.02.04-.24.21-.52.31-.74.57-.36.23-.41.9-.95.63-.28-.4-.42.01-.65.17-.06.02-.12.03-.17.05h0s0,0-.01.01c-.03.02-.06.05-.08.1v.02c-.03.1-.02.22,0,.3h0s.08-.1.12-.15c.24.07.25-.24.45-.18.02,0,.03.01.06.03-.06.19-.28.07-.38.25-.06.07,0,.18-.09.23-.02.04-.04.09-.05.14-.01.05,0,.1.05.13.06-.16.26-.1.29-.28.17-.07.35-.33.52-.18,0,0,0,0,.01.01-.07.09-.21.11-.27.23.01.05,0,.09-.01.13-.03.04-.06.08-.08.13-.05.07-.09.13-.06.21,0,0,0,.01,0,.02.07,0,.12-.05.18-.09.24-.07.39-.33.55-.44.03.05.04.1.04.14.02.06.02.14,0,.19-.24.12-.11.37-.24.52,0,0,0,0,0,.01.11.09.22-.09.34-.1.33-.29.24-.95.6-1.12.05-.01.1-.03.15-.04.28-.07.57-.11.84-.19.27-.09.54-.25.79-.29-.04.05-.08.1-.12.15.01,0,.02,0,.03,0-.92,1.08-1.7,2.21-2.35,3.39-1.19-.59-2.22-1.45-3.01-2.49.68-.76,1.47-1.37,2.34-1.76m-4.01-2.08c.74-.41,1.52-.73,2.34-.95.33-.03.71-.22,1.04-.14,0,0,0,0,0,0,.15,0,.29.02.38.16.14.31-.15.45-.32.62-.99.68-1.98,1.4-2.88,2.26-.26-.62-.45-1.27-.57-1.95m2.52-3.29v.03c-.91.23-1.76.6-2.6,1.02.04-.39.1-.77.18-1.15.81-.15,1.71-.13,2.47.08-.02,0-.04.01-.07.02,0,0,.01,0,.02,0m.16-2.55c.04.08-.05.14-.11.15-.01,0-.03,0-.05,0-.55.09-1.16.2-1.71.33.12-.23.24-.45.38-.67.51-.08,1.08-.08,1.49.19m.15-2.13c.41.08.78.25,1.12.48.07.06.02.16,0,.23l-.11.07s-.01,0-.02,0c0,0,0,0,0,0-.58.07-1.25.02-1.85.1.26-.31.55-.6.86-.87m5.79,2.25s-.05,0-.07,0c-.19.02-.37.08-.52.14.01-.15.31-.22.52-.17.03,0,.05.02.07.02m1.71,12.78c-.45-1.13-.79-2.32-1.03-3.54,0-.04-.02-.09-.02-.13.69,1.1,1.34,2.25,1.83,3.47-.26.08-.51.14-.78.2m.26-12.76c.13.09.26.17.44.16.16.06.28.23.36.38.11.46-.34.75-.66.98-.16-.02-.25-.25-.34-.36-.06-.08-.12-.16-.17-.26-.14-.26-.24-.57-.38-.83-.17-.33-.46-.6-.87-.6-.14,0-.28.01-.42.02-.42.03-.82.1-1.03.49-.09.01-.18.04-.26.09-.16.09-.31.22-.4.38-.05.12-.08.29-.02.41.01.01.02.02.03.03.1.1.22.18.34.24.06-.09.02-.25.16-.27.18.01.5-.2.55.11.06.28,0,.47-.14.69-.42.34-1,.07-1.39-.13-.01,0-.02-.02-.03-.03-.32-.23-.77-.52-.66-.98.08-.15.2-.32.36-.38.18,0,.31-.07.44-.16.32-.41.02-.93-.09-1.33-.25-.59-.7-1.05-1.21-1.43-.29-.22-.59-.41-.88-.58,1.26-.71,2.7-1.11,4.25-1.11s2.97.39,4.21,1.09c-.3.18-.61.38-.91.6-.5.38-.96.84-1.21,1.43-.11.4-.41.92-.09,1.33m2.68-1.5h0s-.01,0-.02,0l-.11-.07c-.02-.07-.07-.17,0-.23.34-.23.71-.4,1.13-.48.02,0,.03,0,.05-.01.31.28.61.58.88.9-.62-.1-1.31-.04-1.93-.11m3.08,1.85c-.57-.14-1.21-.25-1.79-.35-.01,0-.03,0-.05,0-.06,0-.15-.07-.11-.15.43-.28,1.04-.28,1.57-.18.14.22.26.45.38.68m-1.83,2.03c.78-.21,1.71-.23,2.54-.07.09.38.15.77.18,1.17-.86-.43-1.74-.81-2.67-1.05v-.03s0,0,.01,0c-.02,0-.04-.01-.06-.02M10.23,0C4.58,0,0,4.58,0,10.24s4.58,10.23,10.23,10.23,10.23-4.58,10.23-10.23S15.88,0,10.23,0"/>
    </g>
  </g>
</svg>