<?xml version="1.0" encoding="utf-8"?>
<!-- Generator: Adobe Illustrator 27.7.0, SVG Export Plug-In . SVG Version: 6.00 Build 0)  -->
<svg version="1.1" id="Layer_1" xmlns="http://www.w3.org/2000/svg" xmlns:xlink="http://www.w3.org/1999/xlink" x="0px" y="0px"
	 viewBox="0 0 30 30" style="enable-background:new 0 0 30 30;" xml:space="preserve">
<style type="text/css">
	.st0{fill:#EC1F36;}
	.st1{clip-path:url(#SVGID_00000146496455081303728310000002495751608838589353_);}
	.st2{fill:#0751A0;}
	.st3{fill:#231F20;}
</style>
<g id="Layer_1-2">
	<path class="st0" d="M29,15.1c0,7.6-6.2,13.8-13.8,13.8S1.4,22.7,1.4,15.1S7.6,1.3,15.2,1.3S29,7.5,29,15.1"/>
	<g>
		<defs>
			<rect id="SVGID_1_" x="0.3" y="0.3" width="29.5" height="29.5"/>
		</defs>
		<clipPath id="SVGID_00000176761370901921173200000013071241049871982256_">
			<use xlink:href="#SVGID_1_"  style="overflow:visible;"/>
		</clipPath>
		<g style="clip-path:url(#SVGID_00000176761370901921173200000013071241049871982256_);">
			<path class="st2" d="M15,27.5C8.1,27.5,2.5,21.9,2.5,15S8.1,2.5,15,2.5S27.6,8.1,27.6,15S22,27.5,15,27.5 M15,0.3
				C6.9,0.3,0.3,6.9,0.3,15S6.9,29.7,15,29.7S29.7,23.1,29.7,15S23.1,0.3,15,0.3"/>
		</g>
	</g>
	<path class="st3" d="M24.6,15.8c-1.2-1.1-5.3-1.5-6.6-1.6c1.7,0,5.4,0,6.6-1c0.6-2.5-3.2-7.2-7.2-8.7c-0.4-0.1-0.4,0.3-0.1,0.4
		c2.4,1.3,6,5.7,5.7,7.6c-2.3,0.9-4.2,0.9-5.7,1c1.4-0.3,3.4-0.9,4.3-1.8c0.3-1.5-2.5-5.3-5-5.9c-0.4-0.1-0.4,0.2-0.1,0.4
		c0.2,0.2,4,3.3,3.6,5.3c-0.4,0.3-2.5,1.4-3.4,1.4c0.1-0.2,0.1-0.4,0.1-0.6c0-0.1,0-0.1,0,0c0-0.2,0-0.4,0-0.6C16.8,10.2,16,9,15,9
		s-1.8,1.2-1.8,2.7c0,0.2,0,0.4,0,0.6l0,0c0,0.2,0.1,0.4,0.1,0.6c-0.9,0-2.9-1.1-3.4-1.4c-0.4-2,3.4-5.1,3.6-5.3
		c0.2-0.2,0.2-0.5-0.1-0.4c-2.5,0.6-5.3,4.4-5,5.9c0.9,0.9,2.9,1.5,4.3,1.8c-1.5,0-3.4-0.1-5.7-1c-0.3-1.9,3.3-6.3,5.7-7.6
		C13,4.8,13,4.4,12.6,4.5c-4,1.5-7.7,6.2-7.2,8.7c1.1,1,4.9,1,6.6,1c-1.3,0.1-5.4,0.5-6.6,1.6c-0.2,2.3,0.8,7.5,4,8.6
		c0.4,0.1,0.4-0.2,0.1-0.4c-1.8-1.7-2.7-5.6-2.2-7.7c0.7-0.5,3.8-1.2,4.9-1.3c-0.8,0.4-2.6,0.6-3.6,1.6c-0.7,1.5,1.4,7.4,3.8,8.1
		c0.4,0.1,0.5-0.2,0.1-0.4c-1.1-0.9-2.8-4.8-2.5-7.3c0.4-0.2,2-1.4,2.7-1.6c-0.5,1-1,2.2-1,3.5c0,2.1,1.6,5.4,3.1,5.4
		s3.1-3.2,3.1-5.4c0-1.3-0.4-2.5-1-3.5c0.7,0.2,2.3,1.3,2.7,1.6c0.3,2.4-1.3,6.4-2.5,7.3c-0.3,0.2-0.2,0.6,0.1,0.4
		c2.4-0.8,4.5-6.7,3.8-8.1c-1-1-2.8-1.3-3.6-1.6c1.1,0.1,4.2,0.8,4.9,1.3c0.4,2-0.4,6-2.2,7.7c-0.2,0.2-0.3,0.6,0.1,0.4
		C23.7,23.4,24.7,18.1,24.6,15.8"/>
</g>
</svg>
