<?xml version="1.0" encoding="UTF-8"?>
<svg id="Layer_2" data-name="Layer 2" xmlns="http://www.w3.org/2000/svg" xmlns:xlink="http://www.w3.org/1999/xlink" viewBox="0 0 20.16 20.16">
  <defs>
    <style>
      .cls-1, .cls-2 {
        fill: none;
      }

      .cls-2 {
        clip-path: url(#clippath);
      }

      .cls-3 {
        fill: #ed1b34;
      }

      .cls-4 {
        fill: #034ea2;
      }

      .cls-5 {
        fill: #231f20;
      }
    </style>
    <clipPath id="clippath">
      <rect class="cls-1" width="20.16" height="20.16"/>
    </clipPath>
  </defs>
  <g id="Layer_1-2" data-name="Layer 1">
    <path class="cls-3" d="m19.67,10.13c0,5.21-4.23,9.44-9.44,9.44S.8,15.34.8,10.13,5.02.7,10.23.7s9.44,4.23,9.44,9.43"/>
    <g class="cls-2">
      <path class="cls-4" d="m10.11,18.64c-4.73,0-8.56-3.83-8.56-8.56S5.39,1.52,10.11,1.52s8.56,3.83,8.56,8.56-3.83,8.56-8.56,8.56m-.03-18.64C4.51,0,0,4.51,0,10.08s4.51,10.08,10.08,10.08,10.08-4.51,10.08-10.08S15.65,0,10.08,0"/>
    </g>
    <path class="cls-5" d="m16.61,10.61c-.83-.75-3.59-1.01-4.52-1.08,1.15.01,3.72.02,4.49-.67.39-1.72-2.21-4.9-4.91-5.94-.26-.1-.26.2-.1.29,1.62.91,4.11,3.9,3.9,5.2-1.54.59-2.88.64-3.88.68.95-.22,2.33-.64,2.93-1.26.19-1.04-1.72-3.64-3.44-4.06-.27-.07-.27.17-.1.29.16.11,2.76,2.23,2.47,3.63-.28.23-1.71.99-2.29.99.04-.13.08-.26.1-.4t0,0c.02-.14.03-.29.03-.44,0-1.02-.55-1.85-1.22-1.85s-1.22.83-1.22,1.85c0,.15.01.3.03.44h0c.02.14.06.28.1.41-.59,0-2.01-.76-2.29-.99-.29-1.4,2.31-3.52,2.47-3.63.17-.12.17-.36-.1-.29-1.72.42-3.64,3.02-3.44,4.06.6.62,1.98,1.04,2.93,1.26-1-.03-2.33-.08-3.88-.68-.22-1.3,2.27-4.29,3.9-5.2.17-.09.16-.39-.1-.29-2.7,1.04-5.29,4.22-4.9,5.94.77.69,3.34.68,4.48.67-.92.07-3.68.34-4.52,1.08-.13,1.56.57,5.16,2.7,5.85.3.1.24-.16.1-.29-1.23-1.14-1.82-3.83-1.53-5.23.51-.36,2.6-.82,3.37-.9-.57.26-1.81.42-2.49,1.12-.45,1.01.97,5.04,2.63,5.55.26.08.31-.13.1-.29-.78-.59-1.92-3.3-1.69-4.97.28-.16,1.35-.95,1.86-1.06-.37.68-.66,1.52-.66,2.39,0,1.46,1.12,3.67,2.14,3.67s2.14-2.21,2.14-3.67c0-.87-.29-1.72-.66-2.39.51.11,1.58.91,1.86,1.06.23,1.67-.91,4.38-1.69,4.97-.22.16-.17.38.1.29,1.66-.52,3.09-4.55,2.63-5.55-.68-.7-1.92-.86-2.49-1.12.77.08,2.86.54,3.37.9.29,1.4-.29,4.09-1.53,5.23-.14.13-.21.39.1.29,2.12-.68,2.83-4.29,2.7-5.85"/>
  </g>
</svg>