<?xml version="1.0" encoding="utf-8"?>
<!-- Generator: Adobe Illustrator 27.7.0, SVG Export Plug-In . SVG Version: 6.00 Build 0)  -->
<svg version="1.1" id="Layer_1" xmlns="http://www.w3.org/2000/svg" xmlns:xlink="http://www.w3.org/1999/xlink" x="0px" y="0px"
	 viewBox="0 0 30 30" style="enable-background:new 0 0 30 30;" xml:space="preserve">
<style type="text/css">
	.st0{clip-path:url(#SVGID_00000013189188419414014250000014035887460647951238_);}
	.st1{fill:#024F34;}
	.st2{fill:#3DB54A;}
</style>
<g id="Layer_1-2">
	<g>
		<defs>
			<rect id="SVGID_1_" x="0.2" y="0.7" width="29.6" height="28.6"/>
		</defs>
		<clipPath id="SVGID_00000173849850464063543140000000448413525590261161_">
			<use xlink:href="#SVGID_1_"  style="overflow:visible;"/>
		</clipPath>
		<g style="clip-path:url(#SVGID_00000173849850464063543140000000448413525590261161_);">
			<path class="st1" d="M27.5,8.1L22.1,9l-2.4-0.8c0,0-2.5-3.7-2.4-3.7c0.1,0-1.7-0.8-1.6-0.9c-0.1,0-2.8,0.3-2.8,0.3l-2,2.4
				l-0.5,0.2c0,0-4.2-0.5-6.1-0.4h0c0,0-0.2,0-0.2,0L0.7,6.6L0.2,8.9L1,10.6l0.1,1.6l-0.7,2.1l0.1,1.6L2.9,17c0,0,1,2.1,1,2.2
				s0.2,2.5,0.2,2.5l0.9,0.8l2.3,0.3l0.9,2.5l2,0.8l2.3-0.3l2.5-0.2c0,0,2.5-1.6,2.6-1.6c0.1,0,2.7-2.4,2.7-2.4l1.2-0.1l3.1,0.3
				l1-0.4l1.2,0.1h1.1c0,0,2.1-1.9,2-6.4c-0.1-4.5-1.3-7-1.3-7"/>
		</g>
	</g>
	<path class="st2" d="M24,16.5L23.4,16l-0.2-2.6l-0.9,1.8L21.9,11c0,0-0.9-0.9-0.8-0.9c0,0,3.7-0.5,6.7-1c0.2,0.7,0.4,1.3,0.5,2
		l-3.1,0.7l1,0.4l2.3,0c0.1,0.6,0.1,1.1,0.1,1.7c0,0.8-0.1,1.7-0.2,2.4C26.2,16.4,24,16.5,24,16.5 M27.6,19.4L26,19.2l-0.6-1.8
		l2.7,0C28,18.1,27.8,18.7,27.6,19.4 M13.4,14l-0.7-1.4L12,7.9l-1.7-0.5l1.1-0.1l2-2.4l2-0.1c0,0,1.2,2,1.2,2.1
		c0,0.1-2.8,0.4-2.8,0.4L17,7.5l0.1,5.8l-0.3,0.8C16.8,14.1,13.4,14,13.4,14z M4.5,17c0,0,2.6-0.2,2.7-0.3c0.1-0.1,3.5-0.9,3.5-1
		s1.4,1.3,1.3,1.3L12,18.4l-2.3,1.1l-1.4,0.7l0.2,0.6v0.1c0,0,0.7,0.3,0.7,0.4c0,0,4-2.7,4-2.8c0-0.1,0.9,0.1,0.9,0.1l0.9,1.2l0,1.4
		l-3.9,3.5l-0.7,0.2l-1.6-0.3l-0.4-1.8l-0.3-1.1l-2.6-0.3l-0.5-0.4l-0.1-2.1L4.2,17L4.5,17L4.5,17z M2,10.4L1.5,8.8l0.4-1.2l3.5-0.5
		l4.2,0.8l0.3,1l0.2,1.5l-0.3,1l-5.3,0l-1.2-0.3v0.6l0.5,0.5l5.8,0.2l0.7,0.2c0,0,0,1.8,0.1,1.9c0.1,0.1,0,0.7,0,0.7
		s-3.2,0.4-4.7,0.5l-2,0.2L1.8,15l-0.1-0.6l0.7-2L2,10.4L2,10.4z"/>
	<polyline class="st2" points="16.6,0.7 21.3,6.7 23.1,6.5 	"/>
	<polyline class="st2" points="19.9,0.7 24.7,6.7 26.4,6.5 	"/>
	<polyline class="st2" points="16.6,29.3 21.3,23.3 23.1,23.5 	"/>
	<polyline class="st2" points="19.9,29.3 24.7,23.3 26.4,23.5 	"/>
</g>
</svg>
