<?xml version="1.0" encoding="UTF-8"?>
<svg id="Layer_1" data-name="Layer 1" xmlns="http://www.w3.org/2000/svg" viewBox="0 0 20.54 29.06">
  <defs>
    <style>
      .cls-1 {
        fill: #96d9f7;
      }

      .cls-2 {
        fill: #fff;
      }

      .cls-3 {
        fill: #231f20;
      }
    </style>
  </defs>
  <path class="cls-1" d="m17.53,12.24c0-1.99-.67-3.82-1.79-5.28L20.25.16h-4.37l-2.23,4.86c-1.38-.92-3.03-1.45-4.8-1.45-.72,0-1.42.09-2.09.26l-.26-.41H2.04l1.35,2.09C1.42,7.09.17,9.52.17,12.24c0,2.9,1.43,5.47,3.62,7.05l-2.16,2.51v6.73s5-7.9,5-7.9c.71.19,1.45.29,2.22.29,1.4,0,2.73-.33,3.9-.93l2.16,3.32h4.34l-3.63-5.64c1.19-1.49,1.91-3.37,1.91-5.43"/>
  <path class="cls-3" d="m1.78,21.86v6.15s4.78-7.54,4.78-7.54l.11.03c.71.19,1.45.28,2.19.28,1.35,0,2.64-.31,3.83-.91l.12-.06,2.19,3.36h3.98l-3.53-5.5.07-.09c1.23-1.53,1.87-3.37,1.87-5.33s-.61-3.69-1.76-5.19l-.07-.09.06-.09L19.97.31h-3.99l-2.27,4.93-.15-.1c-1.4-.93-3.03-1.42-4.72-1.42-.69,0-1.38.09-2.05.25l-.11.03-.28-.43H2.32l1.28,1.96-.11.09C1.47,7.24.32,9.66.32,12.24c0,2.74,1.33,5.32,3.55,6.93l.14.1-2.23,2.59Zm-.3,7.2v-7.32s2.09-2.42,2.09-2.42C1.34,17.65.02,15.02.02,12.24.02,9.62,1.17,7.15,3.19,5.47l-1.43-2.21h4.83l.25.38c.66-.15,1.34-.23,2.02-.23,1.69,0,3.32.47,4.74,1.38L15.78,0h4.75l-4.61,6.96c1.15,1.54,1.76,3.36,1.76,5.28s-.65,3.87-1.87,5.44l3.72,5.79h-4.7l-2.13-3.27c-1.21.59-2.5.88-3.85.88-.73,0-1.45-.09-2.15-.27L1.47,29.06Z"/>
  <polygon class="cls-2" points=".28 2.48 4.75 2.48 8.9 8.95 14.6 .15 18.97 .15 11.13 12.3 17.36 22.22 13.02 22.22 8.8 15.74 1.63 26.88 1.63 20.12 6.7 12.36 .28 2.48"/>
  <path class="cls-3" d="m1.79,20.17v6.19l7.02-10.9,4.3,6.61h3.98l-6.13-9.76.05-.08L18.69.31h-4.01l-5.79,8.93L4.66,2.63H.56l6.32,9.73-5.09,7.8Zm-.31,7.23v-7.32l.03-.04,5.01-7.68L0,2.32h4.83l4.07,6.35L14.52,0h4.73l-7.94,12.3,6.32,10.07h-4.7l-4.13-6.35L1.48,27.4Z"/>
</svg>