<?xml version="1.0" encoding="utf-8"?>
<!-- Generator: Adobe Illustrator 27.7.0, SVG Export Plug-In . SVG Version: 6.00 Build 0)  -->
<svg version="1.1" id="Layer_1" xmlns="http://www.w3.org/2000/svg" xmlns:xlink="http://www.w3.org/1999/xlink" x="0px" y="0px"
	 viewBox="0 0 30 30" style="enable-background:new 0 0 30 30;" xml:space="preserve">
<style type="text/css">
	.st0{fill:#D61F37;}
	.st1{fill:none;stroke:#231F20;stroke-width:0.31;stroke-miterlimit:10;}
	.st2{fill:#FFC614;}
	.st3{fill:none;stroke:#231F20;stroke-width:0.3;stroke-miterlimit:10;}
</style>
<g id="Layer_2-2">
	<path class="st0" d="M5,14.6c0-5.3,4.3-9.6,9.6-9.6s9.6,4.3,9.6,9.6s-4.3,9.6-9.6,9.6S5,19.9,5,14.6"/>
	<path class="st1" d="M4.8,14.6c0-5.4,4.4-9.8,9.8-9.8s9.8,4.4,9.8,9.8s-4.4,9.8-9.8,9.8S4.8,20,4.8,14.6L4.8,14.6z"/>
	<polygon class="st2" points="0.9,26 10.6,14.7 1.3,4 10,4 14.8,10 19.9,4 28.3,4 19.1,14.4 29.1,26 20.3,26 14.8,19.2 9.3,26 	"/>
	<polygon class="st3" points="0.4,26.2 10.5,14.7 0.9,3.8 9.9,3.8 14.8,10 20,3.8 28.7,3.8 19.2,14.4 29.6,26.2 20.5,26.2 
		14.8,19.3 9.1,26.2 	"/>
</g>
</svg>
