<?xml version="1.0" encoding="utf-8"?>
<!-- Generator: Adobe Illustrator 27.7.0, SVG Export Plug-In . SVG Version: 6.00 Build 0)  -->
<svg version="1.1" id="Layer_1" xmlns="http://www.w3.org/2000/svg" xmlns:xlink="http://www.w3.org/1999/xlink" x="0px" y="0px"
	 viewBox="0 0 30 30" style="enable-background:new 0 0 30 30;" xml:space="preserve">
<style type="text/css">
	.st0{fill:#D61F37;}
	.st1{clip-path:url(#SVGID_00000079455144708171984440000014959239983306592664_);}
	.st2{fill:#231F20;}
</style>
<g id="Layer_1-2">
	<path class="st0" d="M14.9,3.1C8.4,3.1,3.1,8.5,3.1,15s5.3,11.9,11.9,11.9S26.8,21.5,26.8,15S21.5,3.1,14.9,3.1"/>
	<g>
		<defs>
			<rect id="SVGID_1_" x="0.2" y="0.2" width="29.7" height="29.7"/>
		</defs>
		<clipPath id="SVGID_00000087394189320643527300000011828653808165671354_">
			<use xlink:href="#SVGID_1_"  style="overflow:visible;"/>
		</clipPath>
		<g style="clip-path:url(#SVGID_00000087394189320643527300000011828653808165671354_);">
			<path class="st2" d="M23.3,18.9L19.4,15l3.9-3.9c0.6,1.2,0.9,2.5,0.9,3.9S23.8,17.7,23.3,18.9 M14.9,10.6L11,6.7
				c1.2-0.6,2.5-0.9,3.9-0.9s2.7,0.3,3.9,0.9L14.9,10.6z M14.9,24.2c-1.4,0-2.7-0.3-3.9-0.9l3.9-3.9l3.9,3.9
				C17.7,23.9,16.4,24.2,14.9,24.2 M6.6,18.9C6,17.7,5.7,16.4,5.7,15s0.3-2.7,0.9-3.9l3.9,3.9L6.6,18.9z M15,0.2
				C6.8,0.2,0.2,6.8,0.2,15S6.8,29.8,15,29.8S29.8,23.2,29.8,15S23.2,0.2,15,0.2"/>
		</g>
	</g>
</g>
</svg>
