<?xml version="1.0" encoding="utf-8"?>
<!-- Generator: Adobe Illustrator 27.7.0, SVG Export Plug-In . SVG Version: 6.00 Build 0)  -->
<svg version="1.1" id="Layer_1" xmlns="http://www.w3.org/2000/svg" xmlns:xlink="http://www.w3.org/1999/xlink" x="0px" y="0px"
	 viewBox="0 0 30 30" style="enable-background:new 0 0 30 30;" xml:space="preserve">
<style type="text/css">
	.st0{fill:#020202;}
	.st1{clip-path:url(#SVGID_00000057109459608530806230000003901587928958173118_);}
	.st2{fill:none;stroke:#020202;stroke-width:0.91;stroke-miterlimit:10;}
	.st3{fill:url(#SVGID_00000059272460706584344890000016463319541928865976_);}
</style>
<g id="Layer_1-2">
	<path class="st0" d="M15,27c-1.9,0-3.7-0.4-5.3-1.3l0,0l0,0c0.4-1.3,1.1-2.5,1.6-3.7h4v2.5c1.5,0.2,3.5,0.1,5.2,0.1
		c0-6.2,0-13.2,0-19.5c3.6,2,6,5.8,6,10.2C26.7,21.8,21.5,27,15,27 M14.2,3.7c-0.2,0.5-0.5,1-0.6,1.2c-2.5,5.5-5.3,11.9-7.9,17.4
		c-1.5-2-2.3-4.4-2.3-7C3.4,9.2,8.2,4.1,14.2,3.7 M15.4,17.7h-2.1c0.6-1.6,1.4-2.9,2-4.5C15.6,14.4,15.4,16.2,15.4,17.7 M20.6,2.8
		V0.6h-5.1c-0.1,0.2-0.2,0.6-0.4,1c-0.1,0-0.1,0-0.2,0C7.4,1.6,1.3,7.8,1.3,15.4c0,3.5,1.3,6.8,3.5,9.2c-0.1,0.1-0.1,0.2-0.1,0.2
		c-0.8,1.5-1.4,3-2.1,4.6H8c0.2-0.4,0.5-1.2,0.8-1.7c1.9,0.9,4,1.5,6.2,1.5c7.6,0,13.7-6.1,13.7-13.7C28.7,9.8,25.4,5,20.6,2.8"/>
	<g>
		<defs>
			<rect id="SVGID_1_" x="0.6" y="-0.1" width="28.9" height="30.1"/>
		</defs>
		<clipPath id="SVGID_00000050625684316327943630000017918633495928849031_">
			<use xlink:href="#SVGID_1_"  style="overflow:visible;"/>
		</clipPath>
		<g style="clip-path:url(#SVGID_00000050625684316327943630000017918633495928849031_);">
			<path class="st2" d="M20.6,2.8V0.6h-5.1c-0.1,0.2-0.2,0.6-0.4,1c-0.1,0-0.1,0-0.2,0C7.4,1.6,1.3,7.8,1.3,15.4
				c0,3.5,1.3,6.8,3.5,9.2c-0.1,0.1-0.1,0.2-0.1,0.2c-0.8,1.5-1.4,3-2.1,4.6H8c0.2-0.4,0.5-1.2,0.8-1.7c1.9,0.9,4,1.5,6.2,1.5
				c7.6,0,13.7-6.1,13.7-13.7C28.7,9.8,25.4,5,20.6,2.8L20.6,2.8z"/>
			<path class="st2" d="M15.4,17.7h-2.1c0.6-1.6,1.4-2.9,2-4.5C15.6,14.5,15.4,16.3,15.4,17.7L15.4,17.7z"/>
			<path class="st2" d="M14.2,3.7c-0.2,0.5-0.5,1-0.6,1.2c-2.5,5.5-5.3,11.9-7.9,17.4c-1.5-2-2.3-4.4-2.3-7
				C3.4,9.2,8.1,4.2,14.2,3.7L14.2,3.7z"/>
			<path class="st2" d="M15,27c-1.9,0-3.7-0.4-5.3-1.3l0,0l0,0c0.4-1.3,1.1-2.5,1.6-3.7h4v2.5c1.5,0.2,3.5,0.1,5.2,0.1
				c0-6.2,0-13.2,0-19.5c3.6,2,6,5.8,6,10.2C26.7,21.8,21.5,27,15,27L15,27z"/>
		</g>
	</g>
	
		<linearGradient id="SVGID_00000170263999670683808840000002864410898928920704_" gradientUnits="userSpaceOnUse" x1="27.9944" y1="31.6267" x2="2.6938" y2="2.417" gradientTransform="matrix(1 0 0 -1 0 32)">
		<stop  offset="0.27" style="stop-color:#F8E554"/>
		<stop  offset="0.86" style="stop-color:#DF2629"/>
	</linearGradient>
	<path style="fill:url(#SVGID_00000170263999670683808840000002864410898928920704_);" d="M15,27c-1.9,0-3.7-0.4-5.3-1.3l0,0l0,0
		c0.4-1.3,1.1-2.5,1.6-3.7h4v2.5c1.5,0.2,3.5,0.1,5.2,0.1c0-6.2,0-13.2,0-19.5c3.6,2,6,5.8,6,10.2C26.7,21.8,21.5,27,15,27
		 M14.2,3.7c-0.2,0.5-0.5,1-0.6,1.2c-2.5,5.5-5.3,11.9-7.9,17.4c-1.5-2-2.3-4.4-2.3-7C3.4,9.2,8.2,4.1,14.2,3.7 M15.4,17.7h-2.1
		c0.6-1.6,1.4-2.9,2-4.5C15.6,14.4,15.4,16.2,15.4,17.7 M20.6,2.8V0.6h-5.1c-0.1,0.2-0.2,0.6-0.4,1c-0.1,0-0.1,0-0.2,0
		C7.4,1.6,1.3,7.8,1.3,15.4c0,3.5,1.3,6.8,3.5,9.2c-0.1,0.1-0.1,0.2-0.1,0.2c-0.8,1.5-1.4,3-2.1,4.6H8c0.2-0.4,0.5-1.2,0.8-1.7
		c1.9,0.9,4,1.5,6.2,1.5c7.6,0,13.7-6.1,13.7-13.7C28.7,9.8,25.4,5,20.6,2.8"/>
</g>
</svg>
