<?xml version="1.0" encoding="utf-8"?>
<!-- Generator: Adobe Illustrator 27.7.0, SVG Export Plug-In . SVG Version: 6.00 Build 0)  -->
<svg version="1.1" id="Layer_1" xmlns="http://www.w3.org/2000/svg" xmlns:xlink="http://www.w3.org/1999/xlink" x="0px" y="0px"
	 viewBox="0 0 30 30" style="enable-background:new 0 0 30 30;" xml:space="preserve">
<style type="text/css">
	.st0{clip-path:url(#SVGID_00000054263253133831746360000010935880873073545138_);fill:#0082C2;}
	.st1{fill:#FFFFFF;}
	.st2{fill:#0082C2;}
</style>
<g>
	<defs>
		<rect id="SVGID_1_" x="0.3" y="0.3" width="29.5" height="29.4"/>
	</defs>
	<clipPath id="SVGID_00000137132690882096513310000014862141414046905501_">
		<use xlink:href="#SVGID_1_"  style="overflow:visible;"/>
	</clipPath>
	<path style="clip-path:url(#SVGID_00000137132690882096513310000014862141414046905501_);fill:#0082C2;" d="M15,0.3
		C6.9,0.3,0.3,6.9,0.3,15c0,8.1,6.6,14.7,14.7,14.7c8.1,0,14.7-6.6,14.7-14.7C29.7,6.9,23.1,0.3,15,0.3"/>
</g>
<path class="st1" d="M15,27.3C8.2,27.3,2.7,21.8,2.7,15C2.7,8.2,8.2,2.7,15,2.7c6.8,0,12.3,5.5,12.3,12.3
	C27.3,21.8,21.8,27.3,15,27.3"/>
<path class="st2" d="M14.6,16.3h-5l5-6.3 M20.5,4.5h-5.7L5,16v4.9h9.6v4.3h5.9v-4.3h2.6v-4.6h-2.6V4.5z"/>
</svg>
