<?xml version="1.0" encoding="utf-8"?>
<!-- Generator: Adobe Illustrator 27.7.0, SVG Export Plug-In . SVG Version: 6.00 Build 0)  -->
<svg version="1.1" id="Layer_1" xmlns="http://www.w3.org/2000/svg" xmlns:xlink="http://www.w3.org/1999/xlink" x="0px" y="0px"
	 viewBox="0 0 30 30" style="enable-background:new 0 0 30 30;" xml:space="preserve">
<style type="text/css">
	.st0{filter:url(#Adobe_OpacityMaskFilter);}
	.st1{mask:url(#mask230_00000162319875587392702140000018153125150388364955_);}
	.st2{clip-path:url(#SVGID_00000097471951316174100100000017927532318430655900_);}
	.st3{fill:#FFFFFF;}
	.st4{fill:#5C42A3;}
</style>
<g id="Layer_1-2">
	<g>
		<g>
			<defs>
				<rect id="SVGID_1_" x="0.4" y="0.1" width="29.1" height="29.7"/>
			</defs>
			<clipPath id="SVGID_00000145021040437393706200000013668005576376150430_">
				<use xlink:href="#SVGID_1_"  style="overflow:visible;"/>
			</clipPath>
		</g>
	</g>
</g>
<g id="g216">
	<g id="g222">
		<g id="g224">
		</g>
		<defs>
			<filter id="Adobe_OpacityMaskFilter" filterUnits="userSpaceOnUse" x="-1.2" y="2.3" width="59.7" height="42">
				<feColorMatrix  type="matrix" values="1 0 0 0 0  0 1 0 0 0  0 0 1 0 0  0 0 0 1 0"/>
			</filter>
		</defs>
		
			<mask maskUnits="userSpaceOnUse" x="-1.2" y="2.3" width="59.7" height="42" id="mask230_00000162319875587392702140000018153125150388364955_">
			<g id="g240_00000043418066253871455710000006204616508117925273_" class="st0">
				<g>
					<defs>
						<rect id="SVGID_00000060004586671863505470000002424276004946858168_" x="19.2" y="1994.5" width="127.9" height="100.7"/>
					</defs>
					<clipPath id="SVGID_00000057132290527885772500000005532116257749835944_">
						<use xlink:href="#SVGID_00000060004586671863505470000002424276004946858168_"  style="overflow:visible;"/>
					</clipPath>
					<g id="g238_00000118370428223700197350000017197030436178449343_">
						<g id="g236_00000102504864331403877000000002156614928339777434_">
							
								<g id="g234_00000104697338270505279070000000871036838025410434_" transform="matrix(33.840001,0,0,26.640001,28.184275,551.90162)">
								<g style="clip-path:url(#SVGID_00000057132290527885772500000005532116257749835944_);enable-background:new    ;">
									
										<image style="overflow:visible;" width="188" height="148" id="image232_00000043431728608595036850000008439960466063596189_" xlink:href="38C0EFF2.png"  transform="matrix(2.010387e-02 0 0 -2.553735e-02 -0.2659 57.9308)">
									</image>
								</g>
							</g>
						</g>
					</g>
				</g>
			</g>
		</mask>
		<g id="g242" class="st1">
			<g id="g244">
			</g>
			<g id="g254">
				<g>
					<defs>
						<rect id="SVGID_00000149350310671895172050000016331396101179692456_" x="-1.2" y="2.3" width="33" height="25.8"/>
					</defs>
					<clipPath id="SVGID_00000159450817292295275340000011801943584062889349_">
						<use xlink:href="#SVGID_00000149350310671895172050000016331396101179692456_"  style="overflow:visible;"/>
					</clipPath>
					<g id="g252" style="clip-path:url(#SVGID_00000159450817292295275340000011801943584062889349_);">
						<path id="path250" class="st3" d="M58.6,44.2l-26.8-42v25.8h-33L58.6,44.2z"/>
					</g>
				</g>
			</g>
		</g>
	</g>
	<g id="g256" transform="translate(45.7604,558.3426)">
		<path id="path258" class="st4" d="M-29.6-535.9c0,0,1.4,1.9,4,2.7s5.8,0.8,5.8,0.8s-3.3-0.5-5.4-1.2
			C-27.4-534.3-29.6-535.9-29.6-535.9"/>
	</g>
	<g id="g260" transform="translate(32.5208,572.0927)">
		<path id="path262" class="st4" d="M-30.6-564.4c0,0,0.2-0.1,1.4-0.4c0.3-0.1,0.6-0.1,1-0.2c0,0.1,0.1,0.1,0.2,0.1
			c0.1,0,0.2-0.1,0.2-0.2c0,0,0,0,0,0c1.1-0.2,2.3-0.2,3.4-0.2c2.1,0.1,3.3,0.2,4.7,0.5c0.4,0.1,0.8,0.2,1.2,0.3
			c0,0.1,0.2,0.3,0.3,0.3c0.1,0,0.2,0,0.2-0.1c1.8,0.5,2.6,0.9,3.8,1.4c0.5,0.2,0.9,0.5,1.4,0.8c-0.1,0.1-0.2,0.2-0.2,0.4
			c0,0.2,0.2,0.4,0.5,0.4c0.2,0,0.3-0.1,0.4-0.3c0.7,0.6,1.2,1.3,1.5,2.2c0.6,1.5,0.8,3.2-0.7,3.9c-1.7,0.8-5.8,0.1-5.8,0.1
			c1.2,0.5,3.3,1.1,5.7,0.7c2.4-0.4,2.8-2.5,2.4-4c-0.4-1.6-1.7-3.2-3.7-4.3c0.1-0.1,0.1-0.1,0.1-0.2c0-0.1-0.1-0.3-0.3-0.3
			c-0.1,0-0.2,0.1-0.2,0.2c-0.3-0.2-0.6-0.3-0.9-0.5c-1.4-0.6-2.7-1.1-4.3-1.5c0,0-0.1,0-0.1,0c0,0,0,0,0,0
			c-1.5-0.3-3.1-0.5-5.1-0.5c-0.7,0-1.4,0-2.1,0.1c0-0.3-0.2-0.5-0.5-0.4c-0.3,0-0.5,0.2-0.5,0.5c0,0,0,0.1,0,0.1
			C-29-565.2-30.6-564.4-30.6-564.4"/>
	</g>
	<g id="g264" transform="translate(49.1234,565.265)">
		<path id="path266" class="st4" d="M-29.3-550.2c0.4-1.3-1.4-3-3.9-3.7c-2.6-0.8-5-0.4-5.3,0.9c-0.4,1.3,1.4,3,3.9,3.7
			C-32.1-548.6-29.7-549-29.3-550.2"/>
	</g>
	<g id="g268" transform="translate(31.6911,571.2267)">
		<path id="path270" class="st4" d="M-30.6-562.6c-0.1,0-0.3,0.1-0.3,0.3c0,0.1,0.1,0.3,0.3,0.3s0.3-0.1,0.3-0.3
			S-30.5-562.6-30.6-562.6"/>
	</g>
	<g id="g272" transform="translate(33.598,569.9832)">
		<path id="path274" class="st4" d="M-30.5-560c0,0.2,0.2,0.4,0.4,0.4c0.2,0,0.4-0.2,0.4-0.4c0-0.2-0.2-0.4-0.4-0.4
			C-30.3-560.5-30.5-560.3-30.5-560"/>
	</g>
	<g id="g276" transform="translate(34.5172,569.5734)">
		<path id="path278" class="st4" d="M-30.4-559.2c0,0.2,0.1,0.3,0.3,0.3c0.2,0,0.3-0.1,0.3-0.3c0-0.2-0.1-0.3-0.3-0.3
			C-30.3-559.5-30.4-559.4-30.4-559.2"/>
	</g>
	<g id="g280" transform="translate(35.9846,570.3638)">
		<path id="path282" class="st4" d="M-30.3-560.8c0-0.2-0.2-0.4-0.4-0.4c-0.2,0-0.4,0.2-0.4,0.4c0,0.2,0.2,0.4,0.5,0.4
			C-30.5-560.4-30.3-560.6-30.3-560.8"/>
	</g>
	<g id="g284" transform="translate(33.0463,571.161)">
		<path id="path286" class="st4" d="M-30.5-562.5c0,0.1,0.1,0.2,0.2,0.2c0.1,0,0.2-0.1,0.2-0.2c0-0.1-0.1-0.2-0.2-0.2
			C-30.5-562.7-30.5-562.6-30.5-562.5"/>
	</g>
	<g id="g288" transform="translate(34.4225,571.747)">
		<path id="path290" class="st4" d="M-30.4-563.7c-0.2,0-0.3,0.2-0.3,0.3c0,0.2,0.2,0.3,0.3,0.3c0.2,0,0.3-0.2,0.3-0.3
			C-30.1-563.6-30.3-563.7-30.4-563.7"/>
	</g>
	<g id="g292" transform="translate(35.7339,571.5295)">
		<path id="path294" class="st4" d="M-30.3-563.3c0-0.1-0.1-0.2-0.2-0.2c-0.1,0-0.2,0.1-0.2,0.2c0,0.1,0.1,0.2,0.2,0.2
			C-30.4-563.1-30.3-563.1-30.3-563.3"/>
	</g>
	<g id="g296" transform="translate(36.2557,572.1776)">
		<path id="path298" class="st4" d="M-30.3-564.6c0-0.2-0.2-0.4-0.4-0.4c-0.2,0-0.4,0.2-0.4,0.4c0,0.2,0.2,0.4,0.4,0.4
			C-30.4-564.2-30.3-564.4-30.3-564.6"/>
	</g>
	<g id="g300" transform="translate(33.9646,572.4776)">
		<path id="path302" class="st4" d="M-30.5-565.2c-0.1,0-0.2,0.1-0.2,0.3c0,0.1,0.1,0.2,0.3,0.2c0.1,0,0.2-0.1,0.2-0.3
			C-30.2-565.1-30.3-565.2-30.5-565.2"/>
	</g>
	<g id="g304" transform="translate(32.9541,572.6838)">
		<path id="path306" class="st4" d="M-30.6-565.6c0.1,0,0.1-0.1,0.1-0.1c0-0.1-0.1-0.1-0.1-0.1s-0.1,0.1-0.1,0.1
			C-30.7-565.7-30.6-565.6-30.6-565.6"/>
	</g>
	<g id="g308" transform="translate(37.5302,573.9362)">
		<path id="path310" class="st4" d="M-30.2-568.3c0.1,0,0.2-0.1,0.2-0.2c0-0.1-0.1-0.2-0.2-0.2c-0.1,0-0.2,0.1-0.2,0.2
			C-30.4-568.3-30.3-568.2-30.2-568.3"/>
	</g>
	<g id="g312" transform="translate(37.1354,562.7678)">
		<path id="path314" class="st4" d="M-30.2-545.1c0-0.2-0.2-0.3-0.4-0.3c-0.2,0-0.3,0.2-0.3,0.4c0,0.2,0.2,0.3,0.4,0.3
			C-30.4-544.7-30.2-544.9-30.2-545.1"/>
	</g>
	<g id="g316" transform="translate(35.1917,564.1151)">
		<path id="path318" class="st4" d="M-30.4-547.9c0.1,0,0.2-0.1,0.2-0.2c0-0.1-0.1-0.2-0.2-0.2c-0.1,0-0.2,0.1-0.2,0.2
			C-30.5-547.9-30.5-547.8-30.4-547.9"/>
	</g>
	<g id="g320" transform="translate(38.9231,573.7363)">
		<path id="path322" class="st4" d="M-30.1-567.8c0.1,0,0.2-0.1,0.2-0.2c0-0.1-0.1-0.2-0.2-0.2c-0.1,0-0.2,0.1-0.2,0.2
			C-30.3-567.9-30.2-567.8-30.1-567.8"/>
	</g>
	<g id="g324" transform="translate(36.0566,564.9543)">
		<path id="path326" class="st4" d="M-30.3-549.6c0-0.1-0.1-0.2-0.2-0.2c-0.1,0-0.2,0.1-0.2,0.2c0,0.1,0.1,0.2,0.2,0.2
			C-30.4-549.4-30.3-549.5-30.3-549.6"/>
	</g>
	<g id="g328" transform="translate(38.6311,565.1649)">
		<path id="path330" class="st4" d="M-30.1-550c0,0.1,0.1,0.2,0.3,0.2c0.1,0,0.2-0.1,0.2-0.3c0-0.1-0.1-0.2-0.3-0.2
			C-30-550.3-30.1-550.2-30.1-550"/>
	</g>
	<g id="g332" transform="translate(41.1869,573.896)">
		<path id="path334" class="st4" d="M-29.9-568.2c0.2,0,0.3-0.2,0.3-0.3c0-0.2-0.2-0.3-0.3-0.3c-0.2,0-0.3,0.2-0.3,0.3
			C-30.2-568.3-30.1-568.2-29.9-568.2"/>
	</g>
	<g id="g336" transform="translate(39.4186,571.9664)">
		<path id="path338" class="st4" d="M-30.1-564.2c0,0.1,0.1,0.2,0.2,0.2c0.1,0,0.2-0.1,0.2-0.2c0-0.1-0.1-0.2-0.2-0.2
			C-30-564.4-30.1-564.3-30.1-564.2"/>
	</g>
	<g id="g340" transform="translate(40.1134,571.5462)">
		<path id="path342" class="st4" d="M-30-563.3c-0.1,0-0.2,0.1-0.2,0.3c0,0.1,0.1,0.2,0.3,0.2c0.1,0,0.2-0.1,0.2-0.3
			C-29.8-563.2-29.9-563.3-30-563.3"/>
	</g>
	<g id="g344" transform="translate(40.7616,572.1751)">
		<path id="path346" class="st4" d="M-29.9-564.6c0-0.1-0.1-0.3-0.3-0.3c-0.1,0-0.3,0.1-0.3,0.3c0,0.1,0.1,0.3,0.3,0.3
			C-30.1-564.3-29.9-564.4-29.9-564.6"/>
	</g>
	<g id="g348" transform="translate(40.8379,571.5778)">
		<path id="path350" class="st4" d="M-29.9-563.4c0,0.1,0.1,0.3,0.3,0.3s0.3-0.1,0.3-0.3c0-0.1-0.1-0.3-0.3-0.3
			C-29.8-563.6-30-563.5-29.9-563.4"/>
	</g>
	<g id="g352" transform="translate(41.6028,571.261)">
		<path id="path354" class="st4" d="M-29.9-562.7c0,0.1,0.1,0.2,0.2,0.2c0.1,0,0.2-0.1,0.2-0.2c0-0.1-0.1-0.2-0.2-0.2
			C-29.8-562.9-29.9-562.8-29.9-562.7"/>
	</g>
	<g id="g356" transform="translate(42.5096,569.9988)">
		<path id="path358" class="st4" d="M-29.8-560.1c0-0.2-0.2-0.4-0.4-0.4c-0.2,0-0.4,0.2-0.4,0.4c0,0.2,0.2,0.4,0.4,0.4
			C-30-559.7-29.8-559.9-29.8-560.1"/>
	</g>
	<g id="g360" transform="translate(43.5483,571.0532)">
		<path id="path362" class="st4" d="M-29.7-562.3c0,0.2,0.2,0.4,0.4,0.4c0.2,0,0.4-0.2,0.4-0.4c0-0.2-0.2-0.4-0.4-0.4
			C-29.6-562.7-29.7-562.5-29.7-562.3"/>
	</g>
	<g id="g364" transform="translate(56.9781,565.8807)">
		<path id="path366" class="st4" d="M-28.7-551.5c-0.1,0-0.2,0.1-0.2,0.1c-0.5-1.3-1.6-2.6-2.5-3.3c0,0,2.4,3.3,1.4,5
			c-0.9,1.5-2.3,2.3-4.7,2.5c-2.1,0.2-3.9-0.2-3.9-0.2s1.9,1.1,4.5,1c2.6-0.2,4.8-1.1,5.3-3c0.1-0.5,0.1-1,0-1.6c0,0,0.1,0,0.1,0
			c0.2,0,0.3-0.2,0.3-0.3C-28.4-551.4-28.5-551.5-28.7-551.5"/>
	</g>
	<g id="g368" transform="translate(52.966,567.7323)">
		<path id="path370" class="st4" d="M-29-555.4c0.1,0,0.2-0.1,0.2-0.3c0-0.1-0.1-0.2-0.3-0.2c-0.1,0-0.2,0.1-0.2,0.3
			C-29.3-555.5-29.1-555.4-29-555.4"/>
	</g>
	<g id="g372" transform="translate(32.4989,572.9407)">
		<path id="path374" class="st4" d="M-30.6-566.2c0.1,0,0.2-0.1,0.2-0.2c0-0.1-0.1-0.2-0.2-0.2c-0.1,0-0.2,0.1-0.2,0.2
			C-30.8-566.3-30.7-566.2-30.6-566.2"/>
	</g>
	<g id="g376" transform="translate(31.692,565.2552)">
		<path id="path378" class="st4" d="M-30.6-550.2c-0.1,0-0.2,0.1-0.2,0.3c0,0.1,0.1,0.2,0.3,0.2c0.1,0,0.2-0.1,0.2-0.3
			C-30.4-550.1-30.5-550.2-30.6-550.2"/>
	</g>
	<g id="g380" transform="translate(34.9488,564.8052)">
		<path id="path382" class="st4" d="M-30.4-549.3c0.1,0,0.2-0.1,0.2-0.3c0-0.1-0.1-0.2-0.3-0.2c-0.1,0-0.2,0.1-0.2,0.3
			C-30.6-549.4-30.5-549.3-30.4-549.3"/>
	</g>
	<g id="g384" transform="translate(35.6225,565.7174)">
		<path id="path386" class="st4" d="M-30.3-551.2c0-0.1-0.1-0.1-0.1-0.1c-0.1,0-0.1,0.1-0.1,0.1c0,0.1,0.1,0.1,0.1,0.1
			C-30.4-551-30.3-551.1-30.3-551.2"/>
	</g>
	<g id="g388" transform="translate(53.5055,559.5134)">
		<path id="path390" class="st4" d="M-29-538.3c0-0.2-0.2-0.3-0.4-0.3c-0.2,0-0.3,0.2-0.3,0.4c0,0.1,0,0.1,0.1,0.2
			c-1,0.1-2,0.1-3.1-0.1c-3.8-0.5-8.5-2.3-11.2-4.5c-2.4-2-3.4-4-2.9-5.3c0.6-1.6,2.1-1.9,3.9-2.2c1.9-0.3,4.3,0.6,4.3,0.6
			s-1.4-0.6-3.3-0.9c0,0,0,0,0,0c0-0.1-0.1-0.2-0.2-0.2c-0.1,0-0.2,0.1-0.2,0.2c-0.3,0-0.5,0-0.8-0.1c-2.7-0.1-4.4,0.7-5.2,2.2
			c-0.8,1.5,0.5,3.8,2.1,5.3c1.5,1.4,3.1,2.6,6.9,3.9c3.9,1.4,6.9,1.8,9.3,1.6c0.9-0.1,1.9-0.3,2.7-0.5c0,0,0,0,0,0.1
			c0,0.1,0.1,0.2,0.2,0.2c0.1,0,0.2-0.1,0.2-0.2c0-0.1,0-0.1-0.1-0.2c1.1-0.4,1.9-0.8,1.9-0.8s-1.7,0.5-4,0.8
			C-29-538.2-29-538.2-29-538.3"/>
	</g>
	<g id="g392" transform="translate(54.6178,557.554)">
		<path id="path394" class="st4" d="M-28.9-534.2c0-0.1-0.1-0.2-0.2-0.2c-0.1,0-0.2,0.1-0.2,0.2c0,0.1,0.1,0.2,0.2,0.2
			C-28.9-534.1-28.9-534.1-28.9-534.2"/>
	</g>
	<g id="g396" transform="translate(56.6826,559.1969)">
		<path id="path398" class="st4" d="M-28.7-537.6c-0.1,0-0.2,0.1-0.2,0.2c0,0.1,0.1,0.2,0.2,0.2c0.1,0,0.2-0.1,0.2-0.2
			C-28.5-537.5-28.6-537.6-28.7-537.6"/>
	</g>
	<g id="g400" transform="translate(56.4818,557.6224)">
		<path id="path402" class="st4" d="M-28.7-534.4c-0.1,0-0.2,0.1-0.2,0.3c0,0.1,0.1,0.2,0.3,0.2c0.1,0,0.2-0.1,0.2-0.3
			C-28.5-534.3-28.6-534.4-28.7-534.4"/>
	</g>
	<g id="g404" transform="translate(58.2237,560.0152)">
		<path id="path406" class="st4" d="M-28.6-539.3c-0.1,0-0.2,0.1-0.2,0.2c0,0.1,0.1,0.2,0.2,0.2c0.1,0,0.2-0.1,0.2-0.2
			C-28.4-539.3-28.5-539.3-28.6-539.3"/>
	</g>
	<g id="g408" transform="translate(57.4484,560.5819)">
		<path id="path410" class="st4" d="M-28.7-540.5c-0.1,0-0.1,0.1-0.1,0.1c0,0.1,0.1,0.1,0.1,0.1c0.1,0,0.1-0.1,0.1-0.1
			C-28.5-540.5-28.6-540.5-28.7-540.5"/>
	</g>
	<g id="g412" transform="translate(45.1016,557.5479)">
		<path id="path414" class="st4" d="M-29.6-534.2c-0.2,0-0.3,0.2-0.3,0.3c0,0.2,0.2,0.3,0.3,0.3c0.2,0,0.3-0.2,0.3-0.3
			C-29.3-534.1-29.4-534.2-29.6-534.2"/>
	</g>
	<g id="g416" transform="translate(38.6336,561.3019)">
		<path id="path418" class="st4" d="M-30.1-542c0-0.3-0.2-0.5-0.5-0.5c-0.3,0-0.5,0.2-0.5,0.5c0,0.3,0.2,0.5,0.5,0.5
			C-30.3-541.5-30.1-541.7-30.1-542"/>
	</g>
	<g id="g420" transform="translate(50.554,559.7276)">
		<path id="path422" class="st4" d="M-29.2-538.7c0-0.1-0.1-0.2-0.3-0.2c-0.1,0-0.2,0.1-0.2,0.3c0,0.1,0.1,0.2,0.3,0.2
			C-29.3-538.5-29.2-538.6-29.2-538.7"/>
	</g>
	<g id="g424" transform="translate(55.0678,560.3398)">
		<path id="path426" class="st4" d="M-28.8-540c0-0.1-0.1-0.2-0.3-0.2c-0.1,0-0.2,0.1-0.2,0.3c0,0.1,0.1,0.2,0.3,0.2
			C-28.9-539.8-28.8-539.9-28.8-540"/>
	</g>
	<g id="g428" transform="translate(56.051,560.195)">
		<path id="path430" class="st4" d="M-28.8-539.7c0-0.1-0.1-0.2-0.3-0.2c-0.1,0-0.2,0.1-0.2,0.3c0,0.1,0.1,0.2,0.3,0.2
			C-28.9-539.5-28.8-539.6-28.8-539.7"/>
	</g>
	<g id="g432" transform="translate(56.822,561.7361)">
		<path id="path434" class="st4" d="M-28.7-542.9c0-0.1-0.1-0.1-0.1-0.1c-0.1,0-0.1,0.1-0.1,0.1c0,0.1,0.1,0.1,0.1,0.1
			C-28.8-542.8-28.7-542.8-28.7-542.9"/>
	</g>
	<g id="g436" transform="translate(34.4839,568.4832)">
		<path id="path438" class="st4" d="M-30.4-556.9c0.1,0,0.3-0.1,0.2-0.3c0-0.1-0.1-0.3-0.3-0.3c-0.1,0-0.3,0.1-0.3,0.3
			C-30.7-557-30.6-556.9-30.4-556.9"/>
	</g>
	<g id="g440" transform="translate(46.0692,574.3363)">
		<path id="path442" class="st4" d="M-29.5-569.1c0.3,0,0.5-0.2,0.5-0.5c0-0.3-0.2-0.5-0.5-0.5c-0.3,0-0.5,0.2-0.5,0.5
			C-30.1-569.3-29.8-569.1-29.5-569.1"/>
	</g>
	<g id="g444" transform="translate(46.9236,569.9375)">
		<path id="path446" class="st4" d="M-29.5-559.9c0-0.1-0.1-0.2-0.2-0.2c-0.1,0-0.2,0.1-0.2,0.2c0,0.1,0.1,0.2,0.2,0.2
			C-29.6-559.7-29.5-559.8-29.5-559.9"/>
	</g>
	<g id="g448" transform="translate(47.4576,570.6286)">
		<path id="path450" class="st4" d="M-29.4-561.4c-0.2,0-0.4,0.2-0.4,0.4c0,0.2,0.2,0.4,0.4,0.4c0.2,0,0.4-0.2,0.4-0.4
			C-29-561.2-29.2-561.4-29.4-561.4"/>
	</g>
	<g id="g452" transform="translate(48.0024,569.12)">
		<path id="path454" class="st4" d="M-29.4-558.2c0.1,0,0.3-0.1,0.3-0.3c0-0.1-0.1-0.3-0.3-0.3c-0.1,0-0.3,0.1-0.2,0.3
			C-29.7-558.4-29.5-558.2-29.4-558.2"/>
	</g>
	<g id="g456" transform="translate(50.1646,570.9724)">
		<path id="path458" class="st4" d="M-29.2-562.1c0.1,0,0.2-0.1,0.2-0.3c0-0.1-0.1-0.2-0.3-0.2c-0.1,0-0.2,0.1-0.2,0.3
			C-29.5-562.2-29.4-562.1-29.2-562.1"/>
	</g>
	<g id="g460" transform="translate(48.6673,572.1462)">
		<path id="path462" class="st4" d="M-29.3-564.5c0.1,0,0.2-0.1,0.2-0.2c0-0.1-0.1-0.2-0.2-0.2c-0.1,0-0.2,0.1-0.2,0.2
			C-29.6-564.6-29.5-564.5-29.3-564.5"/>
	</g>
	<g id="g464" transform="translate(38.2416,558.247)">
		<path id="path466" class="st4" d="M-30.1-535.7c-0.2-0.1-0.4-0.1-0.5,0.1c-0.1,0.2-0.1,0.4,0.1,0.5c0.2,0.1,0.4,0.1,0.5-0.1
			C-29.9-535.3-30-535.5-30.1-535.7"/>
	</g>
	<g id="g468" transform="translate(40.1265,557.861)">
		<path id="path470" class="st4" d="M-30-534.9c-0.1-0.1-0.2,0-0.3,0c-0.1,0.1,0,0.2,0,0.3c0.1,0.1,0.2,0,0.3,0
			C-29.9-534.7-29.9-534.8-30-534.9"/>
	</g>
	<g id="g472" transform="translate(40.8309,559.0548)">
		<path id="path474" class="st4" d="M-29.9-537.3c0.1-0.2,0.1-0.4-0.1-0.5c-0.2-0.1-0.4-0.1-0.5,0.1c-0.1,0.2-0.1,0.4,0.1,0.5
			C-30.3-537.2-30.1-537.2-29.9-537.3"/>
	</g>
	<g id="g476" transform="translate(41.3431,558.817)">
		<path id="path478" class="st4" d="M-29.9-536.8c-0.1,0.1,0,0.2,0,0.2c0.1,0.1,0.2,0,0.2,0c0.1-0.1,0-0.2,0-0.2
			C-29.7-536.9-29.9-536.9-29.9-536.8"/>
	</g>
	<g id="g480" transform="translate(41.8177,557.8785)">
		<path id="path482" class="st4" d="M-29.9-534.9c0.1-0.1,0.1-0.2,0-0.3c-0.1-0.1-0.2-0.1-0.3,0c-0.1,0.1-0.1,0.2,0,0.2
			c-0.3-0.1-0.6-0.3-0.8-0.4c0.1-0.1,0-0.2-0.1-0.3c-0.1-0.1-0.2-0.1-0.3,0c0,0,0,0,0,0c-1.2-0.7-2.4-1.5-3.9-2.7
			c-3.1-2.4-3.5-3.1-4.1-5.1c-0.6-2,1.1-3.7,1.1-3.7s-2.1,1.2-1.9,3.3s1.9,4.5,5.1,6.6c0.7,0.5,1.5,1,2.4,1.4
			c-0.1,0-0.1,0.1-0.2,0.1c-0.2,0.2-0.1,0.5,0.1,0.7c0.2,0.2,0.5,0.1,0.7-0.1c0.1-0.1,0.1-0.2,0.1-0.4c2.5,1.2,4.9,2,4.9,2
			c-1.1-0.4-2-0.9-2.9-1.3C-29.9-534.8-29.9-534.9-29.9-534.9"/>
	</g>
	<g id="g484" transform="translate(42.5518,557.8469)">
		<path id="path486" class="st4" d="M-29.8-534.8c-0.1,0.1-0.1,0.3,0,0.3c0.1,0.1,0.3,0.1,0.3,0c0.1-0.1,0.1-0.3,0-0.3
			C-29.6-535-29.7-534.9-29.8-534.8"/>
	</g>
	<g id="g488" transform="translate(43.2413,557.7557)">
		<path id="path490" class="st4" d="M-29.8-534.6c-0.1,0.1,0,0.2,0,0.3c0.1,0.1,0.2,0,0.3,0c0.1-0.1,0-0.2,0-0.3
			C-29.6-534.7-29.7-534.7-29.8-534.6"/>
	</g>
	<g id="g492" transform="translate(43.4008,563.7993)">
		<path id="path494" class="st4" d="M-29.7-547.2c0-0.1-0.1-0.3-0.2-0.3c-0.1,0-0.3,0.1-0.3,0.2c0,0.1,0.1,0.3,0.2,0.3
			C-29.9-547-29.8-547.1-29.7-547.2"/>
	</g>
	<g id="g496" transform="translate(43.45,563.0651)">
		<path id="path498" class="st4" d="M-29.7-545.7c0.1,0,0.2-0.1,0.2-0.2c0-0.1-0.1-0.2-0.2-0.2c-0.1,0-0.2,0.1-0.2,0.2
			C-29.9-545.8-29.8-545.7-29.7-545.7"/>
	</g>
	<g id="g500" transform="translate(43.2623,558.7205)">
		<path id="path502" class="st4" d="M-29.8-536.6c-0.1,0-0.1,0-0.2,0c0,0.1,0,0.1,0,0.2c0.1,0,0.1,0,0.2,0
			C-29.7-536.5-29.7-536.6-29.8-536.6"/>
	</g>
	<g id="g504" transform="translate(43.5429,556.3497)">
		<path id="path506" class="st4" d="M-29.7-531.7c-0.1-0.1-0.3-0.1-0.5,0.1c-0.1,0.1-0.1,0.3,0.1,0.5c0.1,0.1,0.3,0.1,0.5-0.1
			C-29.6-531.4-29.6-531.6-29.7-531.7"/>
	</g>
	<g id="g508" transform="translate(41.6308,559.2898)">
		<path id="path510" class="st4" d="M-29.9-537.8c0.1,0.1,0.3,0.1,0.3,0c0.1-0.1,0.1-0.3,0-0.3c-0.1-0.1-0.3-0.1-0.3,0
			C-30-538.1-30-537.9-29.9-537.8"/>
	</g>
	<g id="g512" transform="translate(42.7106,559.7336)">
		<path id="path514" class="st4" d="M-29.8-538.8c-0.1,0-0.2,0-0.2,0c0,0.1,0,0.1,0,0.2c0.1,0,0.2,0,0.2,0
			C-29.7-538.6-29.7-538.7-29.8-538.8"/>
	</g>
</g>
</svg>
