<?xml version="1.0" encoding="utf-8"?>
<!-- Generator: Adobe Illustrator 27.7.0, SVG Export Plug-In . SVG Version: 6.00 Build 0)  -->
<svg version="1.1" id="Layer_1" xmlns="http://www.w3.org/2000/svg" xmlns:xlink="http://www.w3.org/1999/xlink" x="0px" y="0px"
	 viewBox="0 0 30 30" style="enable-background:new 0 0 30 30;" xml:space="preserve">
<style type="text/css">
	.st0{clip-path:url(#SVGID_00000152980113445854227260000012282407212184006532_);}
	.st1{fill:#FDB716;}
	.st2{fill:#768C91;}
	.st3{fill:#231F20;}
</style>
<g id="Layer_1-2">
	<g>
		<defs>
			<rect id="SVGID_1_" x="1.3" y="0.3" width="27.4" height="29.5"/>
		</defs>
		<clipPath id="SVGID_00000176011605206510434090000007448458374304746671_">
			<use xlink:href="#SVGID_1_"  style="overflow:visible;"/>
		</clipPath>
		<g style="clip-path:url(#SVGID_00000176011605206510434090000007448458374304746671_);">
			<path class="st1" d="M19.7,1.1L19.7,1.1l0.7-0.3L19.7,1.1 M17.1,29.6c0,0-2.6-0.9-5.4-1.8c-2.8-0.9-5.6-1.9-6-2
				c-0.1,0,0,0-0.2-0.1c-0.3-0.2-0.3-0.4-0.3-0.5c0-0.1,0-0.1,0-0.2c0-0.3,0.1-0.7,0.2-1.2c0.1-0.5,0.3-1,0.4-1.6
				c0.2-0.7,0.4-1.4,0.5-1.8c-0.7-0.8-2.5-2.9-3.7-4.3c-0.4-0.5-0.8-0.9-0.9-1c-0.1,0-0.1-0.1-0.2-0.1c-0.1-0.1-0.1-0.2-0.1-0.2
				c0-0.1,0-0.1,0-0.2c0-0.1,0-0.1,0-0.2c0-0.6,0.2-2.6,0.5-4.6C2,7.9,2.2,6,2.2,6V5.8l4.8-5.3h0.3c0,0,9-0.3,11.6-0.3
				c0.3,0,0.5,0,0.7,0c0.1,0,0.1,0,0.3,0.1c0,0,0.2,0,0.4,0.3l0,0c0,0,4.7,6.8,6.2,9.1c0.2,0.3,0.4,0.5,0.4,0.8
				c0,0.1,0.1,0.1,0.1,0.4c0,0.1,0,0.2-0.1,0.3v0l0,0c-0.1,0.1-0.1,0.2-0.3,0.4c-0.1,0.2-0.3,0.4-0.5,0.6c-0.1,0.1-0.2,0.3-0.3,0.4
				l2.9,3.8l-2.1,1.8l-1.2,3.5v2.8l-5.2,1.3l-2.5,3.9L17.1,29.6L17.1,29.6z"/>
		</g>
	</g>
	<path class="st2" d="M17.9,20l-2.7-0.8v0l-3.1,0L12,5.5h0.9h2.4l-0.1,13.3l4-12.7l2.8,0.8 M10.3,19.6L9,20L5.1,6.8l3-0.8L12,19.1
		L10.3,19.6L10.3,19.6z M26,16.1l-2.7-3.5c0,0,1.2-1.5,1.5-1.9c-0.1-0.2-0.3-0.5-0.6-0.9c-0.6-0.9-1.4-2.1-2.2-3.3
		c-1.2-1.7-2.4-3.4-2.9-4.3l0,0c-2.2,0-9.1,0.2-11,0.2L4.2,6.6C4.1,7.3,4,8.6,3.8,10c-0.2,1.5-0.4,3.2-0.4,4
		c0.1,0.2,0.3,0.4,0.5,0.6c0.5,0.5,1.1,1.3,1.7,2c1,1.1,1.9,2.3,2.4,2.9l0.4,0.5l-0.1,0.3c0,0-0.4,1.5-0.7,2.4
		c-0.1,0.5-0.3,1.1-0.4,1.6l0.8,0.3c1.1,0.4,8.6,2.9,8.6,2.9l2-3.2l4.5-1.2v-1.7l1.5-4.2L26,16.1L26,16.1z"/>
	<path class="st3" d="M17.6,19.4l-1.8-0.5l3.8-12.1l1.8,0.5 M14.7,18.7h-2.1L12.5,6h0.4h1.8L14.7,18.7z M10.1,19.1l-0.8,0.2L5.8,7.2
		l2-0.6l3.6,12.2L10.1,19.1L10.1,19.1z M23.9,12.6l0.4-0.4c0,0,0.7-0.9,1.1-1.4c0,0,0,0,0,0c-0.2-0.3-0.4-0.7-0.7-1.1
		c-0.6-0.9-1.4-2.1-2.3-3.4c-1.3-1.9-2.6-3.8-3.1-4.5c-0.1,0-0.2,0-0.3,0C16.7,1.7,9.3,1.9,7.7,2L3.6,6.4C3.6,7,3.4,8.4,3.2,10
		c-0.2,1.7-0.4,3.5-0.4,4.2c0,0,0,0,0.1,0.1c0.2,0.2,0.4,0.4,0.6,0.7c0.5,0.5,1.1,1.3,1.7,2c1.2,1.4,2.4,2.9,2.4,2.9l0.3,0.3
		l-0.1,0.4c0,0-0.3,1-0.5,2C7,23.2,6.8,24,6.7,24.5C7,24.6,7.5,24.8,8,25c1.1,0.4,2.5,0.8,3.9,1.3C14,27,16.1,27.7,17,28l2.1-3.4
		l4.7-1.2v-1.9l1.4-4.1l1.4-1.2L23.9,12.6L23.9,12.6z"/>
</g>
</svg>
