<?xml version="1.0" encoding="utf-8"?>
<!-- Generator: Adobe Illustrator 27.7.0, SVG Export Plug-In . SVG Version: 6.00 Build 0)  -->
<svg version="1.1" id="Layer_1" xmlns="http://www.w3.org/2000/svg" xmlns:xlink="http://www.w3.org/1999/xlink" x="0px" y="0px"
	 viewBox="0 0 30 30" style="enable-background:new 0 0 30 30;" xml:space="preserve">
<style type="text/css">
	.st0{fill:#FFFFFF;}
	.st1{clip-path:url(#SVGID_00000035496416969073312920000010108084112571217807_);}
	.st2{fill:#020202;}
</style>
<g id="Layer_1-2">
	<path class="st0" d="M29,15.1c0,7.6-6.2,13.8-13.8,13.8S1.4,22.7,1.4,15.1S7.6,1.3,15.2,1.3S29,7.5,29,15.1"/>
	<path class="st0" d="M1,15.1C1,7.4,7.3,1.1,15.1,1.1s14.1,6.3,14.1,14.1s-6.3,14.1-14.1,14.1S1,22.9,1,15.1"/>
	<g>
		<defs>
			<rect id="SVGID_1_" x="0.3" y="0.3" width="29.5" height="29.5"/>
		</defs>
		<clipPath id="SVGID_00000145747567389419113550000002215438007792450466_">
			<use xlink:href="#SVGID_1_"  style="overflow:visible;"/>
		</clipPath>
		<g style="clip-path:url(#SVGID_00000145747567389419113550000002215438007792450466_);">
			<path class="st2" d="M22.3,16.6c-0.2-0.3-0.6-0.5-0.4-0.9c0.1-0.2,0.3-0.2,0.5-0.2l0,0c0.5-0.1,1,0.1,1.5,0.2
				c1.2,0.3,2.4,0.8,3.5,1.4c-0.2,1-0.4,1.9-0.8,2.8C25.3,18.7,23.8,17.6,22.3,16.6 M20.6,26.2c-0.9-1.7-2.1-3.4-3.4-4.9
				c0,0,0,0,0,0c-0.1-0.1-0.1-0.1-0.2-0.2c0.4,0.1,0.7,0.3,1.1,0.4c0.4,0.1,0.8,0.2,1.2,0.3c0.1,0,0.1,0,0.2,0.1
				c0.5,0.2,0.4,1.2,0.9,1.6c0.2,0,0.3,0.3,0.5,0.1c0,0,0,0,0,0c0.2-0.1-0.1-0.2-0.1-0.3c0.1-0.3-0.3-0.4-0.3-0.7
				c0-0.1,0-0.1,0.1-0.2c0.2,0.2,0.4,0.5,0.8,0.6c0.1,0.1,0.2,0.1,0.3,0.1v0c0-0.1,0-0.2-0.1-0.3c0-0.1-0.1-0.1-0.1-0.2
				c0-0.1,0-0.1,0-0.2c-0.1-0.2-0.3-0.2-0.4-0.3c0,0,0,0,0,0c0.2-0.2,0.5,0.2,0.7,0.3c0,0.3,0.3,0.2,0.4,0.4c0.1,0,0.1-0.1,0.1-0.2
				c0-0.1-0.1-0.1-0.1-0.2c-0.1-0.1,0-0.2-0.1-0.3c-0.1-0.3-0.5-0.1-0.5-0.4c0,0,0.1,0,0.1,0c0.3-0.1,0.3,0.4,0.6,0.3
				c0.1,0.1,0.1,0.2,0.2,0.2l0,0c0-0.1,0-0.3,0-0.4v0c0,0-0.1-0.1-0.1-0.1c0,0,0,0,0,0l0,0c-0.1,0-0.2,0-0.2-0.1
				c-0.3-0.2-0.5-0.8-1-0.2c-0.8,0.4-0.9-0.6-1.4-0.9c-0.3-0.4-0.7-0.5-1.1-0.8c0,0,0,0,0-0.1c0.1-0.2,0.5,0,0.7,0
				c0.7,0.1,1.4,0.4,2,0.7c1.3,0.6,2.4,1.5,3.4,2.6C23.7,24.2,22.2,25.4,20.6,26.2 M11.3,26.9c0.7-1.7,1.6-3.4,2.6-5
				c0,0.1,0,0.1,0,0.2c-0.3,1.8-0.8,3.5-1.5,5.1C12,27.2,11.7,27.1,11.3,26.9 M8.5,20.1c0.6-0.3,1.3-0.6,2-0.7c0.2,0,0.6-0.1,0.7,0
				c0,0,0,0,0,0.1c-0.3,0.3-0.7,0.4-1.1,0.8c-0.5,0.3-0.6,1.3-1.4,0.9c-0.4-0.6-0.6,0-0.9,0.2c-0.1,0-0.2,0-0.2,0.1l0,0c0,0,0,0,0,0
				c0,0-0.1,0.1-0.1,0.1v0c0,0.1,0,0.3,0,0.4l0,0c0,0,0.1-0.1,0.2-0.2C8,22,8,21.5,8.3,21.6c0,0,0,0,0.1,0C8.3,22,8,21.8,7.8,22
				c-0.1,0.1,0,0.3-0.1,0.3c0,0.1-0.1,0.1-0.1,0.2c0,0.1,0,0.1,0.1,0.2c0.1-0.2,0.4-0.1,0.4-0.4c0.2-0.1,0.5-0.5,0.7-0.3
				c0,0,0,0,0,0c-0.1,0.1-0.3,0.2-0.4,0.3c0,0.1,0,0.1,0,0.2c0,0.1-0.1,0.1-0.1,0.2c-0.1,0.1-0.1,0.2-0.1,0.3c0,0,0,0,0,0
				c0.1,0,0.2-0.1,0.3-0.1c0.3-0.1,0.6-0.5,0.8-0.6c0,0.1,0.1,0.1,0.1,0.2c0,0.1,0,0.2,0,0.3C9,23,9.2,23.4,9,23.6c0,0,0,0,0,0
				c0.2,0.1,0.3-0.1,0.5-0.1c0.5-0.4,0.3-1.4,0.9-1.6c0.1,0,0.1,0,0.2-0.1c0.4-0.1,0.8-0.2,1.2-0.3c0.4-0.1,0.8-0.4,1.1-0.4
				c-0.1,0.1-0.1,0.1-0.2,0.2c0,0,0,0,0,0c-1.3,1.6-2.4,3.2-3.4,4.9c-1.7-0.9-3.2-2.1-4.3-3.6C6.1,21.5,7.2,20.7,8.5,20.1 M2.7,17.1
				c1.1-0.6,2.2-1.1,3.4-1.4c0.5,0,1-0.3,1.5-0.2l0,0c0.2,0,0.4,0,0.5,0.2c0.2,0.4-0.2,0.6-0.5,0.9c-1.4,1-2.9,2-4.1,3.3
				C3.1,19,2.8,18.1,2.7,17.1 M6.3,12.4L6.3,12.4c-1.3,0.4-2.5,0.9-3.7,1.5c0.1-0.6,0.1-1.1,0.3-1.7C4,12,5.3,12,6.3,12.4
				C6.3,12.3,6.3,12.3,6.3,12.4C6.3,12.4,6.3,12.4,6.3,12.4 M6.5,8.7c0.1,0.1-0.1,0.2-0.2,0.2c0,0,0,0-0.1,0C5.5,9,4.6,9.2,3.8,9.4
				C4,9,4.2,8.7,4.4,8.4C5.1,8.3,5.9,8.3,6.5,8.7 M6.8,5.6C7.3,5.7,7.9,6,8.4,6.3c0.1,0.1,0,0.2,0,0.3L8.2,6.7c0,0,0,0,0,0l0,0
				c-0.8,0.1-1.8,0-2.7,0.1C5.9,6.4,6.3,6,6.8,5.6 M15.1,8.9c0,0-0.1,0-0.1,0c-0.3,0-0.5,0.1-0.7,0.2c0-0.2,0.4-0.3,0.7-0.2
				C15,8.8,15.1,8.9,15.1,8.9 M17.6,27.3c-0.6-1.6-1.1-3.3-1.5-5.1c0-0.1,0-0.1,0-0.2c1,1.6,1.9,3.2,2.6,5
				C18.3,27.1,17.9,27.2,17.6,27.3 M17.9,8.9c0.2,0.1,0.4,0.2,0.6,0.2c0.2,0.1,0.4,0.3,0.5,0.5c0.2,0.7-0.5,1.1-1,1.4
				c-0.2,0-0.4-0.4-0.5-0.5c-0.1-0.1-0.2-0.2-0.2-0.4c-0.2-0.4-0.3-0.8-0.5-1.2c-0.2-0.5-0.7-0.9-1.3-0.9c-0.2,0-0.4,0-0.6,0
				c-0.6,0-1.2,0.1-1.5,0.7c-0.1,0-0.3,0.1-0.4,0.1c-0.2,0.1-0.4,0.3-0.6,0.5c-0.1,0.2-0.1,0.4,0,0.6c0,0,0,0,0,0
				c0.1,0.1,0.3,0.3,0.5,0.3c0.1-0.1,0-0.4,0.2-0.4c0.3,0,0.7-0.3,0.8,0.2c0.1,0.4,0,0.7-0.2,1c-0.6,0.5-1.4,0.1-2-0.2c0,0,0,0,0,0
				c-0.5-0.3-1.1-0.7-1-1.4c0.1-0.2,0.3-0.5,0.5-0.5c0.3,0,0.4-0.1,0.6-0.2c0.5-0.6,0-1.3-0.1-1.9c-0.4-0.9-1-1.5-1.7-2.1
				C9.7,4.6,9.3,4.3,8.9,4c1.8-1,3.9-1.6,6.1-1.6S19.3,3,21.1,4c-0.4,0.3-0.9,0.5-1.3,0.9c-0.7,0.5-1.4,1.2-1.7,2.1
				C17.9,7.5,17.4,8.3,17.9,8.9 M21.8,6.7L21.8,6.7C21.8,6.7,21.8,6.7,21.8,6.7l-0.2-0.1c0-0.1-0.1-0.2,0-0.3c0.5-0.3,1-0.6,1.6-0.7
				c0,0,0,0,0.1,0c0.4,0.4,0.9,0.8,1.3,1.3C23.7,6.7,22.7,6.8,21.8,6.7 M26.2,9.4c-0.8-0.2-1.7-0.4-2.6-0.5c0,0,0,0-0.1,0
				c-0.1,0-0.2-0.1-0.2-0.2c0.6-0.4,1.5-0.4,2.3-0.3C25.9,8.7,26,9,26.2,9.4 M23.6,12.3c1.1-0.3,2.5-0.3,3.7-0.1
				c0.1,0.5,0.2,1.1,0.3,1.7C26.2,13.2,25,12.7,23.6,12.3L23.6,12.3C23.6,12.3,23.6,12.3,23.6,12.3C23.6,12.3,23.6,12.3,23.6,12.3
				 M15,0.3C6.9,0.3,0.3,6.9,0.3,15S6.9,29.7,15,29.7S29.7,23.1,29.7,15S23.1,0.3,15,0.3"/>
		</g>
	</g>
</g>
</svg>
