<?xml version="1.0" encoding="utf-8"?>
<!-- Generator: Adobe Illustrator 27.7.0, SVG Export Plug-In . SVG Version: 6.00 Build 0)  -->
<svg version="1.1" id="Layer_1" xmlns="http://www.w3.org/2000/svg" xmlns:xlink="http://www.w3.org/1999/xlink" x="0px" y="0px"
	 viewBox="0 0 30 30" style="enable-background:new 0 0 30 30;" xml:space="preserve">
<style type="text/css">
	.st0{fill:#A8AAAD;}
	.st1{fill:#231F20;}
</style>
<g id="Layer_1-2">
	<polyline class="st0" points="27.1,0.3 2.9,0.3 2.9,29.7 27.1,29.7 	"/>
	<path class="st1" d="M24.7,2.9l-3.1,2h-2.5l-1.8-2.3h7.4 M24.7,5.4l-2.9,2h-4.1c-0.3-2.2-2.2-3.9-4.5-3.9C11.8,3.4,10.6,4,9.8,5
		L7.6,2.6h8.6l2.5,3.1h3.2l2.8-1.8L24.7,5.4L24.7,5.4z M10.4,8.1c0-1.5,1.2-2.7,2.7-2.8c1.5,0,2.7,1.2,2.8,2.7
		c0,1.5-1.2,2.7-2.7,2.8C11.7,10.8,10.4,9.6,10.4,8.1 M7,8.5c0.5,0,1,0.4,1,1s-0.4,1-1,1s-1-0.4-1-1S6.5,8.5,7,8.5 M8.6,17.9
		c0-0.9,0.7-1.6,1.6-1.6s1.6,0.7,1.6,1.6s-0.7,1.6-1.6,1.6C9.2,19.4,8.6,18.7,8.6,17.9 M16.2,16.3c0,0.6-0.5,1.1-1.1,1.1
		c-0.6,0-1.1-0.5-1.1-1.1c0-0.6,0.5-1.1,1.1-1.1C15.7,15.2,16.2,15.7,16.2,16.3 M24.7,10.6H21L19.7,13c-0.2-0.1-0.4-0.1-0.6-0.1
		c-1.1,0-2,0.9-2,2c0,0.9,0.6,1.7,1.5,1.9v5.3h-1v-3.4l-1-1.1c0.3-0.3,0.5-0.8,0.5-1.3c0-1.1-0.9-2-2-2c-1.1,0-2,0.9-1.9,2
		c0,1.1,0.9,2,2,2c0.3,0,0.7-0.1,0.9-0.2L16,18.1l0.8,0.9v3.1l-11.5,0v-9.3h1.1l1.7,2.9c-0.6,0.6-1,1.3-1,2.2c0,1.6,1.4,3,3,3
		s3-1.4,3-3s-1.4-3-3-3c-0.4,0-0.7,0.1-1.1,0.2l-2-3.4H5.3V4.9l1.4,1.4V8C6,8.2,5.5,8.8,5.5,9.5C5.5,10.3,6.2,11,7,11
		s1.5-0.7,1.5-1.5C8.6,8.7,8,8,7.2,7.9V6.1l-2-2V2.6h0.4l3.4,3.5C8.8,6.7,8.7,7.3,8.7,8c0,2.5,2.1,4.5,4.6,4.5
		c2.2,0,4.1-1.6,4.5-3.8h4.6l2.4-1.7L24.7,10.6L24.7,10.6z M24.7,13.4h-1.3l-2.1,3.9v4.8h-1.6v-5.3c0.8-0.3,1.4-1,1.4-1.9
		c0-0.5-0.2-0.9-0.4-1.2l1-1.9h3C24.7,11.7,24.7,13.4,24.7,13.4z M24.7,22.1h-2.6v-4.5l1.7-3.3h0.8L24.7,22.1L24.7,22.1z M19.1,15.8
		c-0.5,0-0.9-0.4-0.9-0.9s0.4-0.9,0.9-0.9s0.9,0.4,0.9,0.9C20,15.4,19.6,15.8,19.1,15.8 M26.1,1.1H3.8v27.7h1.5v-5.3h3.7v2.8H7.9
		v2.6h2.5v-5.3h3.9v2.8h-1.1v2.6h2.4v-5.3h3.9v2.8h-1v2.6h2.3v-5.3h3.9v2.8h-0.9v2.6h2.3L26.1,1.1L26.1,1.1z"/>
</g>
</svg>
